<?xml version="1.0" encoding="utf-8"?>
<!-- Generator: Adobe Illustrator 24.2.1, SVG Export Plug-In . SVG Version: 6.00 Build 0)  -->
<svg version="1.1" id="Layer_1" xmlns="http://www.w3.org/2000/svg" xmlns:xlink="http://www.w3.org/1999/xlink" x="0px" y="0px"
	 viewBox="0 0 240.391 226.414" enable-background="new 0 0 240.391 226.414" xml:space="preserve">
<defs>
	<script  language="JavaScript"></script>
</defs>
<script  type="text/JavaScript">
	<![CDATA[
function notify( ref, type ) {
    var event = document.createEvent("CustomEvent");
    event.initEvent(type,true,true);
    ref.dispatchEvent(event);
}

		
		
		
		
		
		
		
		
		
		
		
		]]>
</script>
<g>
	<g>
		<path fill="#EA8E10" d="M168.026,16.669c-13.312-2.005-30.541-3.215-49.379-3.215c-17.388,0-33.399,1.03-46.229,2.765V40.46H36.65
			v93.13H203.79V40.91h-35.765V16.669L168.026,16.669z"/>
	</g>
	<path fill="#231F20" d="M168.026,47.872V16.768c18.291,3.174,30.136,8.172,30.136,13.814c3.104,0,5.629,2.596,5.629,5.802v11.488
		H168.026z"/>
	<path fill="#231F20" d="M72.415,47.374V16.269C54.124,19.444,42.28,24.442,42.28,30.084c-3.105,0-5.632,2.594-5.632,5.801v11.488
		L72.415,47.374L72.415,47.374z"/>
</g>
<path fill="#F5A909" d="M213.098,132.777c-4.225-4.224-12.777-4.512-19.145-8.106c-25.554-14.445-43.263-19.029-73.162-19.029
	c-0.188,0-0.381,0.002-0.568,0.004c-0.188-0.001-0.385-0.004-0.569-0.004c-29.899,0-47.606,4.584-73.161,19.029
	c-6.367,3.597-14.923,3.886-19.146,8.106c-12.045,12.046-4.393,37.98-4.393,37.98c0,0.695,0.555,1.248,1.241,1.248h96.024h96.027
	c0.688,0,1.244-0.553,1.244-1.248C217.49,170.756,225.145,144.823,213.098,132.777z"/>
<path fill="#F5A909" d="M143.329,14.193c0-2.861-9.302-9.327-23.238-9.327c-13.922,0-22.979,6.466-22.979,9.327"/>
<path fill="#231F20" d="M216.016,172.004h-18.505h-39.844h-75.73H42.691H24.429c-0.729,0-1.311,0.83-1.311,1.861l3.521,8.496
	c0,1.078,0.562,1.967,1.252,1.967h13.404v26.131c0,0.854,0.625,1.549,1.395,1.549h39.246c0.768,0,1.393-0.694,1.393-1.549v-16.332
	h72.936v16.332c0,0.854,0.619,1.549,1.404,1.549h39.844c0.779,0,1.398-0.694,1.398-1.549v-26.131h13.629
	c0.699,0,1.266-0.889,1.266-1.967l3.518-8.496C217.321,172.835,216.729,172.004,216.016,172.004z"/>
<path fill="#12100B" stroke="#4D4947" stroke-width="6" d="M162.682,155.443c0,3.901-3.162,7.063-7.063,7.063H84.823
	c-3.902,0-7.064-3.162-7.064-7.063v-26.56c0-3.907,3.162-7.069,7.064-7.069h70.795c3.901,0,7.063,3.162,7.063,7.069V155.443
	L162.682,155.443z"/>
<path fill="#D0D0D0" stroke="#231F20" stroke-width="4" d="M213.374,147.778c0,8.426-6.817,15.258-15.256,15.258
	c-8.41,0-15.248-6.83-15.248-15.258c0-8.424,6.838-15.255,15.248-15.255C206.557,132.524,213.374,139.354,213.374,147.778z"/>
<path fill="#FFFFFF" stroke="#231F20" stroke-width="2" d="M207.565,147.778c0,5.217-4.222,9.443-9.442,9.443
	c-5.207,0-9.439-4.229-9.439-9.443c0-5.214,4.232-9.441,9.439-9.441C203.343,138.336,207.565,142.564,207.565,147.778z"/>
<path fill="#D0D0D0" stroke="#231F20" stroke-width="4" d="M57.571,147.778c0,8.426-6.817,15.258-15.259,15.258
	c-8.409,0-15.248-6.83-15.248-15.258c0-8.424,6.839-15.255,15.248-15.255C50.751,132.524,57.571,139.354,57.571,147.778z"/>
<path fill="#FFFFFF" stroke="#231F20" stroke-width="2" d="M51.757,147.778c0,5.217-4.221,9.443-9.443,9.443
	c-5.207,0-9.438-4.229-9.438-9.443c0-5.214,4.23-9.441,9.438-9.441C47.538,138.336,51.757,142.564,51.757,147.778z"/>
<line fill="none" stroke="#4D4947" stroke-width="5" x1="79.828" y1="138.493" x2="160.614" y2="138.493"/>
<line fill="none" stroke="#4D4947" stroke-width="5" x1="79.828" y1="130.113" x2="160.614" y2="130.113"/>
<line fill="none" stroke="#4D4947" stroke-width="5" x1="79.828" y1="146.874" x2="160.614" y2="146.874"/>
<line fill="none" stroke="#4D4947" stroke-width="5" x1="79.828" y1="155.254" x2="160.614" y2="155.254"/>
<path fill="#FFFFFF" d="M198.12,91.793c0,0.688-0.556,1.249-1.242,1.249h-70.701c-0.692,0-1.264-0.562-1.264-1.249V57.367
	c0-0.688,0.567-1.25,1.264-1.25h70.701c0.688,0,1.242,0.562,1.242,1.25V91.793z"/>
<path fill="#FFFFFF" d="M115.517,91.793c0,0.688-0.555,1.249-1.244,1.249H43.56c-0.688,0-1.246-0.562-1.246-1.249V57.367
	c0-0.688,0.56-1.25,1.246-1.25h70.713c0.689,0,1.244,0.562,1.244,1.25V91.793z"/>
<g>
	<path fill="#231F20" d="M28.247,86.558c0,0.682-0.549,1.243-1.236,1.243H10.199c-0.684,0-1.248-0.562-1.248-1.243V62.517
		c0-0.689,0.564-1.243,1.248-1.243h16.811c0.689,0,1.236,0.554,1.236,1.243V86.558z"/>
	<path fill="none" stroke="#13110C" stroke-width="6" d="M18.601,87.801c0,5.763,7.994,10.417,17.886,10.417"/>
</g>
<g>
	<path fill="#231F20" d="M212.143,86.558c0,0.682,0.565,1.243,1.241,1.243h16.812c0.677,0,1.242-0.562,1.242-1.243V62.517
		c0-0.689-0.565-1.243-1.242-1.243h-16.812c-0.676,0-1.241,0.554-1.241,1.243V86.558z"/>
	<path fill="none" stroke="#13110C" stroke-width="6" d="M221.794,87.801c0,5.763-7.994,10.417-17.883,10.417"/>
</g>
<path fill="#E30613" stroke="#DD1215" stroke-width="0.2339" d="M173.449,34.682c0,5.866,4.735,10.608,10.596,10.608
	c5.854,0,10.603-4.742,10.603-10.608c0-5.839-4.748-10.596-10.603-10.596C178.186,24.086,173.449,28.843,173.449,34.682z"/>
<path fill="#E30613" stroke="#DD1215" stroke-width="0.2339" d="M44.56,34.682c0,5.866,4.744,10.608,10.584,10.608
	c5.863,0,10.613-4.742,10.613-10.608c0-5.839-4.75-10.596-10.613-10.596C49.304,24.086,44.56,28.843,44.56,34.682z"/>
<g>
	<path d="M74.525,24.132c0.953-0.173,2.46-0.303,3.989-0.303c2.183,0,3.587,0.324,4.643,1.06c0.878,0.562,1.402,1.427,1.402,2.573
		c0,1.406-1.078,2.638-2.857,3.2v0.043c1.604,0.346,3.484,1.492,3.484,3.654c0,1.254-0.575,2.206-1.43,2.919
		c-1.179,0.93-3.085,1.362-5.845,1.362c-1.505,0-2.659-0.086-3.389-0.173L74.525,24.132L74.525,24.132z M76.707,30.099h1.979
		c2.311,0,3.663-1.038,3.663-2.443c0-1.708-1.505-2.378-3.713-2.378c-1.003,0-1.58,0.065-1.932,0.13L76.707,30.099L76.707,30.099z
		 M76.707,37.083c0.427,0.065,1.054,0.087,1.831,0.087c2.258,0,4.34-0.714,4.34-2.833c0-1.989-1.981-2.811-4.364-2.811h-1.807
		V37.083L76.707,37.083z"/>
	<path d="M90.305,23.937v8.627c0,3.265,1.682,4.648,3.938,4.648c2.509,0,4.112-1.427,4.112-4.648v-8.627h2.207v8.498
		c0,4.476-2.732,6.313-6.396,6.313c-3.462,0-6.07-1.708-6.07-6.227v-8.584H90.305z"/>
	<path d="M104.053,36.218c0.979,0.519,2.408,0.952,3.913,0.952c2.232,0,3.537-1.017,3.537-2.487c0-1.362-0.903-2.141-3.188-2.897
		c-2.76-0.843-4.465-2.076-4.465-4.13c0-2.271,2.184-3.957,5.469-3.957c1.73,0,2.984,0.346,3.737,0.714l-0.603,1.535
		c-0.553-0.26-1.683-0.692-3.211-0.692c-2.31,0-3.188,1.189-3.188,2.184c0,1.362,1.028,2.032,3.361,2.811
		c2.858,0.951,4.312,2.14,4.312,4.281c0,2.249-1.932,4.195-5.92,4.195c-1.631,0-3.411-0.411-4.312-0.93L104.053,36.218z"/>
	<path d="M121.889,31.959v1.405h-6.194v-1.405H121.889z"/>
	<path d="M124.549,24.132c0.953-0.173,2.459-0.303,3.989-0.303c2.182,0,3.587,0.324,4.641,1.06c0.878,0.562,1.404,1.427,1.404,2.573
		c0,1.406-1.078,2.638-2.858,3.2v0.043c1.605,0.346,3.485,1.492,3.485,3.654c0,1.254-0.576,2.206-1.43,2.919
		c-1.18,0.93-3.086,1.362-5.846,1.362c-1.506,0-2.659-0.086-3.388-0.173L124.549,24.132L124.549,24.132z M126.733,30.099h1.981
		c2.309,0,3.663-1.038,3.663-2.443c0-1.708-1.506-2.378-3.713-2.378c-1.004,0-1.58,0.065-1.933,0.13L126.733,30.099L126.733,30.099z
		 M126.733,37.083c0.428,0.065,1.055,0.087,1.831,0.087c2.258,0,4.34-0.714,4.34-2.833c0-1.989-1.98-2.811-4.363-2.811h-1.808
		V37.083L126.733,37.083z"/>
	<path d="M149.962,38.034c-0.803,0.346-2.408,0.692-4.465,0.692c-4.768,0-8.355-2.595-8.355-7.373c0-4.562,3.587-7.654,8.829-7.654
		c2.107,0,3.438,0.389,4.015,0.649l-0.526,1.535c-0.827-0.346-2.007-0.605-3.411-0.605c-3.964,0-6.598,2.184-6.598,6.011
		c0,3.567,2.383,5.859,6.497,5.859c1.329,0,2.685-0.238,3.562-0.605L149.962,38.034z"/>
	<path d="M152.698,38.51V23.937h2.384l5.418,7.373c1.254,1.708,2.231,3.244,3.035,4.735l0.051-0.021
		c-0.201-1.946-0.251-3.719-0.251-5.989v-6.098h2.058V38.51h-2.207l-5.368-7.394c-1.181-1.622-2.31-3.287-3.16-4.865l-0.075,0.021
		c0.125,1.838,0.176,3.589,0.176,6.011v6.227L152.698,38.51L152.698,38.51z"/>
</g>
<g>
	<defs>
		<rect id="SVGID_1_" x="124.913" y="56.134" width="41.624" height="36.892"/>
	</defs>
	<clipPath id="SVGID_2_">
		<use xlink:href="#SVGID_1_"  overflow="visible"/>
	</clipPath>
	<g clip-path="url(#SVGID_2_)">
		<path fill="#D3D1D2" d="M156.567,110.04c2.569,0.063,5.11,0.337,7.583,1.063c0.333,0.098,0.61,0.388,0.913,0.588
			c-0.295,0.241-0.558,0.621-0.892,0.698c-1.45,0.336-2.91,0.713-4.386,0.837c-2.777,0.233-5.566,0.364-8.353,0.421
			c-2.403,0.049-4.809-0.042-7.213-0.117c-1.47-0.046-2.939-0.149-4.404-0.284c-1.018-0.093-2.026-0.291-3.04-0.426
			c-0.44-0.059-0.885-0.079-1.328-0.116c0.78-0.126,1.559-0.252,2.339-0.378c0.621-0.151,1.257-0.258,1.858-0.464
			c0.757-0.259,1.031-0.908,0.801-1.704c1.128-0.089,2.254-0.211,3.383-0.258c1.824-0.077,3.649-0.105,5.474-0.153
			c-0.189,0.522-0.438,1.032-0.555,1.57c-0.192,0.886-0.015,1.28,0.844,1.56c2.301,0.749,4.495,0.578,6.473-0.967
			C156.712,111.404,156.954,110.812,156.567,110.04z"/>
		<path fill="#EEB012" d="M157.403,72.32c0.045,0.191,0.09,0.381,0.136,0.572c0,0.202-0.044,0.414,0.007,0.602
			c0.144,0.539,0.338,1.064,0.489,1.601c0.121,0.429-0.021,0.692-0.508,0.715c-0.802,0.038-1.604,0.102-2.406,0.135
			c-0.588,0.025-0.887,0.317-0.961,0.895c-0.065,0.508-0.167,1.011-0.253,1.516c-0.692-0.153-1.405-0.243-2.07-0.474
			c-1.108-0.385-1.142-0.547-0.791-1.652c0.117-0.367,0.28-0.468,0.673-0.422c0.947,0.11,1.683-0.319,2.006-1.202
			c0.155-0.424,0.133-0.914,0.192-1.373c0.041-0.19,0.141-0.389,0.114-0.568c-0.151-0.995,0.283-1.571,1.171-1.995
			c0.748-0.357,1.411-0.89,2.161-1.378c-0.845-1.116-1.584-2.118-2.353-3.097c-0.345-0.439-0.381-0.835-0.012-1.262
			c0.554-0.641,1.093-1.297,1.66-1.926c0.466-0.517,0.476-0.795-0.122-1.173c-0.603-0.381-1.231-0.743-1.89-1.011
			c-0.834-0.34-0.91-0.851-0.849-1.679c0.095-1.287,0.26-2.568,0.395-3.852c0.092,0.497,0.185,0.994,0.277,1.492
			c0.036,0.444,0.089,0.888,0.106,1.333c0.057,1.585,0.098,1.642,1.627,2.02c0.043,0.011,0.089,0.006,0.133,0.008
			c0.551,0.182,1.12,0.323,1.649,0.554c1.361,0.594,1.472,0.442,0.862,2.053c-0.299,0.789-0.747,1.524-1.155,2.268
			c-0.285,0.52-0.272,0.921,0.205,1.352c0.678,0.614,1.304,1.288,1.922,1.965c0.627,0.686,0.63,0.825-0.042,1.485
			c-0.653,0.641-1.37,1.217-2.032,1.849C157.576,71.835,157.513,72.102,157.403,72.32z"/>
		<path fill="#1D1C21" d="M153.915,73.235c-0.058,0.46-0.037,0.949-0.192,1.373c-0.323,0.883-1.059,1.312-2.006,1.202
			c-0.393-0.046-0.556,0.055-0.673,0.422c-0.351,1.105-0.317,1.267,0.791,1.652c0.665,0.231,1.379,0.321,2.07,0.474
			c0.043,0.042,0.087,0.084,0.13,0.126c-0.641-0.066-1.291-0.082-1.918-0.213c-0.468-0.098-0.905-0.345-1.41-0.548
			c-0.061,0.646-0.117,1.238-0.178,1.887c1.08,0.138,1.071,0.991,1.213,1.746c-0.088,0.072-0.177,0.145-0.265,0.217
			c-0.187,0.178-0.375,0.356-0.562,0.534c-0.413,0-0.825,0-1.274,0c-0.669,1.201-1.553,1.299-2.491,0.351
			c-0.519,0.262-0.991,0.689-1.456,0.681c-0.46-0.008-0.913-0.454-1.406-0.729c-0.606,0.614-1.026,0.683-1.913,0.228
			c-0.354-0.153-0.714-0.275-0.897,0.218c-0.229,0.617-0.432,1.244-0.677,1.958c0.422-0.052,0.767-0.095,1.111-0.138
			c1.243,0.051,2.49,0.051,3.726,0.169c0.966,0.092,1.919,0.332,2.877,0.506c-0.051,0.097-0.102,0.195-0.153,0.292
			c-2.38-0.543-4.776-0.863-7.22-0.508c-0.63-0.048-1.009,0.254-1.333,0.791c-1.057,1.751-1.622,3.688-2.19,5.623
			c-0.979,3.332-2.217,6.54-4.322,9.348c-0.064,0.085-0.1,0.191-0.149,0.287c0.027,0.047,0.054,0.095,0.081,0.142
			c0.512-0.238,1.024-0.477,1.536-0.715c0.516-0.101,0.635,0.172,0.574,0.612c-0.072,0.521-0.145,1.041-0.246,1.761
			c0.816-0.73,1.487-1.331,2.301-2.059c0.248,1.036,0.459,1.917,0.671,2.798c0.065,0.006,0.129,0.013,0.194,0.019
			c0.584-0.92,1.168-1.841,1.828-2.881c0.645,1.016,1.187,1.871,1.827,2.879c0.56-1.09,1.037-2.017,1.585-3.084
			c0.885,1.053,1.633,1.942,2.381,2.832c0.08-0.015,0.16-0.031,0.24-0.046c0.241-0.589,0.51-1.169,0.718-1.769
			c0.547-1.575,0.661-1.6,1.919-0.471c0.548,0.491,1.138,0.938,1.734,1.37c0.355,0.257,0.586,0.129,0.602-0.324
			c0.134-0.486,0.268-0.972,0.402-1.459c0.213-0.771,0.413-0.871,1.193-0.597c-0.051,0.045-0.102,0.091-0.153,0.136
			c-0.767-0.022-0.929,0.17-0.6,0.834c1.199,2.419,2.417,4.828,3.646,7.232c0.29,0.567,0.652,1.097,0.98,1.644
			c0.387,0.773,0.145,1.365-0.502,1.87c-1.978,1.546-4.172,1.717-6.473,0.967c-0.859-0.28-1.035-0.673-0.844-1.56
			c0.116-0.538,0.365-1.048,0.555-1.57c0.346-0.596,0.446-1.12,0.016-1.799c-0.821-1.297-1.505-2.682-2.23-4.039
			c-0.147-0.276-0.223-0.589-0.35-0.935c-0.66,0.977-0.83,0.995-1.522,0.172c-0.552-0.656-1.079-1.332-1.648-2.038
			c-0.105,0.183-0.18,0.293-0.235,0.411c-0.285,0.606-0.525,1.237-0.856,1.817c-0.405,0.709-0.739,0.692-1.157,0.009
			c-0.158-0.259-0.31-0.521-0.521-0.877c-0.103,0.358-0.168,0.588-0.234,0.817c-0.047-0.059-0.094-0.118-0.14-0.177
			c0.083-0.58,0.312-1.192-0.379-1.632c-0.061,0.085-0.131,0.167-0.185,0.258c-0.403,0.672-0.788,1.355-1.211,2.015
			c-0.331,0.517-0.666,0.482-0.911-0.079c-0.097-0.222-0.136-0.471-0.188-0.711c-0.102-0.466-0.194-0.933-0.309-1.488
			c-0.679,0.602-1.385,1.015-1.356,1.942c-0.045,0.309-0.089,0.617-0.134,0.926c-0.056,0.456-0.113,0.913-0.169,1.369
			c-0.044-0.28-0.089-0.559-0.133-0.839c0.054-0.6,0.109-1.2,0.17-1.875c-0.218,0.088-0.406,0.165-0.764,0.31
			c0.077-0.847,0.147-1.617,0.227-2.493c-0.494,0.247-0.874,0.492-1.29,0.624c-0.259,0.081-0.572-0.011-0.861-0.026
			c0.069-0.239,0.092-0.505,0.214-0.714c0.976-1.678,1.971-3.345,2.961-5.019c-1.943-1.098-2.132-2.09-0.761-3.259
			c-0.347-0.72-0.728-1.43-1.036-2.171c-0.408-0.981-0.554-1.987-0.021-2.986c0.039,0.052,0.077,0.103,0.116,0.155
			c-0.051,0.554-0.243,1.141-0.122,1.653c0.192,0.812,0.525,1.613,0.926,2.349c0.431,0.79,0.515,1.536,0.105,2.528
			c-0.039-0.461-0.063-0.741-0.09-1.055c-0.796,0.754-0.56,1.705,0.502,2.268c0.487,0.209,0.463-0.245,0.535-0.464
			c0.653-1.979,1.237-3.982,1.942-5.941c0.246-0.684,0.006-1.007-0.523-1.179c-0.535-0.174-1.117-0.199-1.842-0.316
			c1.107-0.385,1.929-0.126,2.628,0.524c0.505-0.868,0.888-1.815,1.526-2.537c0.615-0.696,0.848-1.485,1.117-2.3
			c0.017-0.194,0.035-0.388,0.052-0.582c-0.188,0.04-0.405,0.033-0.559,0.128c-0.508,0.312-0.994,0.66-1.488,0.994
			c-0.047-0.039-0.095-0.078-0.142-0.117c0.502-0.372,1.012-0.733,1.498-1.124c0.114-0.091,0.223-0.292,0.207-0.427
			c-0.162-1.365,0.138-1.747,1.578-1.883c0-0.411,0.022-0.831-0.012-1.246c-0.012-0.15-0.126-0.378-0.245-0.418
			c-0.741-0.252-0.934-0.831-0.949-1.562c-0.258-0.041-0.495-0.078-0.732-0.115c0.278-0.047,0.556-0.094,0.834-0.141
			c1.787-0.082,3.579-0.104,5.357-0.273c0.882-0.084,1.738-0.439,2.634-0.679c-0.175-0.362-0.272-0.562-0.369-0.762
			c0.634,0.355,0.82,0.878,0.642,1.532c-0.005,0.019-0.074,0.02-0.137,0.035c-0.011-0.088-0.014-0.175-0.034-0.256
			c-0.023-0.094-0.062-0.185-0.104-0.307c-2.534,0.963-5.143,1.045-7.751,1.014c-0.114,0.634,0.099,1.031,0.609,1.201
			c0.422,0.141,0.544,0.427,0.551,0.81c0.01,0.481,0.002,0.962,0.002,1.533c0.885-0.239,1.562,0.061,2,0.847
			c0.956-0.896,1.648-0.865,2.454,0.07c0.727-0.918,1.13-1.039,2.085-0.646c0.224-0.283,0.442-0.559,0.661-0.835
			c0.177-0.134,0.479-0.243,0.511-0.406c0.257-1.304,0.463-2.619,0.684-3.93c0.177,0.01,0.353,0.02,0.53,0.03
			c0.576,0.273,1.094,0.137,1.513-0.293c0.518-0.532,0.82-1.155,0.541-1.926c-0.095-0.552-0.431-0.914-0.975-0.922
			c-0.459-0.007-0.921,0.148-1.381,0.232c0.171-0.194,0.371-0.364,0.603-0.442C152.715,71.757,153.362,72.118,153.915,73.235z
			 M150.961,108.645c0.789,0.063,1.579,0.125,2.368,0.188c0.858,0.44,1.62,0.979,2.011,1.904c-0.727,0.671-0.725,0.669-1.408,0.096
			c-0.083-0.07-0.187-0.115-0.281-0.172c-0.987-0.735-2.077-0.907-3.255-0.599c-0.128,0.031-0.262,0.049-0.383,0.096
			c-0.762,0.295-1.086,0.806-1.065,1.657c0.018,0.731,0.662,0.738,1.115,0.948c0.194,0.09,0.43,0.087,0.648,0.126
			c0.885-0.012,1.77-0.023,2.655-0.035c1.21-0.086,2.138-0.721,2.907-1.588c0.183-0.206,0.149-0.606,0.214-0.916
			c-0.096,0.04-0.193,0.079-0.289,0.119c-0.241-0.152-0.497-0.285-0.721-0.459c-0.62-0.482-1.227-0.981-1.84-1.473
			c-0.868-0.439-1.771-0.513-2.704-0.253c-0.48,0.089-0.929,0.222-1.237,0.823C150.219,108.916,150.59,108.781,150.961,108.645z
			 M149.84,80.093c-0.599,0.582-0.547,1.177,0.147,1.682c0.535,0.301,0.951,0.1,1.269-0.344c0.304-0.424,0.232-0.868-0.113-1.227
			C150.76,79.806,150.31,79.699,149.84,80.093z M147.704,82.539c0.509,0.399,0.998,0.301,1.414-0.121
			c0.369-0.374,0.402-0.836,0.096-1.272c-0.345-0.492-0.792-0.69-1.366-0.364C147.089,81.254,147.037,81.89,147.704,82.539z
			 M153.33,110.052c0.319,0.243,0.624,0.506,0.962,0.719c0.127,0.08,0.327,0.041,0.494,0.057c-0.009-0.174,0.051-0.426-0.04-0.51
			c-0.435-0.396-0.913-0.745-1.375-1.111c-0.947-0.479-1.921-0.52-2.893-0.114c-0.216,0.09-0.363,0.349-0.541,0.53
			c0.042,0.063,0.085,0.126,0.127,0.19C151.188,109.521,152.274,109.63,153.33,110.052z M145.405,82.816
			c0.576,0.296,1.012,0.024,1.266-0.443c0.256-0.47,0.209-0.98-0.296-1.334c-0.655-0.406-1.294-0.26-1.606,0.366
			C144.49,81.964,144.744,82.528,145.405,82.816z M150.928,107.967c0.587-0.024,1.174-0.048,1.761-0.072
			c1.382,0.325,2.475,1.079,3.261,2.291c0.051-0.04,0.102-0.081,0.153-0.121c-1.483-2.899-2.966-5.799-4.438-8.677
			c0.005-0.009-0.027,0.022-0.035,0.058c-0.4,1.883-0.699,1.993-2.175,0.773c-0.6-0.496-1.18-1.015-1.857-1.6
			c-0.29,0.948-1.014,1.687-0.431,2.669c0.173,0.441,0.346,0.882,0.519,1.324c0.7,1.279,1.399,2.559,2.08,3.803
			C150.266,108.222,150.597,108.095,150.928,107.967z M144.299,81.653c0.015-0.636-0.459-1.162-1.051-1.165
			c-0.581-0.003-1.059,0.484-1.055,1.078c0.003,0.565,0.453,1.026,1.019,1.044C143.809,82.629,144.286,82.209,144.299,81.653z
			 M141.822,82.243c0.156-0.64,0.298-1.22,0.458-1.875c-0.298-0.186-0.776-0.282-1.084,0.097c-0.23,0.283-0.372,0.779-0.302,1.13
			C140.981,82.033,141.403,82.285,141.822,82.243z"/>
		<path fill="#1E1C20" d="M154.468,56.786c-0.092-0.497-0.185-0.994-0.277-1.492c-0.021-0.577-0.371-0.728-0.863-0.623
			c-0.587,0.126-1.173,0.27-1.747,0.446c-0.661,0.202-1.31,0.442-1.961,0.673c-0.656,0.233-1.173,0.053-1.591-0.493
			c-0.353-0.461-0.697-0.934-1.092-1.357c-0.437-0.468-0.928-0.886-1.395-1.325c-0.413-0.354-0.616,0.072-0.808,0.27
			c-0.809,0.836-1.59,1.701-2.365,2.57c-0.415,0.466-0.878,0.556-1.497,0.48c-1.172-0.143-2.36-0.159-3.541-0.236
			c-0.597-0.039-0.794,0.265-0.757,0.814c0.074,1.118,0.127,2.237,0.213,3.354c0.051,0.662-0.179,1.097-0.806,1.381
			c-0.915,0.415-1.796,0.904-2.698,1.35c-0.491,0.243-0.58,0.578-0.27,1.017c0.411,0.584,0.831,1.161,1.248,1.741
			c0.619,0.697,1.238,1.394,1.921,2.164c0.24-0.557,0.414-0.96,0.582-1.348c-0.304-0.352-0.598-0.692-0.893-1.033
			c0.059-0.058,0.118-0.116,0.176-0.174c0.246,0.38,0.492,0.759,0.738,1.139c0.068-0.093,0.137-0.187,0.205-0.28
			c0.552-0.324,1.103-0.648,1.607-0.944c-0.048-0.476-0.094-0.923-0.139-1.371c0.082-0.006,0.165-0.013,0.247-0.019
			c0.037,0.302,0.029,0.621,0.129,0.901c0.062,0.174,0.274,0.387,0.445,0.413c0.721,0.11,1.452,0.157,2.167,0.226
			c0.15-0.364,0.333-0.809,0.516-1.255c0.103,0,0.205,0.001,0.308,0.001c-0.905,1.191-0.335,1.886,0.6,2.429
			c0.475-0.443,0.945-0.882,1.394-1.301c-0.121-0.429-0.246-0.871-0.371-1.312c0.06-0.019,0.12-0.038,0.18-0.057
			c0.166,0.413,0.333,0.826,0.461,1.146c0.908-0.104,1.697-0.195,2.473-0.284c0.179-0.41,0.367-0.841,0.556-1.272
			c0.057,0.022,0.113,0.044,0.17,0.066c-0.137,0.438-0.274,0.875-0.374,1.194c0.702,0.495,1.326,0.954,1.974,1.374
			c0.125,0.081,0.348,0.012,0.377,0.012c0.241,0.847,0.469,1.646,0.716,2.516c0.4,0,0.827,0,1.255,0
			c0.002,0.06,0.003,0.121,0.005,0.181c-0.122,0.008-0.243,0.018-0.365,0.023c-0.156,0.007-0.339-0.039-0.464,0.027
			c-0.212,0.111-0.511,0.26-0.558,0.448c-0.398,1.582-1.361,2.642-2.924,3.024c-1.659,0.405-3.093-0.098-4.231-1.401
			c-0.091-0.104-0.26-0.14-0.393-0.208c-0.711,0.038-1.422,0.082-2.133,0.112c-0.642,0.028-1.19,0.203-1.454,0.863
			c-0.218,0.884,0.012,1.366,0.854,1.559c0.491,0.112,1.018,0.12,1.524,0.089c0.43-0.026,0.853-0.176,1.336-0.284
			c-0.887,0.91-3.179,0.828-3.87-0.099c-0.129-0.172-0.154-0.419-0.273-0.602c-0.124-0.191-0.304-0.346-0.459-0.517
			c-0.147-0.084-0.295-0.168-0.303-0.173c-0.689,0.769-1.323,1.475-1.954,2.184c-0.503,0.565-0.479,1.022,0.143,1.452
			c0.415,0.287,0.891,0.486,1.34,0.724c0.352,0.133,0.703,0.265,1.055,0.398c-0.057,0.047-0.113,0.093-0.17,0.14
			c-0.759-0.311-1.568-0.54-2.266-0.955c-0.883-0.525-0.902-1.313-0.201-2.059c0.609-0.648,1.196-1.316,1.834-2.02
			c-0.955-0.817-1.498-1.743-1.564-2.839c-0.493-0.134-0.931-0.252-1.368-0.371c0.01-0.041,0.019-0.083,0.029-0.124
			c0.428,0.06,0.855,0.119,1.283,0.179c0.032-0.054,0.063-0.107,0.095-0.161c-0.127-0.151-0.254-0.302-0.381-0.453
			c-1.032-1.23-2.073-2.453-3.092-3.693c-0.419-0.51-0.299-0.947,0.283-1.253c0.85-0.448,1.678-0.949,2.559-1.324
			c0.747-0.318,0.992-0.821,0.932-1.575c-0.077-0.96-0.149-1.922-0.192-2.884c-0.05-1.106,0.04-1.252,1.114-1.25
			c1.203,0.002,2.409,0.091,3.607,0.213c0.473,0.048,0.81-0.014,1.127-0.377c0.752-0.86,1.511-1.716,2.303-2.539
			c0.697-0.724,0.861-0.75,1.588-0.045c0.72,0.699,1.384,1.466,1.998,2.262c0.467,0.605,0.959,0.79,1.68,0.532
			c1.008-0.362,2.02-0.73,3.057-0.989c1.32-0.329,1.669-0.024,1.785,1.366c0.013,0.154,0.003,0.311,0.004,0.466
			C154.556,56.485,154.512,56.635,154.468,56.786z M150.034,68.363c0-2.039-1.645-3.607-3.8-3.621
			c-1.928-0.012-3.602,1.571-3.615,3.421c-0.015,2.009,1.692,3.658,3.782,3.655C148.425,71.814,150.034,70.284,150.034,68.363z
			 M142.735,70.021c-0.438-1.073-0.544-2.091-0.148-3.138c0.056-0.148-0.003-0.4-0.101-0.537c-0.755-1.054-2.516-1.522-3.908-1.063
			c-1.336,0.44-2.075,1.487-2.088,2.957c-0.012,1.404,0.855,2.582,2.31,3.089C139.6,69.524,141.358,70.482,142.735,70.021z"/>
		<path fill="#222023" d="M152.54,100.329c0.051-0.045,0.102-0.091,0.153-0.136c0.599,0.101,1.199,0.201,1.798,0.302
			c0.031-0.058,0.062-0.117,0.093-0.175c-0.12-0.203-0.233-0.41-0.36-0.609c-0.443-0.7-0.923-1.378-1.323-2.102
			c-0.197-0.356-0.407-0.496-0.81-0.545c-1.687-0.204-2.595-1.286-2.659-2.981c-0.038-1.001,0.363-1.786,1.013-2.473
			c0.308-0.326,0.374-0.618,0.272-1.074c-0.248-1.112-0.413-2.244-0.579-3.372c-0.121-0.823-0.324-1.066-1.207-1.276
			c-0.189-0.082-0.378-0.163-0.567-0.245c0.051-0.097,0.102-0.195,0.153-0.292c0.065-0.517,0.365-0.122,0.433-0.063
			c1.073,0.938,2.125,1.9,3.188,2.849c0.168,0.15,0.366,0.267,0.656,0.474c-0.132,0.303-0.237,0.727-0.475,1.053
			c-0.698,0.954-1.491,1.841-2.171,2.807c-0.93,1.322-0.442,3.294,0.927,3.991c0.583,0.12,1.168,0.35,1.748,0.337
			c1.148-0.026,1.744-1.098,1.144-2.218c-0.214,0.539-0.385,0.973-0.571,1.442c-0.034-0.186-0.061-0.334-0.089-0.481
			c-0.208,0.044-0.399,0.084-0.59,0.125c0.107,0.081,0.215,0.161,0.322,0.242c0.195-0.384,0.441-0.752,0.575-1.157
			c0.279-0.845,0.908-1.352,1.576-1.862c0.424-0.323,0.808-0.716,1.149-1.128c1.448-1.748,1.598-3.58,0.46-5.544
			c-0.967-1.669-2.347-2.936-3.959-3.958c-0.428-0.271-0.906-0.462-1.361-0.689c0.088-0.072,0.177-0.145,0.265-0.217
			c2.153,1.101,3.993,2.566,5.25,4.666c1.258,2.101,1.116,4.005-0.457,5.886c-0.483,0.577-1.108,1.036-1.666,1.55
			c-0.274,0.252-0.543,0.509-0.806,0.755c0.873,1.244,0.559,2.052-1.141,2.96c0.672,1.087,1.342,2.171,2.055,3.323
			C154.038,100.895,153.293,100.553,152.54,100.329z M151.01,90.733c0.064,0.02,0.129,0.04,0.193,0.06
			c0.415-0.607,0.83-1.214,1.257-1.839c-0.72-0.686-1.384-1.317-2.128-2.026C150.569,88.258,150.789,89.495,151.01,90.733z"/>
		<path fill="#232123" d="M140.425,103.108c0.047,0.059,0.094,0.118,0.14,0.177c-0.108,2.1-0.223,4.2-0.315,6.301
			c-0.008,0.187,0.127,0.381,0.195,0.572c0.23,0.796-0.043,1.444-0.801,1.704c-0.602,0.206-1.238,0.313-1.858,0.464
			c-0.145-0.048-0.29-0.097-0.435-0.145c0.632-0.148,1.272-0.267,1.893-0.451c0.58-0.171,1.054-0.481,1.018-1.269
			c-0.507,0.143-0.97,0.284-1.437,0.405c-1.524,0.394-1.524,0.391-2.259-0.877c-0.229-0.358-0.458-0.715-0.687-1.073
			c-0.438-0.798-0.886-1.109-1.353-0.464c0.169,0.256,0.348,0.527,0.526,0.798c0.184,0.437,0.368,0.874,0.551,1.311
			c0.119,0.778-0.583,0.593-0.945,0.808c-0.731,0.214-1.021-0.281-1.293-0.805c-0.151-0.234-0.301-0.468-0.452-0.702
			c-0.09-0.078-0.18-0.156-0.27-0.235c0.746-0.844,1.615-1.512,2.685-1.896c0.085,0.091,0.17,0.182,0.255,0.274
			c0.274,0.339,0.549,0.679,0.823,1.018c0.183,0.336,0.366,0.672,0.549,1.008c0.291,0.855,0.371,0.916,1.246,0.735
			c0.435-0.09,0.851-0.263,1.282-0.376c0.412-0.108,0.519-0.313,0.491-0.765C139.839,107.437,139.863,105.252,140.425,103.108z
			 M133.541,110.178c0.212,0.312,0.362,0.77,0.654,0.893c0.282,0.12,0.752-0.035,1.05-0.217c0.095-0.058-0.063-0.597-0.165-0.895
			c-0.084-0.245-0.256-0.46-0.388-0.689c-0.155-0.225-0.311-0.451-0.507-0.735c-0.431,0.365-0.795,0.673-1.197,1.013
			C133.198,109.787,133.369,109.983,133.541,110.178z"/>
		<path fill="#2A2727" d="M157.403,72.32c0.11-0.218,0.173-0.486,0.34-0.645c0.662-0.633,1.379-1.208,2.032-1.849
			c0.672-0.66,0.669-0.799,0.042-1.485c-0.618-0.676-1.244-1.351-1.922-1.965c-0.477-0.431-0.489-0.832-0.205-1.352
			c0.408-0.744,0.856-1.479,1.155-2.268c0.61-1.611,0.499-1.459-0.862-2.053c-0.529-0.231-1.098-0.372-1.649-0.554
			c0.097-0.043,0.195-0.087,0.292-0.13c0.756,0.258,1.511,0.517,2.267,0.773c0.567,0.192,0.708,0.613,0.504,1.113
			c-0.396,0.968-0.818,1.927-1.278,2.866c-0.475,0.969-0.49,0.947,0.285,1.727c0.662,0.666,1.299,1.357,1.944,2.039
			c0.304,0.321,0.355,0.655,0.021,0.992c-0.533,0.539-1.056,1.09-1.606,1.611C158.327,71.553,157.857,71.928,157.403,72.32z"/>
		<path fill="#292728" d="M154.036,78.484c-0.043-0.042-0.087-0.084-0.13-0.126c0.086-0.505,0.188-1.008,0.253-1.516
			c0.074-0.578,0.373-0.871,0.961-0.895c0.803-0.034,1.604-0.098,2.406-0.135c0.487-0.023,0.629-0.286,0.508-0.715
			c-0.151-0.537-0.345-1.063-0.489-1.601c-0.05-0.188-0.007-0.401-0.007-0.602c0.253,0.777,0.518,1.55,0.755,2.332
			c0.15,0.493-0.081,0.8-0.572,0.844c-0.842,0.075-1.688,0.143-2.532,0.138c-0.49-0.003-0.664,0.185-0.746,0.632
			C154.342,77.393,154.175,77.936,154.036,78.484z"/>
		<path fill="#302E2D" d="M138.972,83.366c0.047,0.039,0.095,0.078,0.142,0.117c-0.581,0.368-1.163,0.735-1.744,1.104
			c-1.175,0.746-2.265,1.581-2.964,2.827c-0.039-0.052-0.077-0.103-0.116-0.155c0.616-0.717,1.147-1.538,1.869-2.125
			C137.011,84.439,138.027,83.946,138.972,83.366z"/>
		<path fill="#35302A" d="M156.626,60.018c-0.097,0.043-0.195,0.087-0.292,0.13c-0.044-0.002-0.091,0.002-0.133-0.008
			c-1.529-0.378-1.569-0.435-1.627-2.02c-0.016-0.445-0.069-0.889-0.106-1.333c0.044-0.151,0.088-0.301,0.132-0.452
			c0.088,0.657,0.218,1.312,0.256,1.972c0.07,1.206,0.048,1.206,1.208,1.525C156.254,59.883,156.439,59.955,156.626,60.018z"/>
		<path fill="#2F2B2B" d="M137.352,112.181c0.145,0.048,0.29,0.097,0.435,0.145c-0.78,0.126-1.559,0.252-2.339,0.378
			c-0.844-0.046-1.689-0.092-2.533-0.137c0.104-0.049,0.207-0.098,0.311-0.147C134.601,112.34,135.976,112.261,137.352,112.181z"/>
		<path fill="#3A3433" d="M133.225,112.419c-0.104,0.049-0.207,0.098-0.311,0.147c-0.241-0.036-0.489-0.046-0.721-0.112
			c-0.504-0.143-0.806-0.497-0.583-1c0.282-0.637,0.684-1.221,1.035-1.827c0.09,0.078,0.18,0.156,0.27,0.235
			c-0.353,0.521-0.76,1.016-1.041,1.574c-0.202,0.4-0.004,0.73,0.501,0.765c0.262,0.041,0.524,0.082,0.786,0.123
			C133.179,112.358,133.2,112.39,133.225,112.419z"/>
		<path fill="#3D3937" d="M135.586,108.005c-0.085-0.091-0.17-0.182-0.255-0.274c0.04-0.954,0.08-1.908,0.12-2.862
			c0.044,0.28,0.089,0.559,0.133,0.839C135.585,106.473,135.585,107.239,135.586,108.005z"/>
		<path fill="#433E36" d="M138.389,76.225c0.057-0.047,0.113-0.093,0.17-0.14c0.864,0.122,1.728,0.244,2.592,0.366
			c-0.278,0.047-0.556,0.094-0.834,0.141C139.674,76.47,139.031,76.347,138.389,76.225z"/>
		<path fill="#FED421" d="M141.151,76.451c-0.864-0.122-1.728-0.244-2.592-0.366c-0.352-0.133-0.703-0.265-1.055-0.398
			c-1.108-1.414-1.085-1.395,0.088-2.794c0.323-0.385,0.462-0.924,0.686-1.393c0.155,0.171,0.335,0.326,0.459,0.517
			c0.119,0.183,0.144,0.43,0.273,0.602c0.691,0.927,2.983,1.009,3.87,0.099c-0.483,0.108-0.906,0.257-1.336,0.284
			c-0.506,0.031-1.033,0.023-1.524-0.089c-0.842-0.192-1.072-0.674-0.854-1.559c0.751-0.176,1.507-0.338,2.253-0.534
			c0.452-0.119,0.89-0.292,1.334-0.441c0.133,0.068,0.302,0.104,0.393,0.208c1.138,1.303,2.573,1.805,4.231,1.401
			c1.563-0.381,2.526-1.442,2.924-3.024c0.047-0.187,0.347-0.337,0.558-0.448c0.125-0.066,0.307-0.02,0.464-0.027
			c0.122-0.005,0.243-0.015,0.365-0.023c-0.002-0.06-0.003-0.121-0.005-0.181c-0.427,0-0.854,0-1.255,0
			c-0.248-0.87-0.475-1.669-0.716-2.516c-0.029,0-0.252,0.07-0.377-0.012c-0.648-0.42-1.272-0.879-1.974-1.374
			c0.1-0.319,0.237-0.757,0.374-1.194c-0.057-0.022-0.113-0.044-0.17-0.066c-0.188,0.431-0.377,0.862-0.556,1.272
			c-0.775,0.089-1.564,0.18-2.473,0.284c-0.128-0.319-0.295-0.732-0.461-1.146c-0.06,0.019-0.12,0.038-0.18,0.057
			c0.125,0.442,0.25,0.884,0.371,1.312c-0.449,0.419-0.919,0.858-1.394,1.301c-0.935-0.543-1.506-1.238-0.6-2.429
			c-0.103,0-0.205-0.001-0.308-0.001c-0.183,0.446-0.367,0.891-0.516,1.255c-0.714-0.069-1.445-0.116-2.167-0.226
			c-0.171-0.026-0.383-0.239-0.445-0.413c-0.1-0.28-0.092-0.599-0.129-0.901c-0.082,0.006-0.165,0.013-0.247,0.019
			c0.045,0.447,0.091,0.895,0.139,1.371c-0.504,0.296-1.056,0.62-1.607,0.944c-0.068,0.093-0.137,0.187-0.205,0.28
			c-0.246-0.38-0.492-0.759-0.738-1.139c-0.059,0.058-0.118,0.116-0.176,0.174c0.294,0.34,0.589,0.681,0.893,1.033
			c-0.167,0.388-0.342,0.792-0.582,1.348c-0.683-0.769-1.302-1.467-1.921-2.164c-0.04-0.125-0.061-0.261-0.125-0.372
			c-0.519-0.912-0.462-1.189,0.455-1.689c0.924-0.504,1.857-0.994,2.808-1.443c0.955-0.45,1.11-0.717,0.982-1.764
			c-0.103-0.843-0.124-1.696-0.221-2.54c-0.076-0.664,0.219-0.841,0.815-0.753c0.883,0.13,1.771,0.234,2.654,0.369
			c0.662,0.102,1.194-0.043,1.54-0.666c0.261-0.47,0.538-0.931,0.82-1.389c0.513-0.834,1.035-1.663,1.553-2.493
			c0.467,0.44,0.958,0.857,1.395,1.325c0.395,0.423,0.74,0.895,1.092,1.357c0.418,0.547,0.935,0.726,1.591,0.493
			c0.651-0.231,1.301-0.471,1.961-0.673c0.574-0.175,1.16-0.32,1.747-0.446c0.492-0.106,0.842,0.046,0.863,0.623
			c-0.135,1.284-0.3,2.565-0.395,3.852c-0.061,0.827,0.015,1.339,0.849,1.679c0.659,0.268,1.286,0.63,1.89,1.011
			c0.599,0.378,0.588,0.656,0.122,1.173c-0.567,0.63-1.105,1.285-1.66,1.926c-0.369,0.427-0.333,0.822,0.012,1.262
			c0.769,0.979,1.508,1.981,2.353,3.097c-0.75,0.488-1.414,1.021-2.161,1.378c-0.888,0.423-1.322,1-1.171,1.995
			c0.027,0.179-0.073,0.378-0.114,0.568c-0.553-1.117-1.2-1.478-2.139-1.159c-0.231,0.078-0.432,0.249-0.603,0.442
			c0.461-0.083,0.922-0.238,1.381-0.232c0.544,0.008,0.88,0.369,0.975,0.922c-0.193,0.013-0.385,0.025-0.578,0.038
			c-0.155-0.007-0.319-0.048-0.465-0.015c-0.715,0.16-1.158,0.896-0.883,1.442c-0.043,0.252-0.086,0.503-0.128,0.755
			c-0.177-0.01-0.353-0.02-0.53-0.03c-0.266-0.444-0.337-0.022-0.391,0.114c-0.531,1.356-0.911,2.744-0.804,4.222
			c-0.218,0.276-0.437,0.552-0.661,0.835c-0.955-0.394-1.358-0.273-2.085,0.646c-0.805-0.934-1.498-0.965-2.454-0.07
			c-0.438-0.786-1.115-1.086-2-0.847c0-0.571,0.007-1.052-0.002-1.533c-0.008-0.383-0.13-0.669-0.551-0.81
			c-0.51-0.17-0.723-0.566-0.609-1.201c2.608,0.031,5.217-0.051,7.751-1.014c0.042,0.122,0.081,0.212,0.104,0.307
			c0.02,0.082,0.023,0.168,0.034,0.256c0.063-0.015,0.132-0.016,0.137-0.035c0.178-0.654-0.008-1.178-0.642-1.532
			c0.097,0.2,0.194,0.4,0.369,0.762c-0.896,0.24-1.752,0.596-2.634,0.679C144.73,76.347,142.937,76.368,141.151,76.451z"/>
		<path fill="#EF5E2F" d="M148.364,85.644c0.189,0.082,0.378,0.163,0.567,0.245c0.042,1.251,0.126,2.502,0.113,3.753
			c-0.008,0.813,0.021,1.699-0.28,2.421c-0.585,1.405-0.52,2.739,0.159,4.001c0.481,0.895,0.863,1.758,1.054,2.775
			c0.219,1.166,0.734,2.276,1.121,3.41c-0.016,0.453-0.248,0.581-0.602,0.324c-0.596-0.432-1.186-0.879-1.734-1.37
			c-1.258-1.128-1.372-1.104-1.919,0.471c-0.209,0.601-0.477,1.18-0.718,1.769c-0.08,0.015-0.16,0.031-0.24,0.046
			c-0.748-0.89-1.496-1.779-2.381-2.832c-0.548,1.067-1.025,1.994-1.585,3.084c-0.64-1.008-1.182-1.863-1.827-2.879
			c-0.66,1.041-1.244,1.961-1.828,2.881c-0.065-0.006-0.129-0.013-0.194-0.019c-0.211-0.881-0.422-1.762-0.671-2.798
			c-0.813,0.728-1.485,1.329-2.301,2.059c0.1-0.72,0.174-1.24,0.246-1.761c0.061-0.44-0.058-0.714-0.574-0.612
			c2.033-2.742,3.125-5.894,4.092-9.125c0.644-2.152,1.515-4.236,2.285-6.351C143.588,84.781,145.984,85.1,148.364,85.644z"/>
		<path fill="#FED421" d="M151.075,96.464c-1.37-0.698-1.857-2.669-0.927-3.991c0.68-0.967,1.472-1.853,2.171-2.807
			c0.239-0.326,0.343-0.75,0.475-1.053c-0.289-0.208-0.488-0.324-0.656-0.474c-1.063-0.95-2.115-1.911-3.188-2.849
			c-0.068-0.059-0.368-0.454-0.433,0.063c-0.959-0.174-1.911-0.413-2.877-0.506c-1.236-0.118-2.484-0.118-3.726-0.169
			c0.154-0.679,0.309-1.359,0.463-2.038c0.887,0.455,1.307,0.386,1.913-0.228c0.493,0.275,0.946,0.721,1.406,0.729
			c0.465,0.008,0.937-0.42,1.456-0.681c0.938,0.949,1.822,0.85,2.491-0.351c0.449,0,0.862,0,1.274,0
			c0.085,0.027,0.194,0.029,0.251,0.084c1.582,1.518,3.153,3.043,4.302,4.944c0.605,1.001,0.557,1.954-0.07,2.896
			c-0.333,0.5-0.702,0.978-1.079,1.447c-0.556,0.691-1.222,1.305-1.251,2.297c-0.005,0.167-0.231,0.375-0.406,0.48
			c-0.339,0.203-0.727,0.324-1.071,0.52C150.902,95.168,151.099,95.854,151.075,96.464z"/>
		<path fill="#EEB012" d="M151.075,96.464c0.024-0.609-0.173-1.295,0.518-1.688c0.344-0.196,0.732-0.316,1.071-0.52
			c0.174-0.105,0.401-0.313,0.406-0.48c0.029-0.991,0.695-1.606,1.251-2.297c0.377-0.469,0.746-0.947,1.079-1.447
			c0.627-0.942,0.675-1.895,0.07-2.896c-1.149-1.901-2.719-3.426-4.302-4.944c-0.058-0.055-0.166-0.057-0.251-0.084
			c0.187-0.178,0.375-0.356,0.562-0.534c0.455,0.228,0.933,0.418,1.361,0.689c1.612,1.022,2.993,2.289,3.959,3.958
			c1.137,1.963,0.988,3.795-0.46,5.544c-0.341,0.412-0.725,0.805-1.149,1.128c-0.668,0.51-1.297,1.016-1.576,1.862
			c-0.134,0.405-0.38,0.772-0.575,1.157c-0.107-0.081-0.215-0.161-0.322-0.242c0.191-0.04,0.382-0.081,0.59-0.125
			c0.027,0.147,0.054,0.295,0.089,0.481c0.186-0.47,0.357-0.903,0.571-1.442c0.6,1.12,0.004,2.192-1.144,2.218
			C152.243,96.813,151.658,96.583,151.075,96.464z"/>
		<path fill="#D95936" d="M151.097,102.249c-0.386-1.134-0.902-2.244-1.121-3.41c-0.191-1.017-0.573-1.88-1.054-2.775
			c-0.679-1.263-0.744-2.596-0.159-4.001c0.301-0.722,0.272-1.608,0.28-2.421c0.013-1.25-0.07-2.502-0.113-3.753
			c0.882,0.21,1.085,0.453,1.207,1.276c0.166,1.129,0.33,2.26,0.579,3.372c0.102,0.456,0.037,0.747-0.272,1.074
			c-0.649,0.687-1.05,1.472-1.013,2.473c0.064,1.695,0.972,2.777,2.659,2.981c0.403,0.049,0.613,0.188,0.81,0.545
			c0.4,0.723,0.88,1.402,1.323,2.102c0.126,0.199,0.24,0.406,0.36,0.609c-0.031,0.058-0.062,0.117-0.093,0.175
			c-0.599-0.101-1.199-0.201-1.798-0.302c-0.781-0.274-0.981-0.174-1.193,0.597C151.365,101.276,151.231,101.763,151.097,102.249z"
			/>
		<path fill="#FED421" d="M141.109,82.943c-0.269,0.815-0.502,1.605-1.117,2.3c-0.638,0.722-1.02,1.669-1.526,2.537
			c-0.7-0.65-1.521-0.909-2.628-0.524c0.725,0.117,1.307,0.143,1.842,0.316c0.529,0.172,0.769,0.495,0.523,1.179
			c-0.704,1.96-1.288,3.963-1.942,5.941c-0.072,0.218-0.047,0.673-0.535,0.464c-0.258-0.821-0.232-1.594,0.384-2.264
			c0.279-0.304,0.297-0.606,0.091-0.974c-0.35-0.626-0.685-1.264-0.975-1.92c-0.646-1.461-0.35-2.767,0.938-3.695
			C137.782,85.139,139.459,84.06,141.109,82.943z"/>
		<path fill="#F7AC85" d="M141.145,85.135c-0.77,2.115-1.641,4.199-2.285,6.351c-0.966,3.231-2.059,6.383-4.092,9.125
			c-0.512,0.238-1.025,0.477-1.537,0.715c-0.027-0.047-0.054-0.095-0.081-0.142c0.049-0.096,0.086-0.202,0.149-0.287
			c2.106-2.808,3.343-6.016,4.322-9.348c0.569-1.935,1.133-3.872,2.19-5.623C140.136,85.389,140.515,85.087,141.145,85.135z"/>
		<path fill="#EEB012" d="M147.169,103.288c-0.583-0.982,0.141-1.721,0.431-2.669c0.677,0.585,1.257,1.104,1.857,1.6
			c1.476,1.22,1.775,1.11,2.175-0.773c0.008-0.036,0.04-0.067,0.035-0.058c1.472,2.879,2.955,5.778,4.438,8.677
			c-0.051,0.04-0.102,0.081-0.153,0.121c-0.786-1.212-1.88-1.966-3.261-2.291c-1.159-1.789-1.968-3.811-3.645-5.255
			c-0.807-0.694-0.949-0.814-1.741,0.272C147.228,103.016,147.212,103.162,147.169,103.288z"/>
		<path fill="#EEB012" d="M140.425,103.108c-0.562,2.144-0.587,4.329-0.449,6.518c0.028,0.451-0.079,0.657-0.491,0.765
			c-0.431,0.113-0.847,0.286-1.282,0.376c-0.875,0.181-0.955,0.119-1.246-0.736c0.286-0.078,0.568-0.196,0.859-0.223
			c0.529-0.05,0.647-0.341,0.617-0.815c-0.063-0.998-0.108-1.998-0.131-2.998c-0.009-0.363,0.066-0.727,0.102-1.089
			c-1.481-0.074-0.821-1.575-1.626-2.197c-0.288,0.228-0.589,0.466-0.89,0.705c-0.029-0.927,0.677-1.34,1.356-1.942
			c0.115,0.555,0.207,1.023,0.309,1.488c0.052,0.24,0.091,0.489,0.188,0.711c0.244,0.562,0.58,0.596,0.911,0.079
			c0.422-0.66,0.807-1.343,1.211-2.015c0.055-0.091,0.124-0.174,0.185-0.258C140.738,101.917,140.508,102.528,140.425,103.108z"/>
		<path fill="#FED421" d="M147.169,103.288c0.044-0.126,0.06-0.272,0.135-0.375c0.792-1.087,0.934-0.967,1.741-0.272
			c1.677,1.443,2.486,3.466,3.645,5.255c-0.587,0.024-1.174,0.048-1.761,0.072c-0.584-0.581-1.177-1.154-1.75-1.746
			c-0.508-0.525-0.994-1.072-1.49-1.61C147.514,104.17,147.341,103.729,147.169,103.288z"/>
		<path fill="#FED421" d="M135.888,103.413c0.301-0.239,0.602-0.477,0.89-0.705c0.806,0.622,0.146,2.123,1.626,2.197
			c-0.036,0.362-0.11,0.726-0.102,1.089c0.023,1,0.069,2,0.131,2.998c0.03,0.474-0.089,0.765-0.617,0.815
			c-0.291,0.028-0.573,0.146-0.859,0.223c-0.183-0.336-0.366-0.672-0.549-1.008c-0.093-0.616-0.192-1.231-0.277-1.847
			c-0.131-0.945-0.253-1.891-0.378-2.836C135.798,104.03,135.843,103.722,135.888,103.413z"/>
		<path fill="#FCEBAC" d="M141.109,82.943c-1.651,1.116-3.327,2.196-4.943,3.36c-1.288,0.928-1.584,2.234-0.938,3.695
			c0.29,0.656,0.625,1.294,0.975,1.92c0.206,0.368,0.189,0.67-0.091,0.974c-0.616,0.671-0.643,1.444-0.384,2.264
			c-1.062-0.563-1.298-1.514-0.502-2.268c0.027,0.315,0.051,0.595,0.09,1.055c0.41-0.993,0.326-1.739-0.105-2.528
			c-0.401-0.736-0.734-1.536-0.926-2.349c-0.121-0.513,0.07-1.1,0.122-1.653c0.699-1.246,1.789-2.081,2.964-2.827
			c0.581-0.369,1.163-0.736,1.744-1.104c0.494-0.334,0.98-0.682,1.488-0.994c0.154-0.095,0.371-0.088,0.559-0.128
			C141.144,82.555,141.127,82.749,141.109,82.943z"/>
		<path fill="#EF5E2F" d="M150.396,110.062c1.178-0.308,2.268-0.136,3.255,0.599c-0.095,0.731-0.191,1.463-0.286,2.194
			c-0.885,0.012-1.77,0.023-2.656,0.035c-0.009-0.134,0.026-0.29-0.031-0.398C150.269,111.715,150.126,110.914,150.396,110.062z"/>
		<path fill="#D85936" d="M153.365,112.854c0.095-0.731,0.191-1.462,0.286-2.194c0.094,0.057,0.198,0.102,0.281,0.172
			c0.683,0.574,0.682,0.575,1.408-0.096c-0.391-0.924-1.153-1.464-2.011-1.904c0.102-0.099,0.205-0.197,0.307-0.296
			c0.612,0.492,1.219,0.991,1.84,1.473c0.224,0.174,0.48,0.307,0.721,0.459c0.096-0.04,0.193-0.079,0.289-0.119
			c-0.066,0.311-0.031,0.71-0.214,0.916C155.503,112.134,154.575,112.768,153.365,112.854z"/>
		<path fill="#FBFBFB" d="M144.299,81.653c-0.013,0.556-0.49,0.976-1.086,0.957c-0.566-0.018-1.016-0.479-1.019-1.044
			c-0.004-0.593,0.474-1.081,1.055-1.078C143.839,80.491,144.313,81.016,144.299,81.653z"/>
		<path fill="#F5AB84" d="M150.396,110.062c-0.271,0.852-0.127,1.653,0.282,2.43c0.057,0.108,0.023,0.264,0.031,0.398
			c-0.217-0.039-0.453-0.036-0.647-0.126c-0.453-0.21-1.097-0.217-1.115-0.948c-0.021-0.851,0.303-1.362,1.065-1.657
			C150.135,110.11,150.268,110.093,150.396,110.062z"/>
		<path fill="#ECB015" d="M152.952,73.246c0.193-0.013,0.385-0.025,0.578-0.038c0.278,0.771-0.023,1.394-0.541,1.926
			c-0.419,0.43-0.937,0.567-1.513,0.293c0.043-0.252,0.086-0.503,0.128-0.755c0.147-0.318,0.294-0.635,0.442-0.953
			c0.06,0.022,0.119,0.044,0.179,0.066c0.077,0.282,0.154,0.563,0.231,0.845c0.043-0.007,0.085-0.013,0.128-0.02
			c-0.019-0.342-0.038-0.684-0.056-1.012C152.66,73.488,152.806,73.367,152.952,73.246z"/>
		<path fill="#FCFCFC" d="M145.405,82.816c-0.661-0.288-0.915-0.853-0.637-1.411c0.312-0.626,0.951-0.771,1.606-0.366
			C146.535,82.202,146.429,82.395,145.405,82.816z"/>
		<path fill="#F9D220" d="M153.33,110.052c-1.056-0.423-2.142-0.531-3.266-0.24c-0.042-0.063-0.085-0.126-0.127-0.19
			c0.178-0.181,0.325-0.439,0.541-0.53c0.972-0.406,1.946-0.365,2.893,0.114C153.357,109.489,153.344,109.771,153.33,110.052z"/>
		<path fill="#FBEAAA" d="M147.687,104.611c0.496,0.537,0.982,1.084,1.49,1.61c0.573,0.592,1.166,1.165,1.75,1.746
			c-0.331,0.128-0.662,0.255-1.161,0.448C149.087,107.17,148.387,105.891,147.687,104.611z"/>
		<path fill="#FCFDFD" d="M147.704,82.539c-0.667-0.649-0.615-1.284,0.144-1.758c0.504-0.037,0.945,0.061,1.067,0.635
			c0.11,0.52-0.189,0.841-0.633,1.027C148.106,82.517,147.897,82.509,147.704,82.539z"/>
		<path fill="#ECB115" d="M149.75,79.733c-0.106-1.479,0.273-2.867,0.804-4.222c0.053-0.136,0.125-0.558,0.391-0.114
			c-0.221,1.311-0.427,2.626-0.684,3.931C150.23,79.49,149.927,79.599,149.75,79.733z"/>
		<path fill="#F8E7A9" d="M142.377,82.639c-0.154,0.679-0.309,1.359-0.463,2.038c-0.345,0.043-0.689,0.086-1.111,0.138
			c0.245-0.714,0.447-1.341,0.677-1.958C141.662,82.364,142.022,82.486,142.377,82.639z"/>
		<path fill="#F3F3F4" d="M141.822,82.243c-0.419,0.042-0.841-0.209-0.928-0.648c-0.07-0.351,0.072-0.848,0.302-1.13
			c0.309-0.379,0.787-0.283,1.084-0.097C142.121,81.022,141.979,81.603,141.822,82.243z"/>
		<path fill="#D5DFE5" d="M149.84,80.093c0.471-0.394,0.92-0.287,1.303,0.111c0.345,0.358,0.417,0.802,0.113,1.227
			c-0.318,0.445-0.734,0.645-1.269,0.344C150.577,80.919,150.555,80.665,149.84,80.093z"/>
		<path fill="#F9E8A8" d="M135.753,104.339c0.126,0.945,0.247,1.892,0.378,2.836c0.085,0.617,0.184,1.232,0.277,1.847
			c-0.274-0.339-0.549-0.679-0.823-1.018c0-0.766-0.001-1.531-0.001-2.297C135.641,105.252,135.697,104.795,135.753,104.339z"/>
		<path fill="#EAB018" d="M153.33,110.052c0.014-0.282,0.027-0.564,0.041-0.845c0.462,0.366,0.939,0.716,1.375,1.111
			c0.092,0.083,0.031,0.335,0.04,0.51c-0.167-0.016-0.367,0.023-0.494-0.057C153.955,110.559,153.649,110.295,153.33,110.052z"/>
		<path fill="#D3DCE2" d="M147.704,82.539c0.194-0.03,0.402-0.022,0.578-0.096c0.444-0.186,0.743-0.507,0.633-1.027
			c-0.121-0.574-0.563-0.672-1.067-0.635c0.574-0.326,1.022-0.127,1.366,0.364c0.306,0.437,0.273,0.898-0.096,1.272
			C148.702,82.84,148.213,82.938,147.704,82.539z"/>
		<path fill="#E65B30" d="M153.636,108.537c-0.102,0.099-0.204,0.197-0.307,0.296c-0.789-0.063-1.579-0.125-2.368-0.188
			c-0.01-0.12-0.019-0.241-0.029-0.361C151.866,108.024,152.768,108.098,153.636,108.537z"/>
		<path fill="#FAFAFA" d="M149.84,80.093c0.715,0.572,0.737,0.826,0.147,1.682C149.293,81.271,149.241,80.675,149.84,80.093z"/>
		<path fill="#D6E0E5" d="M145.405,82.816c1.024-0.421,1.13-0.615,0.969-1.777c0.505,0.354,0.553,0.863,0.296,1.334
			C146.417,82.84,145.981,83.113,145.405,82.816z"/>
		<path fill="#DB9C7B" d="M150.932,108.284c0.01,0.12,0.019,0.241,0.029,0.361c-0.371,0.135-0.742,0.271-1.266,0.462
			C150.003,108.506,150.452,108.373,150.932,108.284z"/>
		<path fill="#FEFEFE" d="M150.034,68.363c0,1.921-1.609,3.451-3.633,3.454c-2.09,0.004-3.797-1.646-3.782-3.655
			c0.014-1.85,1.687-3.433,3.615-3.421C148.389,64.756,150.034,66.323,150.034,68.363z M147.635,68.817
			c-0.369-0.303-0.607-0.643-0.793-0.616c-0.239,0.034-0.435,0.362-0.65,0.564c0.193,0.199,0.369,0.531,0.584,0.559
			C146.986,69.351,147.237,69.068,147.635,68.817z"/>
		<path fill="#FEFEFE" d="M142.735,70.021c-1.376,0.461-3.135-0.498-3.935,1.308c-1.455-0.508-2.323-1.685-2.31-3.089
			c0.013-1.47,0.752-2.516,2.088-2.957c1.392-0.459,3.153,0.009,3.908,1.063c0.098,0.137,0.157,0.389,0.101,0.537
			C142.191,67.93,142.296,68.949,142.735,70.021z M138.741,67.704c-0.255,0.4-0.527,0.64-0.494,0.824
			c0.036,0.2,0.34,0.448,0.558,0.483c0.133,0.021,0.451-0.318,0.454-0.5C139.263,68.304,139.008,68.094,138.741,67.704z"/>
		<path fill="#FDEBAC" d="M145.541,52.615c-0.518,0.831-1.04,1.659-1.553,2.493c-0.282,0.458-0.559,0.919-0.82,1.389
			c-0.347,0.624-0.878,0.768-1.54,0.666c-0.883-0.135-1.77-0.238-2.654-0.369c-0.596-0.088-0.892,0.089-0.815,0.753
			c0.097,0.844,0.118,1.697,0.221,2.54c0.128,1.046-0.027,1.313-0.982,1.764c-0.951,0.449-1.884,0.939-2.808,1.443
			c-0.917,0.5-0.974,0.777-0.455,1.689c0.064,0.112,0.084,0.248,0.125,0.372c-0.416-0.58-0.837-1.157-1.248-1.741
			c-0.31-0.44-0.221-0.775,0.27-1.017c0.901-0.446,1.783-0.935,2.698-1.35c0.627-0.284,0.857-0.72,0.806-1.381
			c-0.085-1.117-0.138-2.236-0.213-3.354c-0.037-0.549,0.16-0.853,0.757-0.814c1.181,0.078,2.368,0.093,3.541,0.236
			c0.619,0.076,1.082-0.014,1.497-0.48c0.774-0.87,1.555-1.734,2.365-2.57C144.925,52.687,145.128,52.26,145.541,52.615z"/>
		<path fill="#FBEAAB" d="M138.277,71.5c-0.224,0.468-0.363,1.007-0.686,1.393c-1.173,1.399-1.196,1.38-0.088,2.794
			c-0.449-0.238-0.924-0.437-1.34-0.724c-0.623-0.43-0.647-0.887-0.143-1.452c0.631-0.709,1.266-1.415,1.954-2.184
			C137.982,71.332,138.13,71.416,138.277,71.5z"/>
		<path fill="#FAEBA7" d="M142.752,70.378c-0.444,0.149-0.882,0.322-1.334,0.441c-0.746,0.196-1.501,0.358-2.253,0.534
			c0.264-0.66,0.811-0.836,1.453-0.863C141.33,70.46,142.041,70.416,142.752,70.378z"/>
		<path fill="#D85936" d="M133.225,112.419c-0.025-0.029-0.046-0.061-0.063-0.096c0.79,0.14,1.101-0.476,1.498-0.955
			c0.362-0.214,1.064-0.029,0.945-0.808c0.321-0.191,0.641-0.381,0.962-0.572c0.735,1.269,0.736,1.271,2.259,0.877
			c0.468-0.121,0.93-0.261,1.437-0.405c0.036,0.788-0.438,1.097-1.018,1.269c-0.621,0.183-1.261,0.303-1.893,0.451
			C135.976,112.261,134.601,112.34,133.225,112.419z"/>
		<path fill="#FBD221" d="M134.692,109.27c0.133,0.229,0.305,0.444,0.388,0.689c0.102,0.299,0.26,0.837,0.165,0.895
			c-0.298,0.182-0.767,0.337-1.05,0.217c-0.292-0.124-0.442-0.582-0.654-0.893C133.925,109.876,134.308,109.573,134.692,109.27z"/>
		<path fill="#ED5D30" d="M134.66,111.369c-0.397,0.479-0.708,1.094-1.498,0.955c-0.262-0.041-0.524-0.082-0.787-0.123
			c0.33-0.546,0.661-1.091,0.991-1.637C133.639,111.088,133.929,111.583,134.66,111.369z"/>
		<path fill="#F5AB84" d="M133.367,110.564c-0.33,0.546-0.661,1.091-0.991,1.637c-0.505-0.035-0.703-0.365-0.501-0.765
			c0.281-0.558,0.688-1.052,1.041-1.574C133.066,110.096,133.216,110.33,133.367,110.564z"/>
		<path fill="#EC5C2F" d="M136.567,109.989c-0.321,0.191-0.641,0.381-0.962,0.572c-0.184-0.437-0.368-0.874-0.552-1.311
			c0.276-0.111,0.551-0.223,0.827-0.334C136.109,109.274,136.338,109.631,136.567,109.989z"/>
		<path fill="#F8E8AA" d="M134.692,109.27c-0.383,0.303-0.767,0.606-1.15,0.908c-0.172-0.196-0.344-0.392-0.553-0.63
			c0.402-0.34,0.766-0.648,1.197-1.013C134.381,108.819,134.536,109.045,134.692,109.27z"/>
		<path fill="#F1A782" d="M135.881,108.916c-0.276,0.111-0.551,0.223-0.827,0.334c-0.179-0.271-0.357-0.542-0.526-0.798
			C134.994,107.807,135.442,108.119,135.881,108.916z"/>
		<path fill="#40372A" d="M152.952,73.246c-0.146,0.121-0.292,0.242-0.426,0.353c0.018,0.328,0.037,0.67,0.056,1.012
			c-0.043,0.007-0.085,0.013-0.128,0.02c-0.077-0.282-0.154-0.563-0.231-0.845c-0.06-0.022-0.119-0.044-0.179-0.066
			c-0.147,0.318-0.294,0.635-0.442,0.953c-0.275-0.546,0.168-1.282,0.883-1.442C152.633,73.198,152.796,73.239,152.952,73.246z"/>
		<path fill="#282425" d="M147.635,68.817c-0.399,0.251-0.649,0.534-0.859,0.507c-0.215-0.028-0.391-0.36-0.584-0.559
			c0.215-0.201,0.411-0.53,0.65-0.564C147.028,68.174,147.266,68.514,147.635,68.817z"/>
		<path fill="#282526" d="M138.741,67.704c0.267,0.39,0.522,0.601,0.518,0.807c-0.003,0.181-0.322,0.521-0.454,0.5
			c-0.218-0.035-0.521-0.283-0.558-0.483C138.214,68.343,138.486,68.104,138.741,67.704z"/>
	</g>
</g>
<path fill="none" stroke="#13110C" stroke-width="6" d="M175.638,93.042c0-9.027-9.754-15.581-18.487-15.581
	c-8.732,0-18.476,6.668-18.476,15.581"/>
</svg>
