<?xml version="1.0" standalone="no"?>
<!DOCTYPE svg PUBLIC "-//W3C//DTD SVG 1.1//EN" "http://www.w3.org/Graphics/SVG/1.1/DTD/svg11.dtd" >
<svg xmlns="http://www.w3.org/2000/svg" xmlns:xlink="http://www.w3.org/1999/xlink" version="1.1">
<metadata>
Created by FontForge 20170731 at Thu Feb  4 20:53:44 2021
 By Aleksey,,,
Copyright (c) 2020 by Typhoon Type - Suthi Srisopha. All rights reserved.
</metadata>
<defs>
<font id="MyrlissaPersonalUse" horiz-adv-x="731" >
  <font-face 
    font-family="Myrlissa - Personal Use"
    font-weight="400"
    font-stretch="normal"
    units-per-em="2048"
    panose-1="0 0 0 0 0 0 0 0 0 0"
    ascent="1638"
    descent="-410"
    x-height="575"
    cap-height="1087.5"
    bbox="-219.273 -455.721 5069.16 1255"
    underline-thickness="102"
    underline-position="-307"
    unicode-range="U+000D-E006"
  />
<missing-glyph horiz-adv-x="1024" 
 />
    <glyph glyph-name="Myr" unicode="Myrlissa" horiz-adv-x="5120" 
d="M4399 678q18 -3 23.5 -35.5t-0.5 -76t-14.5 -86.5t-16.5 -73l-8 -30q-18 -88 -22 -168t0.5 -124t11 -82.5t6.5 -45.5q0 -16 -4.5 -19.5t-13 -1.5t-11.5 1q-7 -2 -15 -1t-15 3l-7 2q-22 8 -46.5 80t-27.5 153q-2 51 9 127.5t22 126.5l12 51q-10 -13 -91.5 -208
t-114.5 -216q-42 -22 -77.5 -14t-58.5 29l-24 22q-27 32 -41 83t-9 120t35 135q18 39 44 68t52 42t53.5 21.5t47 7t33.5 -1.5q18 -2 37.5 -38t29.5 -71l11 -36q2 7 11 40.5t16 57.5t18 53t20 43q47 77 125 62zM4039 129q18 3 33 17.5t30.5 44t26 54.5t29.5 72t30 74
q-1 6 -4 15t-10.5 33t-15 42.5t-17.5 34t-18 16.5q-24 2 -59.5 -59.5t-59.5 -153.5q-16 -63 -13.5 -106.5t16.5 -65.5t32 -18zM3043 1028q-9 -80 -32 -179.5t-63.5 -200t-84.5 -138.5q-21 -302 4 -483q10 -64 -28 -72q-5 -1 -17.5 3t-19.5 5t-16.5 16t-15.5 29l-5 15
q-15 63 -31 235.5t-8 327.5q9 164 39 318t49 200q17 36 58.5 62t68.5 30q34 2 72.5 -41.5t29.5 -126.5zM2925 1020q-38 -192 -56 -410q68 118 115 310q1 6 3.5 16t7.5 37.5t8 50.5t3 47t-6 35q-16 32 -41 0q-22 -27 -34 -86zM3080 532q9 -9 18.5 -31t8.5 -44q0 -8 -1 -91.5
t-5 -134.5q-2 -46 -1 -84.5t0 -64.5t-5 -27q-10 -4 -28.5 -7t-25.5 1h-5.5t-12.5 1.5t-16 4.5t-12.5 9t-6.5 14q-5 33 -7 129t5 162q8 61 22 112t25 51q5 0 16.5 1.5t19 1.5t11.5 -3zM2392 2q215 -47 291 -186q22 -47 10.5 -97t-49.5 -86q-24 -22 -76 -41q-11 -3 -18.5 5.5
t-1.5 17.5q6 13 10.5 27t5.5 22l2 8q0 95 -53 162t-133 96q-53 19 -114 30t-96 12l-34 1q-16 -81 -46 -162.5t-68.5 -151t-88 -99.5t-96.5 0q-3 2 -9 7t-20 21.5t-24.5 36.5t-17 53t-3.5 70q21 209 244 260q10 74 13 150.5t1 116.5l-2 40q-2 13 -2 33q-39 -93 -71.5 -153.5
t-63.5 -77.5q-41 -16 -72.5 -7t-51.5 28l-19 20q-4 3 -9.5 9.5t-17.5 32.5t-17.5 60t-1.5 95t23 134q20 68 43 84q13 10 42 9t42 -15q15 -17 25.5 -55.5t3.5 -67.5q-1 -3 -5 -20t-7.5 -30.5t-9 -36.5t-8.5 -41.5t-6.5 -40.5t-4.5 -39t0 -31.5t5.5 -23t12.5 -9.5
q50 -10 127 168q27 69 45 147q15 123 66 131q27 5 57 -43.5t33 -101.5q6 -101 -16 -342q-1 -17 -17 -111q117 9 248 -18zM1862 -344q42 -30 78 61.5t61 243.5q-53 -6 -98 -41q-55 -44 -75 -100t-8.5 -99.5t42.5 -64.5zM2359 53q-59 -3 -100 68q-20 34 -21 198t13 252
q8 50 26 56q25 10 59.5 -12t41.5 -42q20 -50 28 -143q68 161 123 168q27 2 52 -8t44 -32.5t18 -65.5t-26 -99l-7 -22q-1 -7 3 -9q4 -1 9.5 3t14.5 13.5t13 12.5q18 14 23 6q7 -7 4 -14q-8 -16 -21 -33.5t-38.5 -32t-49.5 -4.5q-26 12 -31.5 48.5t0 80t3.5 52.5
q-2 14 -7.5 23.5t-10.5 12.5l-5 2q-8 1 -19 -10t-24 -35t-26 -57.5t-25.5 -84t-20.5 -109.5q-12 -183 -43 -183zM3797 373q1 0 3 -0.5t7 -2t8.5 -3.5t6 -5.5t0.5 -7.5q-1 -3 -6 -6.5t-14 -8t-17.5 -8t-21.5 -9t-21 -9.5q13 -27 22 -46.5t20 -47.5t14.5 -45t6.5 -40.5
t-4 -33.5q-23 -56 -87.5 -82.5t-106.5 -15.5q-3 0 -7 1.5t-16 6.5t-22 11.5t-20.5 19t-16.5 28t-6 39t8 50.5q15 46 59 90q-29 41 -39 76q-27 -16 -57 -31t-46 -22l-16 -7q14 -37 20.5 -56.5t14.5 -47t10 -45t1.5 -37.5t-5.5 -39q-21 -72 -85 -105.5t-111 -21.5q-2 0 -5.5 1
t-13 5t-19 8.5t-21.5 13t-21.5 18.5t-18.5 25t-13 31.5t-4 38.5t7 47q10 35 33.5 66t42.5 45l18 14q-59 116 -55 193q3 99 37 167t84 103q29 20 63 6q79 -29 74 -86q0 -5 -0.5 -13.5t-6 -32t-14.5 -43t-29.5 -41t-47.5 -32.5q20 -64 49 -139q64 23 125 62v26q3 77 36.5 130
t82.5 79q29 16 63 6q79 -24 72 -65q0 -4 -0.5 -10t-6 -24.5t-14 -35.5t-26.5 -38.5t-43 -37.5q4 -7 12.5 -25.5t13.5 -29.5q49 24 70 29zM3412 621q-50 -66 -55 -127q36 20 49.5 52t9.5 54zM3252 -25q24 -7 54 19.5t30 66.5q0 22 -17 62t-34 59q-7 -3 -17.5 -10t-32 -33.5
t-28.5 -58.5q-5 -24 -3 -42t10 -30t16.5 -19.5t15.5 -10.5zM3744 553q-49 -49 -55 -99q-1 -4 -1 -8q34 24 48 51t11 41zM3588 49q17 -6 49.5 18t32.5 56q0 9 -7.5 21.5t-27.5 37.5t-28 37q-38 -41 -48 -94q1 -3 -0.5 -16t6 -33t23.5 -27zM1501 1047q4 2 10 4.5t23.5 6
t33.5 3t35 -10t32.5 -28.5t21.5 -56t6 -89l-33 -321q-65 -712 4 -757q2 -2 2 -7.5t-6 -12t-14 -6.5q-4 2 -19.5 0t-39 1.5t-46 9t-42 21t-25.5 39.5q-14 46 -23.5 123.5t-8.5 189.5t20 212q6 31 16 84t17 91t16.5 90t16 89t13.5 80t10 72t5 54.5t0.5 38t-6.5 13.5
q-23 3 -54.5 -69t-62.5 -182.5t-63 -241t-56 -242.5t-41.5 -190.5t-19.5 -82.5q-7 -10 -24 -8.5t-35 8.5l-17 7q-23 3 -38.5 28t-22 68t-8.5 94.5t2.5 113.5t10 118.5t14.5 117.5t15 101t13 77q13 71 15 114.5t-2 51.5l-5 8q-51 -36 -95.5 -160.5t-72 -282.5t-42 -263
t-20.5 -176q3 -124 25 -195q-4 -20 -12 -20q-2 0 -28.5 -2t-39.5 -2q-27 0 -62 14t-44 43q-9 26 -17 79.5t-14 174.5t8 278q16 206 64 432.5t77 284.5q3 10 17 10q116 0 114 -30q0 -2 -5 -38t-12 -92t-15.5 -126t-17.5 -158t-17 -170q105 465 223 465q5 1 12.5 0t26.5 -14.5
t33 -39.5t23.5 -86t6.5 -143q-3 -102 -11.5 -202.5t-15.5 -158.5t-15 -116t-9 -65q6 35 17 94.5t44.5 213t67 274t79.5 227.5t87 125zM354 477q96 -15 152 -61t76 -94q4 -10 -4 -19t-17 -4q-21 7 -45 8t-51 -5t-50.5 -13.5t-56.5 -20.5q-235 -98 -295 17q-17 33 -11.5 66.5
t31 59.5t66 45.5t93 24.5t112.5 -4zM551 246q9 0 12 -9.5t-4 -15.5q-10 -10 -14 -16q-14 -17 -21 -39q-5 -14 -13.5 -36.5t-36 -67.5t-54.5 -62q-3 -3 -9.5 -7t-24 -11.5t-34 -10.5t-37.5 3t-36 24q-43 48 8 118.5t133 102.5q72 27 131 27zM348 731q50 40 118.5 -12.5
t98.5 -136.5q29 -79 25 -133q-1 -9 -10 -12t-13 3q-3 3 -9 9.5t-9 9.5q-13 11 -39 22q-14 5 -36 14.5t-66 37.5t-60 55q-3 4 -7 10t-11.5 24t-10 35t4 38t24.5 36zM4766 477q58 10 112.5 4t93 -24.5t66 -45.5t31 -59.5t-11.5 -66.5q-60 -115 -295 -17q-33 12 -56.5 20
t-51 14t-51 5t-44.5 -8q-9 -5 -17 4t-4 19q20 48 76 94t152 61zM4698 219q83 -32 134.5 -102.5t8.5 -118.5q-15 -18 -35.5 -24t-38 -2.5t-33.5 9.5t-25 13l-9 6q-27 17 -53 58.5t-39 74.5l-12 33q-7 22 -21 39q-4 6 -14 16q-7 6 -4 15.5t12 9.5q60 0 129 -27zM4553 440
q-4 -6 -13 -3t-10 12q-4 54 25 133q30 84 98.5 136.5t118.5 12.5q28 -24 28 -60t-14 -59l-14 -24q-16 -27 -57 -54t-74 -40l-33 -13q-27 -12 -37 -22q-4 -3 -7 -6t-6 -7t-5 -6zM3176 752q16 -4 19.5 -20.5t-13 -43.5t-55.5 -53q-35 -28 -61 -57q-4 -5 -11 -3.5t-10 7.5
q-10 30 -16 73q-5 60 6 106.5t41 49.5h2q23 -12 29 -59q7 -54 -2 -72q5 11 12.5 26t25 32.5t33.5 13.5z" />
    <glyph glyph-name="s_s" unicode="ss" horiz-adv-x="665" 
d="M616 373q1 0 3 -0.5t7 -2t8.5 -3.5t6 -5.5t0.5 -7.5q-3 -8 -80 -39q12 -25 19 -40t17 -38.5t15 -40t9.5 -35t4 -33.5t-4.5 -26q-21 -57 -86 -84t-109 -16q-2 0 -6 1.5t-16.5 6t-21.5 12t-21 19.5t-16 28t-6.5 38.5t7.5 50.5q11 38 60 90q-28 46 -39 76q-26 -16 -56 -31
t-47 -22l-16 -7q34 -87 44.5 -134.5t-1.5 -90.5q-23 -72 -87.5 -105.5t-111.5 -21.5q-2 0 -5 1t-13 5t-19 8.5t-21 13t-21.5 18.5t-18 25t-12.5 31.5t-3.5 38.5t7.5 47q9 35 32.5 66t42.5 45l19 14q-59 108 -57 193q3 100 36.5 167.5t83.5 102.5q30 20 64 6q81 -30 74 -86
q0 -5 -0.5 -13.5t-6 -32t-14.5 -43t-29 -41t-47 -32.5q1 -5 47 -139q64 23 127 62q-2 8 -2 26q4 77 37.5 130t81.5 79q32 19 64 6q32 -10 54 -26t19 -39q0 -4 -0.5 -10t-6 -24.5t-14 -35.5t-26.5 -38.5t-43 -37.5q8 -20 25 -55q47 23 69 29zM231 621q-48 -64 -55 -127
q36 20 49.5 52t9.5 54zM72 -25q25 -7 55 19.5t29 66.5q0 22 -17.5 62t-34.5 59q-7 -3 -17.5 -10t-31.5 -33.5t-28 -58.5q-8 -36 3.5 -62.5t26.5 -34.5zM563 553v0l-2 -2q-2 -2 -5.5 -6t-7 -9t-8 -11.5t-8.5 -13t-8.5 -14.5t-7.5 -16.5t-5 -17.5t-3 -17q34 24 47.5 51
t10.5 41zM408 49q17 -6 49 18t32 56q0 6 -3 13t-10 17.5t-13 18.5t-18 23t-19 24q-35 -41 -45 -94q1 -3 -1 -16t5 -33t23 -27z" />
    <glyph glyph-name=".notdef" horiz-adv-x="1024" 
 />
    <glyph glyph-name=".null" horiz-adv-x="0" 
 />
    <glyph glyph-name="nonmarkingreturn" horiz-adv-x="682" 
 />
    <glyph glyph-name="NULL" horiz-adv-x="0" 
 />
    <glyph glyph-name="NULL" horiz-adv-x="0" 
 />
    <glyph glyph-name="CR" unicode="&#xd;" horiz-adv-x="512" 
 />
    <glyph glyph-name="space" unicode=" " horiz-adv-x="516" 
 />
    <glyph glyph-name="exclam" unicode="!" horiz-adv-x="243" 
d="M115 -6q17 0 29 -17.5t12 -42.5q0 -23 -12 -40t-29 -17t-29 17t-12 40q0 25 12 42.5t29 17.5zM168 950v-18v-23q0 -31 -2 -47v-31q0 -7 -1 -21.5t-1 -21.5v-110q0 -86 -2 -133v-142q-4 -180 -10 -247q-13 -112 -31 -115q-7 -2 -15 8q-14 21 -22 98q0 15 -2 25q0 23 -2 35
q0 11 -1 40t-1 48q-2 66 -2 225q0 166 2 240q2 10 2 28v27q1 8 2 24.5t2 24.5q0 7 1 22t1 21q1 7 2 20t2 19q2 29 8 58q12 58 27 55q25 0 37 -47q3 -23 6 -62z" />
    <glyph glyph-name="quotedbl" unicode="&#x22;" horiz-adv-x="292" 
d="M135 1190v-29q0 -13 -4 -41q-7 -24 -18 -35q-1 -1 -3.5 -3t-3.5 -3t-3 -2t-3 -2q-6 -3 -14 0q-4 0 -8 4q-1 1 -4 3t-4 3q0 3 -4 11q0 10 2 18q0 5 1 14.5t1 14.5q5 53 6 57q0 4 4 8q4 9 16 9q22 0 29 -5q10 -7 10 -22zM217 1161v-28q0 -27 -4 -41q-6 -23 -18 -37
q0 -4 -5 -4q-4 -4 -8 -4q-6 -3 -12 -3l-10 5q-6 6 -6 8q-4 4 -4 10q-3 6 0 18q0 4 1 14t1 15q5 50 6 55q2 5 4 9q3 7 16 10q23 0 29 -6q10 -7 10 -21z" />
    <glyph glyph-name="numbersign" unicode="#" horiz-adv-x="552" 
d="M465 477q24 -8 24 -22q0 -24 -20 -33q-12 -3 -27 -6h-8h-10q-13 0 -21 2h-14q-10 0 -18 2h-4q-1 -8 -2.5 -24.5t-2.5 -24.5t-3 -26t-3 -26q1 0 3 -1t3 -1h11q4 0 11.5 -1t10.5 -1q6 -2 19 -2q3 -1 8.5 -2t7.5 -2q13 -2 25 -6q24 -12 24 -22q0 -23 -20 -33q-12 -3 -27 -6
h-8h-10q-13 0 -21 2h-14h-19q-2 0 -6.5 1t-7.5 1q-7 -57 -14 -84q-13 -61 -27 -64q-6 -2 -10 4q-10 10 -10 50v12v18q1 7 2 23t2 24v17h-33h-49q-13 -77 -17 -94q-12 -58 -28 -64q-4 -2 -8 4q-11 7 -11 49v15v16q0 7 1 23t1 24q2 10 2 29q-41 4 -59 8q-46 9 -49 25q0 6 4 12
q6 12 43 20h10q4 2 15 2q10 2 39 2q2 2 4 2q2 6 2 21q2 13 5 40.5t5 41.5q-48 4 -68 8q-46 9 -49 25q0 6 4 12q9 13 43 20q6 0 10 2h15q7 1 20 2.5t19 2.5h16v4q4 16 4 26q1 4 3 12.5t3 12.5q0 8 4 20q3 15 9 31q12 31 22 33q20 0 23 -23q2 -8 2 -30q0 -2 -1 -6.5t-1 -6.5
v-10q-1 -4 -2 -13t-2 -14q0 -2 -1 -7.5t-1 -8.5q-2 -6 -2 -18h22h57q2 4 2 12q1 4 3.5 13.5t3.5 13.5q0 10 4 22q1 4 2 11t2 10l8 32q13 31 22 33q20 0 25 -22v-33v-10q-2 -4 -2 -11q0 -6 -4 -26q0 -11 -2 -17q0 -3 -1 -10.5t-1 -11.5q0 -2 -1 -5t-1 -5h10q3 0 10.5 -1.5
t10.5 -1.5q6 -2 18 -2q3 -1 8.5 -2t7.5 -2q13 -2 25 -6zM299 350q1 11 3 34.5t3 35.5h-39h-41q0 -4 -6 -58q0 -16 -4 -40h33h47q1 4 2 13.5t2 14.5z" />
    <glyph glyph-name="dollar" unicode="$" horiz-adv-x="487" 
d="M328 586q48 -159 75 -293q32 -161 -47 -234q-36 -36 -55 -47v-24q0 -9 -5.5 -16t-14.5 -7q-8 0 -14.5 7t-6.5 16v10q-20 0 -50 4t-38 10q-6 3 -14.5 8.5t-22 24t-10.5 39.5q2 13 9 16.5t17 -0.5t21 -10t25 -10t26 -2q24 6 37 61v174q-12 43 -48 138t-36 96
q-6 18 -16 47.5t-29.5 108t-26.5 142.5t7 126t57 82q45 39 92 49v24q0 9 6.5 16t14.5 7q9 0 14.5 -7t5.5 -16v-28q4 0 12 -4q29 -20 45 -37t21.5 -39t-8.5 -45q-1 -1 -2 -3t-5 -6.5t-8.5 -6t-11 1t-12.5 10.5q-1 1 -5 8t-11.5 17t-14.5 18v-342q3 -12 13 -40t14 -44z
M197 946q-2 -31 16 -98t45 -90l2 282h-4q-7 -4 -16.5 -11t-26 -31.5t-16.5 -51.5z" />
    <glyph glyph-name="percent" unicode="%" horiz-adv-x="489" 
d="M432 1069q29 -10 17 -63q-3 -27 -19 -70q-1 -4 -4 -11.5t-4 -11.5q-2 -4 -5 -12t-5 -12q-14 -37 -21 -53q-1 -3 -3.5 -10t-5 -13.5t-5.5 -11.5q-12 -28 -19 -49q-48 -120 -49 -123q-3 -10 -33 -86q-1 -3 -55 -146q-42 -108 -88 -204q-61 -119 -80 -119l-6 3q-2 3 -4 9
q-5 38 18 115q1 4 5 14.5t6 15.5q4 22 12 37q9 31 35 101q16 49 69 188q13 34 24.5 67t20.5 57t25 60q6 18 12 33q7 14 13 29q4 9 12 27.5t12 27.5q17 39 23 49q15 35 18 41q15 33 33 64q36 62 51 57zM164 760q-31 0 -50 25.5t-16 62.5q3 36 26 62t52 26t48.5 -25.5
t17.5 -62.5q-3 -37 -26 -62.5t-52 -25.5zM137 848q-1 -17 7 -29t20 -12q13 0 24.5 12t14.5 29q1 17 -7 28t-22 11q-13 0 -24 -12t-13 -27zM344 432q31 0 50 -25.5t16 -62.5t-26 -62.5t-52 -25.5q-29 -1 -49 25t-17 61q3 37 26 63.5t52 26.5zM371 344q2 15 -7 27t-22 12
q-12 0 -23 -12t-14 -27q-1 -17 7 -29t22 -12q12 0 24 12t13 29z" />
    <glyph glyph-name="ampersand" unicode="&#x26;" horiz-adv-x="466" 
d="M436 350q6 0 8 -4q4 -4 0 -12q-10 -31 -34 -55q-5 -5 -7 -5q-27 0 -51 9q0 -4 -2 -4q-1 -11 -3.5 -25t-12 -37t-23 -40.5t-39 -31t-57.5 -14.5q-41 0 -71 16.5t-44 39.5t-22 46t-9 39l-1 17q0 54 19 98t69 96q-17 51 -23 90q-10 70 10 127t60 74q33 12 57 -5.5t33 -45.5
q18 -36 6 -98q-2 -2 -2 -9q-10 -42 -43 -90q-3 -6 -9.5 -15t-8.5 -13l-3 -2l-4 -4q-6 -6 -6 -9v0l-8 -8q20 -41 61 -82q1 -1 2.5 -2l3 -2t1.5 -2q-5 41 -17 76q-7 22 17 22q14 -3 25 -10.5t16 -13.5l4 -6q31 -45 34 -107q37 -7 74 2zM184 698q-14 -29 -12 -69q0 -45 21 -107
q43 49 61 99q12 24 12 61q-2 21 -12 41h-2q-1 2 -3.5 4.5t-10.5 6.5t-17 3q-21 -5 -37 -39zM281 279q6 15 6 34q-66 41 -107 119q-2 -3 -5.5 -7t-5.5 -6.5t-3 -4.5q-2 -2 -5 -7.5t-5 -7.5q-18 -43 -21 -61l-2 -29q2 -92 51 -102q25 -7 52 6q22 14 34 41l11 22v3z" />
    <glyph glyph-name="quotesingle" unicode="'" horiz-adv-x="223" 
d="M152 1184v-29q0 -6 -5 -41q-7 -24 -18 -35l-6 -6q-1 -1 -3 -2t-3 -2q-6 -3 -15 0q-4 0 -8 4q-1 1 -4 3t-4 3q-4 4 -4 11v18q1 4 2 14t2 15q5 53 6 57q0 4 4 8q4 8 17 8q22 0 28 -4q11 -7 11 -22z" />
    <glyph glyph-name="parenleft" unicode="(" horiz-adv-x="632" 
d="M348 477q96 -15 151.5 -61t75.5 -94q4 -10 -3.5 -19t-16.5 -4q-21 7 -45 8t-51 -5t-50.5 -13.5t-56.5 -20.5q-235 -98 -295 17q-17 33 -11.5 66.5t31 59.5t66 45.5t93 24.5t112.5 -4zM414 219q72 27 131 27q9 0 12 -9.5t-4 -15.5q-10 -10 -14 -16q-14 -17 -21 -39
q-5 -14 -13.5 -36.5t-36 -67.5t-54.5 -62q-4 -3 -10 -7t-24 -11.5t-34.5 -10.5t-37.5 3t-36 24q-43 48 8.5 118.5t133.5 102.5zM559 582q29 -79 25 -133q-1 -9 -10 -12t-13 3q-3 3 -9 9.5t-9 9.5q-13 11 -39 22q-14 5 -36 14.5t-66 37.5t-60 55q-3 4 -7 10t-11.5 24t-10 35
t4 38t24.5 36q50 40 118.5 -12.5t98.5 -136.5z" />
    <glyph glyph-name="parenright" unicode=")" horiz-adv-x="675" 
d="M303 477q58 10 112.5 4t93 -24.5t66 -45.5t31 -59.5t-11.5 -66.5q-60 -115 -295 -17q-33 13 -56.5 20.5t-50.5 13.5t-51 5t-45 -8q-9 -4 -16 4t-4 19q20 48 75.5 94t151.5 61zM238 219q51 -20 94.5 -59.5t59.5 -82.5t-11 -79q-16 -18 -36.5 -24t-38.5 -2.5t-34 9.5
t-25 13l-9 6q-27 17 -53.5 58.5t-38.5 74.5l-13 33q-8 24 -20 39q-2 3 -15 16q-7 6 -4 15.5t12 9.5q60 0 132 -27zM92 582q30 84 98.5 136.5t118.5 12.5q29 -24 29 -60t-14 -59l-15 -24q-16 -27 -56.5 -54t-72.5 -40l-33 -13q-24 -11 -38 -22q-13 -13 -17 -19
q-6 -6 -14.5 -3t-9.5 12q-4 56 24 133z" />
    <glyph glyph-name="asterisk" unicode="*" horiz-adv-x="266" 
d="M197 1149q0 -1 -1.5 -2l-3 -2t-2.5 -2t-3 -2t-3 -2q1 -2 4.5 -6.5t4.5 -6.5q8 -15 2 -24q-3 -4 -7 -8q-7 -7 -20 -4l-8 4q-2 -2 -2 -7q-7 -14 -19 -14q-4 -2 -10 0q-11 4 -16 14q-2 2 -2 9q-2 2 -2 8h-3l-4 -2h-6q-4 -2 -8 -2q-12 4 -16 10q-11 19 -9 27q0 9 17 16
q2 0 2 2l-2 2l-4 4q-4 4 -6 8q0 15 2 19q9 15 18 18q13 0 19 -4q0 4 2 6q11 11 16 11q16 3 27 -5q8 -5 8 -22v-4h12q18 0 25 -10q2 -5 4 -9q0 -12 -6 -20z" />
    <glyph glyph-name="plus" unicode="+" horiz-adv-x="262" 
d="M205 369q22 -6 22 -21q2 -6 0 -12q-7 -13 -16 -17q-2 0 -6 -1t-6 -1t-8 -1t-9 -1h-16q-2 -2 -2 -8v-18v-8q-2 -2 -2 -7q0 -6 -2 -10q-8 -12 -17 -12q-19 -3 -28 6q-13 10 -13 29v14v16h-6q-12 0 -18 2h-8q-3 3 -9 3q-4 0 -10 4q-9 5 -12 16q-3 18 4 29q8 8 29 8h14h14
q2 6 2 20l7 21q3 20 18 20q6 2 10 0q15 -5 19 -18l4 -12q0 -2 1 -8t1 -9q0 -10 2 -16q6 -2 20 -2q12 -3 21 -6z" />
    <glyph glyph-name="comma" unicode="," horiz-adv-x="202" 
d="M133 55v-24q0 -13 -4 -33q-3 -20 -14 -31q0 -4 -4 -4l-5 -4h-10q-4 0 -8 4q-2 0 -6 4q-1 1 -2 4t-2 4q0 11 2 17q0 16 2 24q1 8 2 25t2 22q0 3 2 7q6 6 14 8q17 0 23 -4q8 -8 8 -19z" />
    <glyph glyph-name="hyphen" unicode="-" horiz-adv-x="387" 
d="M270 369q21 -7 21 -21q2 -6 0 -12q-6 -13 -17 -17l-4 -1q-4 -1 -8 -1q-2 0 -7.5 -1t-8.5 -1h-21h-20q-31 0 -45 2q-13 0 -19 2h-8q-3 3 -6 3q-6 0 -10 4q-12 4 -15 16q-3 19 7 29q5 8 26 8h17h20h25q5 0 13.5 -1t12.5 -1t13 -1t12 -1q16 -4 22 -6z" />
    <glyph glyph-name="period" unicode="." horiz-adv-x="223" 
d="M111 78q15 0 26 -11t13 -26q1 -15 -9.5 -26t-25.5 -11t-26 11t-13 26q0 15 10 26t25 11z" />
    <glyph glyph-name="slash" unicode="/" horiz-adv-x="385" 
d="M348 1065q28 -6 25 -64q0 -18 -11 -71q-1 -3 -3 -10.5t-3 -10.5l-6 -24q-2 -10 -16 -56q-1 -3 -10 -36q-13 -39 -15 -48q-4 -13 -16 -55t-19 -69q-10 -38 -41 -152q-5 -23 -12.5 -50.5l-16.5 -60.5t-14 -51q-63 -212 -88 -280q-45 -124 -65 -121q-8 -2 -14 12
q-9 31 6 117q0 13 6 28q4 26 8 39q3 13 11 47.5t12 55.5q35 146 65 258q42 156 76 272q1 4 4.5 14.5l5.5 16.5q1 7 4 17t4 14q3 9 6 18.5t7 21t6 17.5q11 30 16 49q2 6 7.5 20t8.5 21q11 33 25 64q11 27 24 43.5t23 13.5z" />
    <glyph glyph-name="zero" unicode="0" horiz-adv-x="628" 
d="M354 1071h13t29.5 -5.5t39.5 -16t36.5 -35.5t27.5 -60q6 -19 15 -54.5t21 -143.5t5 -215q-2 -23 -4.5 -48.5t-8 -74.5t-14.5 -93t-21 -96t-29.5 -92t-38 -73t-48.5 -47.5t-60 -6.5q-71 18 -123.5 106.5t-75 210t-12.5 269.5t58 276q3 10 9 26t25 55.5t39.5 67t52.5 45
t64 5.5zM365 68q29 -8 51 41.5t33 126t17.5 154t7.5 132.5l1 56q-1 86 -6.5 152.5t-12.5 99.5t-14 54t-12 26l-4 5q-60 34 -110 -67.5t-70 -219.5l-19 -118q1 -82 9 -150.5t20 -113t27 -78.5t29 -52.5t26 -30t20 -14.5z" />
    <glyph glyph-name="one" unicode="1" horiz-adv-x="382" 
d="M213 1071q11 -6 33 -41t28 -55q15 -43 15 -160q0 -21 -14.5 -323t-12.5 -345q4 -55 2 -81.5t-14 -36.5q-1 -3 -3.5 -7t-8.5 -10.5t-11 -5.5q-26 7 -34 27q-3 7 -8.5 14t-10 11.5t-10 9.5t-6.5 6t-3 2.5t-3 3l-3 4.5t-3 7.5t-2 10t-0.5 14t1.5 19.5q5 44 -12 314
q-3 36 -3 145t-1 125q0 120 -2 188q-12 -17 -49 -59l-7.5 -5t-13 -8t-12.5 -4q-6 2 -13 4.5t-14 8.5t-4 12q46 67 109 178v2l2 2q9 26 25 31q49 10 63 2z" />
    <glyph glyph-name="two" unicode="2" horiz-adv-x="499" 
d="M418 63q9 -3 8.5 -12.5t-4.5 -13.5l-27 -14q-89 -15 -289 -15q-19 3 -30 16t-13 32t-1 36t3.5 34t2.5 19q26 68 102.5 237.5t95.5 215.5q26 64 40 125.5t15 90.5l1 30q-12 70 -41 106t-68 29q-2 -8 -4.5 -19t-6.5 -40t1 -39q12 -27 -19 -39q-7 -4 -17 4.5t-15 38.5t12 92
q10 34 25.5 56.5t31 30.5t29.5 11t22 1l9 -1q43 9 76.5 -11t50.5 -54.5t27.5 -70t12.5 -61.5l3 -26q0 -4 0.5 -11t-1 -31t-6 -50t-17 -67t-30.5 -83q-45 -105 -130.5 -286.5t-129.5 -262.5z" />
    <glyph glyph-name="three" unicode="3" horiz-adv-x="550" 
d="M387 610q4 -3 10.5 -9.5t23.5 -29.5t30 -50t22.5 -73t7.5 -98q-5 -146 -85 -249.5t-203 -92.5l-16.5 5.5t-35.5 20.5t-44 40.5t-32.5 67.5t-9.5 98l14 61q9 30 17 29q29 -3 29 -17q-1 -5 -2 -13.5t-2 -33.5t0 -48t7 -51.5t16 -50t29.5 -38.5t45.5 -21q6 2 15 6.5t33 24
t43 45t35.5 72t18.5 102.5q4 93 -7 152t-24 78.5t-38 42.5q-12 10 -12 29t6 33l6 13q16 49 23.5 95.5t7.5 67.5l-1 22q-11 69 -41.5 107.5t-70.5 31.5q-2 -8 -4.5 -19t-6.5 -40t1 -39q12 -27 -19 -39q-7 -4 -16.5 4.5t-14.5 38.5t11 92q10 34 25.5 56.5t30.5 30.5t29 11
t23 1l8 -1q43 9 76.5 -11t50.5 -54.5t27.5 -70t13.5 -61.5l2 -26q1 -4 1 -11t-1 -31t-5.5 -50t-17 -67t-30.5 -83z" />
    <glyph glyph-name="four" unicode="4" horiz-adv-x="600" 
d="M506 547q5 -3 16 -25q24 -48 17 -53q-7 -6 -32.5 -11t-43.5 -5q-6 0 -14 -2q-14 -246 -11 -304q3 -55 1 -81.5t-13 -36.5q-1 -3 -3.5 -7t-9 -10.5t-12.5 -5.5q-2 1 -12 3t-16.5 4.5t-14 7.5t-10.5 12q-6 11 -6 21t-2 12q-9 9 -2 71q6 47 -12 314v2q-8 0 -71.5 -1.5
t-88.5 -0.5v0h-12q-8 0 -22 4l-15 4q-2 1 -12 3.5t-21 7t-21 11.5q-14 12 -20 54q16 346 14 399q-6 100 13 119q1 3 3 6.5t8.5 9.5t12.5 4q23 -4 31 -24q4 -9 11 -17.5t14.5 -16l9.5 -9.5l3 -3l4 -4t3.5 -6t3 -10.5t0 -15t-1.5 -21.5q-5 -47 12 -313q1 -13 2 -46t2 -50h17
q88 4 119 6v178q0 4 -1.5 89t-4.5 135t-7 54q-2 31 6 41q9 27 25 31q3 1 6 2.5l4 2t3.5 0.5t5.5 -1.5t8 -3.5q13 -6 44 -42t38 -54q15 -42 12 -160q0 -64 -10 -266q49 0 53 -2z" />
    <glyph glyph-name="five" unicode="5" horiz-adv-x="557" 
d="M416 610q4 -3 10.5 -9.5t23.5 -29.5t30 -50t22.5 -73t7.5 -98q-3 -146 -83.5 -249.5t-205.5 -92.5q-6 2 -16 5.5t-35.5 20.5t-44 40.5t-32 67.5t-9.5 98l14 61q9 30 17 29q28 -3 28 -17q-1 -5 -2 -13.5t-2 -33.5t0.5 -48t7 -51.5t16 -50t30 -38.5t45.5 -21q6 2 15 6.5
t33.5 23t43.5 43.5t36 71t19 102q2 72 -7 123.5t-27.5 81t-36 44.5t-42.5 26q-7 1 -18 4t-39 12t-49.5 18.5t-39 25t-17.5 30.5q0 72 6.5 163t5.5 103q0 14 -1 34t-1 27q3 7 8 17.5t23.5 31t39.5 25.5q64 -2 125.5 -2t90.5 1l30 1q11 -2 2 -37q-2 -3 -9 -7.5t-13 -7.5l-6 -3
q-45 -12 -195 -17q9 -13 4 -49q-7 -60 6 -260q13 -1 35 -5t73 -24t83 -49z" />
    <glyph glyph-name="six" unicode="6" horiz-adv-x="571" 
d="M377 643q28 -7 50 -24.5t35 -37t23 -48t14 -48t6.5 -47t2.5 -35v-20.5q0 -114 -18 -192t-52.5 -119.5t-78 -56t-101.5 -7.5q-37 4 -68.5 40t-49.5 84t-30.5 96t-17.5 81l-4 33q-22 119 -10.5 263t57.5 267q3 10 9 26t25 55.5t40 67t53 45t64 5.5q1 -2 8.5 0t22 -4.5
t28.5 -16t28.5 -34.5t22.5 -60q14 -63 7.5 -92t-16.5 -36t-19 -3q-12 7 -16 17.5t-2 17.5l3 6q3 17 2.5 39t-3.5 41l-3 19q-50 31 -85.5 -5t-52 -119.5t-23.5 -148.5t-9 -133q22 44 71.5 68.5t86.5 15.5zM428 356q6 100 -16.5 162.5t-55.5 54.5q-36 -8 -82 -105.5
t-51 -133.5q3 -61 13.5 -110t23.5 -74.5t25 -42.5t20 -22l8 -5q44 -5 76 66.5t39 209.5z" />
    <glyph glyph-name="seven" unicode="7" horiz-adv-x="452" 
d="M375 1042q10 -10 32 -54.5t23 -63.5q3 -42 -31 -158q-11 -36 -117.5 -323.5t-115.5 -325.5q-11 -57 -19 -78t-22 -27q-2 -2 -5 -4.5t-11 -6.5t-13 1q-1 1 -11.5 7t-16 10t-12 12t-7.5 16q-1 13 11 30.5t10 20.5q-17 22 2 62q16 41 56.5 169.5t47.5 168.5q7 34 34.5 133
t31.5 117q3 12 22.5 85.5t31.5 123.5t9 55q0 6 2 14q-19 0 -98.5 -1t-89.5 -1q-5 0 -18 -1t-22.5 -1.5t-20 0.5t-16.5 5.5t-5 12.5q-2 29 16 29q21 1 56.5 0.5t102 -1.5t95.5 -1h4q11 0 32.5 -7.5t31.5 -17.5z" />
    <glyph glyph-name="eight" unicode="8" horiz-adv-x="573" 
d="M385 637q111 -45 111 -254q0 -113 -20 -190.5t-57.5 -118t-82.5 -55.5t-103 -11q-46 3 -79.5 37t-49 81t-24 93.5t-9.5 78.5l-1 32q2 3 -0.5 24t5 58.5t19 75.5t42 74t73.5 54q-64 77 -62 222q2 62 18.5 108t38 68.5t50.5 36t46.5 16t35.5 2.5q4 0 10 -0.5t22.5 -8.5
t30 -23t26 -50t15.5 -84q15 -186 -55 -266zM244 799q-1 -41 6.5 -71t19 -44t22.5 -22.5t19 -9.5l8 -1q22 15 47.5 86t20.5 142q-4 47 -16 84t-23 50l-10 13q-14 -7 -33 -29.5t-39.5 -76.5t-21.5 -121zM416 356q6 99 -15 159.5t-55 57.5q-44 -5 -75 -37t-45 -78t-19 -75.5
t-6 -54.5q4 -62 15.5 -110.5t25.5 -73.5t27.5 -40.5t22.5 -19.5l9 -4q46 -5 77 66t38 210z" />
    <glyph glyph-name="nine" unicode="9" horiz-adv-x="571" 
d="M311 1073q37 -4 68.5 -40.5t49.5 -84.5t30.5 -95.5t16.5 -80.5l5 -33q22 -119 10.5 -263t-57.5 -267q-3 -10 -9 -26t-25 -56t-39.5 -67.5t-52.5 -45t-64 -4.5q-3 0 -9 1t-22 6t-29.5 13t-28 25.5t-22.5 40.5q-12 63 -5 89.5t15.5 32.5t16.5 1q14 -7 18 -17.5t1 -17.5
l-3 -6q-3 -15 -1.5 -27.5t5.5 -20.5l4 -9q154 -97 162 417v5v6q-25 -47 -72 -83.5t-81 -27.5q-38 9 -65.5 38.5t-39.5 59.5t-19 71.5t-7.5 56.5t-0.5 34q0 114 18 192t52.5 119.5t78 56t101.5 7.5zM213 508q37 8 78.5 99.5t50.5 135.5q-4 61 -14.5 110.5t-22 75.5t-23 43.5
t-18.5 23.5l-8 5q-44 5 -76 -66.5t-39 -209.5q-6 -101 15.5 -163t56.5 -54z" />
    <glyph glyph-name="colon" unicode=":" horiz-adv-x="137" 
d="M72 463q19 0 32 -12t13 -31t-13 -32t-32 -13t-31 13t-12 32t12 31t31 12zM68 326q19 0 32 -12t13 -31t-13 -32t-32 -13t-31 13t-12 32t12 31t31 12z" />
    <glyph glyph-name="semicolon" unicode=";" horiz-adv-x="135" 
d="M70 463q19 0 31 -12t12 -31t-12 -32t-31 -13t-32 13t-13 32t13 31t32 12zM84 322q8 -8 8 -27q-1 -3 -1 -14.5t-1 -18.5q0 -23 -6 -47q-8 -29 -18 -39q-3 -6 -7 -6l-6 -6h-12l-8 4q-4 4 -6 8q-4 4 -4 12q0 13 2 21q0 11 4 35q4 50 8 63q0 4 4 8q5 11 16 11q17 3 27 -4z
" />
    <glyph glyph-name="equal" unicode="=" horiz-adv-x="342" 
d="M233 307q17 -9 17 -20q2 -5 0 -11q0 -10 -12 -16q-2 -2 -11 -2q-2 -2 -12 -2h-16h-17h-18h-8q-2 2 -9 2q-10 0 -14 2q-4 0 -6 2h-6l-8 4q-8 4 -11 17q-3 20 2 28q7 11 23 8q6 0 12 3h17q9 -3 20 -3q15 0 21 -2q8 0 20 -4q10 0 16 -6zM109 352q-10 5 -13 17q-3 18 4 28
q6 9 23 9h12h17h20q3 0 10.5 -1.5t10.5 -1.5q3 -1 9 -2t9 -2q12 -4 16 -6q16 -7 19 -20v-11q-3 -10 -15 -16l-8 -4q-8 0 -14 -2h-14h-19q-3 0 -9 1t-9 1h-8q-5 0 -9 2h-14q-2 2 -6 2l-4 2q-4 0 -8 4z" />
    <glyph glyph-name="question" unicode="?" horiz-adv-x="456" 
d="M199 1069q90 8 157 -74.5t68 -214.5q1 -53 -12.5 -116t-38.5 -131t-45 -116t-49 -111.5t-35 -76.5q-43 -98 -37 -168q0 -12 -8.5 -16.5t-14.5 4.5q-23 34 -24.5 96.5t22.5 147.5q21 68 53 152.5t51.5 135t32 122.5t7.5 147q0 4 -1 11t-4.5 26.5t-8.5 37t-15 38.5
t-22.5 35.5t-32.5 23t-43 6.5q-4 0 -11 -1t-24 -11t-30 -26.5t-22 -54t-6 -87.5q3 -53 22 -84t46 -41q24 -8 59 4q4 3 7.5 -1.5t3.5 -10.5q-3 -65 -41 -109q-13 -17 -33 -10q-17 7 -27 11.5t-31 20t-33.5 34t-23.5 52t-12 74.5q-2 71 13 126t38.5 83t47 45.5t40.5 21.5z
M205 -6q17 0 29 -17.5t12 -42.5q0 -23 -12 -40t-29 -17t-29 17t-12 40q0 25 12 42.5t29 17.5z" />
    <glyph glyph-name="at" unicode="@" horiz-adv-x="665" 
d="M373 825q58 -1 104 -32t69 -79t29 -109t-16 -122q-15 -46 -37 -80.5t-43 -50.5t-40 -26t-31 -12l-11 -1h-10l-1 1q-1 0 -3.5 1.5t-5 3.5t-5 6t-4.5 8.5t-3 12t-1 16t1.5 20t5.5 24.5q-5 -16 -13 -32.5t-28 -36.5t-43 -20q-45 6 -49 66q0 37 4 53q7 45 18 68q11 32 37 71
q1 2 2.5 4.5t8 10.5t13 14.5t17 13.5t21 10.5t25 4t28.5 -5.5q2 0 4.5 -1.5t10 -7.5t10.5 -16t5.5 -28t-4.5 -42q6 -1 8.5 -5.5t2.5 -11.5t-1 -14t-4.5 -17t-6 -16.5t-6.5 -16t-5 -13.5v0q-2 0 -2 -2q-2 -4 -5 -14t-5 -14q-4 -15 -6 -23.5t-4 -20t-0.5 -17t6.5 -5.5
q6 0 18 6q18 8 33.5 22t31 39.5t24 69t7.5 99.5q-2 56 -17.5 97t-37 59t-42.5 28.5t-35 11.5h-15q-33 -1 -61 -17.5t-46.5 -42t-33 -56t-22.5 -61t-13 -56t-7 -41.5l-1 -15q-8 -90 2.5 -158t31 -100t42.5 -51t39 -22l16 -4q39 -9 72.5 0.5t58 33t40 47t27.5 50.5
q13 17 17 10q9 -6 0 -27q-21 -53 -52 -89.5t-60 -50.5t-55.5 -20.5t-42.5 -5.5l-16 2q-53 9 -93.5 36.5t-62.5 64t-36 78.5t-18 82.5t-4.5 73.5t1.5 53l2 20q5 59 24.5 114t51.5 102t82.5 74.5t112.5 26.5zM367 459q19 48 43 65q5 29 4 42.5t-4 16.5l-4 3q-19 5 -44 -26.5
t-51 -100.5q-17 -44 -19.5 -69.5t3.5 -29.5l6 -4q28 0 61 88q0 1 1.5 5t1.5 6l2 2v2z" />
    <glyph glyph-name="A" unicode="A" 
d="M649 -4q68 -7 68 -21q-13 -26 -31 -26h-35q3 -89 23 -154q-2 -20 -10 -20q-4 0 -30.5 -2t-37.5 -2q-28 0 -64 14t-45 43q-13 46 -20 123q-16 -1 -38.5 -1.5t-36 -1t-19.5 -1.5q-46 -4 -183 -4q-1 -12 -1.5 -28t-1 -26t-1.5 -14q-2 -31 -7 -44t-19 -13q-5 0 -18 -2.5
t-22 -3.5t-16.5 5.5t-7.5 22.5q0 22 6 105h-43q-1 1 -2.5 3.5t-4 8.5t-2.5 11t3.5 9t12.5 5q1 0 14.5 1t25.5 1q33 402 101 630q56 186 168 305t235 158l2 2h61q65 -5 62 -30q0 -3 -10.5 -82.5t-23.5 -195t-26.5 -249.5t-21 -277.5t-4.5 -248.5zM387 -6q20 2 76 2
q-14 154 2 364q16 184 56.5 386t72.5 296q-204 -141 -254 -241q-44 -84 -84.5 -288.5t-54.5 -362.5q-4 -86 -8 -162q189 6 194 6z" />
    <glyph glyph-name="B" unicode="B" horiz-adv-x="860" 
d="M133 -45q-8 25 -15.5 71t-15 155.5t3.5 246.5q8 138 26.5 287t35.5 241t25 97q15 17 50.5 20.5t64.5 -5.5t28 -26q-9 -44 -23 -219q35 46 72 88t87 88.5t102.5 70.5t97.5 17q61 -10 83.5 -70t9 -133.5t-50 -145t-83.5 -105.5q-56 -42 -148 -70q57 -8 106 -21t97 -36
t78 -60.5t35 -85.5q1 -8 2.5 -22t1.5 -54t-4.5 -77.5t-21 -84.5t-42.5 -83q-70 -100 -197.5 -178t-265.5 -82q-7 0 -18 0.5t-40.5 3t-52 6.5t-42.5 12t-23 19q-4 17 11.5 25.5t36.5 7.5t40 -7q22 -7 59 -8.5t46 0.5q11 1 23 3.5t45 15t61 31t62.5 56t58 85t38.5 122
t13 164.5q-1 57 -25.5 99.5t-64 66t-76 35t-78.5 16.5q-11 -2 -24 -3.5t-21 -2.5t-12 -2q-32 -506 6 -596q0 -18 -8 -18q-3 0 -26 -2t-34 -2q-25 0 -55.5 11t-38.5 38zM305 737q-8 -90 -10 -139q157 37 215 109q39 46 74.5 109.5t48.5 121.5t-23 76q-22 9 -64.5 -20
t-92 -82.5t-84 -94.5t-64.5 -80z" />
    <glyph glyph-name="C" unicode="C" horiz-adv-x="899" 
d="M879 317q-8 -90 -27 -166.5t-43.5 -129.5t-54.5 -95t-61 -67.5t-61.5 -44t-57 -26t-47 -11.5t-32.5 -4h-12q-72 7 -128 37.5t-90.5 77t-59 105t-34 121.5t-14 126t-1 118.5t7 98.5t8.5 69l4 25q15 105 45 191.5t66.5 140.5t77.5 94.5t79 60t68.5 31.5t49.5 14l18 2h13.5
t32 -5.5t42.5 -16t38 -35.5t27 -59q9 -70 -22 -99h-31q-18 2 -17 13q0 2 1 4q6 10 3.5 35t-8.5 51t-26 47t-49 22q-4 -1 -11 -5t-27 -22t-39 -44t-43.5 -77t-43.5 -114.5t-35 -161.5t-23 -215q0 -7 -1 -18.5t-2 -48t-1 -72t2 -84.5t6.5 -91.5t13.5 -87t22 -77.5t33.5 -56.5
t45.5 -29.5q86 -20 157 32t116 155.5t67 248.5q3 78 17 88q10 8 25.5 -12t15.5 -33z" />
    <glyph glyph-name="D" unicode="D" horiz-adv-x="854" 
d="M694 0q-69 -96 -177 -156.5t-247 -64.5h-10t-23.5 1t-33.5 2.5t-36 5t-35 7.5t-25.5 10.5t-12.5 14.5q-4 17 11.5 25.5t36.5 7.5t40 -7q22 -7 58 -8.5t45 0.5q59 7 100 30q158 89 196 377q4 34 7 70l12 188q21 458 -61 499q-8 4 -17 4q-46 -1 -86.5 -44.5t-69 -113
t-44.5 -123t-29 -109.5q-48 -574 0 -688q-2 -18 -8 -18q-3 0 -26.5 -2t-33.5 -2q-25 0 -55.5 11t-38.5 38q-8 22 -16 71t-15 155t2 247q8 138 26.5 287t36 241t25.5 97q14 17 49.5 20.5t65 -5.5t27.5 -26q0 -4 -2.5 -26.5l-7.5 -67.5t-9 -88q98 217 219 227q156 11 231 -177
t36 -535q-1 -10 -2 -27.5t-8.5 -66.5t-18 -94t-30.5 -98t-46 -89z" />
    <glyph glyph-name="E" unicode="E" horiz-adv-x="540" 
d="M645 -190q-5 -12 -32 -20t-51 -10l-25 -1q-91 -12 -250 8q0 -10 -6 -10q-24 0 -60 -4q-25 0 -55.5 13t-38.5 42q-8 25 -16 79t-15 172.5t2 274.5q8 154 26 320t35 268.5t25 108.5q20 26 75.5 23.5t64.5 -27.5q204 40 290 40q58 -4 58 -22q0 -33 -54 -39q-3 0 -30.5 -1.5
t-55.5 -3t-65 -4.5t-75 -8.5t-70 -11.5q-11 -116 -17 -211q149 14 187 5q30 -11 32 -27q2 -11 -1 -24t-9 -13q-3 0 -19 -2t-26 -2q-119 0 -170 -6q-53 -688 -18 -881q43 -6 114.5 -6.5t83.5 2.5q92 8 113 8q8 0 17 -1t20 -3.5t15.5 -9.5t0.5 -16z" />
    <glyph glyph-name="F" unicode="F" horiz-adv-x="489" 
d="M297 717q-59 -780 -8 -920q-2 -20 -10 -20q-20 0 -60 -4q-23 0 -54.5 13t-39.5 42q-8 28 -15.5 79t-15 173t3.5 274q8 154 26 320t35 268.5t25 108.5q13 19 49.5 22.5t63.5 -6.5q220 29 321 16q6 -1 15.5 -3.5t24.5 -11.5t14 -19q-3 -39 -56 -39q-3 0 -59 3t-119.5 3
t-113.5 -6q-18 -179 -21 -224q152 14 186 5q33 -11 35 -27q2 -11 -1 -24t-9 -13q-3 0 -20 -2t-27 -2q-119 0 -170 -6z" />
    <glyph glyph-name="G" unicode="G" horiz-adv-x="890" 
d="M702 -96q-27 -42 -60.5 -71t-61 -40t-51 -16.5t-37.5 -4.5l-13 1q-72 7 -128 37.5t-90.5 77t-58.5 105t-33.5 121.5t-14 126t-1 118.5t7.5 98.5t9 69l4 25q16 113 46.5 203.5t67 144.5t77 93.5t77.5 56.5t67 26.5t48 9.5h18h14t32 -5.5t42.5 -16t38.5 -35.5t27 -59
q9 -70 -22 -99q-18 -9 -33 1t-12 30q3 23 2 53.5t-23 58t-61 29.5q-4 -1 -11 -5t-27 -22t-39 -44t-43.5 -77t-43.5 -114.5t-35 -161.5t-23 -215q-1 -21 -3 -57t0 -129t12 -166t38 -138t72 -75q25 -3 46.5 -5t39.5 8t32 19.5t26.5 30.5t21.5 40.5t16.5 49.5t13 58t10 65
t7.5 70.5t6 75.5q0 39 4 121q-82 4 -129 -2q-26 6 -28 24q-3 13 8 25t22 16q21 2 49.5 4t100.5 5t82 -5q33 -12 35 -28q2 -11 -2.5 -23t-10.5 -12h-2q-7 -166 0 -345.5t21 -234.5q-2 -20 -8 -20q-2 0 -21.5 -1t-28.5 -1q-20 0 -46 14t-31 43q-7 26 -9 74z" />
    <glyph glyph-name="H" unicode="H" horiz-adv-x="765" 
d="M688 -205q-2 -20 -10 -20q-2 0 -28.5 -2t-39.5 -2q-27 0 -62 14t-44 43q-15 36 -23 123q-16 -1 -38.5 -1.5t-36 -1t-19.5 -1.5q-46 -4 -180 -4q-4 -82 -6 -95q-4 -77 -27 -77q-5 0 -16 -2.5t-17.5 -3.5t-12 5.5t-5.5 22.5q0 29 6 152h-53q-1 1 -2.5 3.5t-4.5 8.5t-4 11
t2.5 9t12.5 5q2 0 19 1t32 1q20 437 43 626q35 463 86 471q53 6 53 -84q0 -3 -22.5 -187.5t-46.5 -400t-27 -288.5q-4 -65 -8 -133q189 6 192 6q23 2 76 2q-11 160 2 364q17 207 65.5 433.5t76.5 283.5q7 10 16 10q117 0 115 -30q0 -3 -10.5 -83t-24 -196.5t-27 -251.5
t-21.5 -279.5t-5 -250.5q67 -7 67 -21q-11 -26 -31 -26h-34q6 -91 22 -154z" />
    <glyph glyph-name="I" unicode="I" horiz-adv-x="423" 
d="M389 -170q35 -8 37 -20q2 -10 -1.5 -18.5t-10.5 -8.5q-2 0 -20 -2t-29 -2q-6 2 -56 2l-4 -4q-21 0 -61 -4q-20 0 -41 8q-14 0 -39.5 -1t-36.5 -1q-68 -7 -72 16q1 3 3.5 8.5t16 14.5t34.5 10q16 0 41 2q-44 173 -27 524q10 198 34.5 399.5t43.5 274.5q-10 -1 -29 -1.5
t-35 -1.5t-31 -3q-51 -2 -55 14q-1 3 -0.5 8.5t10.5 15.5t31 13q11 1 30 2.5t71 5.5t97.5 5.5t96.5 1t80 -4.5q2 0 5.5 -1t12.5 -4.5t15.5 -7t11.5 -8.5t4 -11q-4 -36 -53 -33q-3 0 -113 8q-6 -54 -14 -147t-19.5 -253.5t-18.5 -304.5t-6.5 -282.5t13.5 -204.5q68 0 84 -4z
" />
    <glyph glyph-name="J" unicode="J" horiz-adv-x="690" 
d="M580 340q-3 -44 -9 -111t-32 -194t-60 -160q-46 -42 -131.5 -77t-134.5 -17q-8 2 -21 7t-44.5 28t-54 54.5t-36.5 92t-4 135.5q6 46 30 85t52 65t77.5 53t83.5 41.5t92 37.5q19 7 28 11q22 335 22 635q-23 -2 -73 -6q-46 -4 -48 14q1 1 0 7.5t8 16t27 13.5q10 1 26.5 2.5
t62 5.5t85 6t84 2t70.5 -4q43 -12 43 -32q-8 -36 -47 -33q-6 0 -35.5 2.5t-52.5 3.5q7 -57 7.5 -203t-7.5 -334q33 26 49 66q2 5 5 12t13.5 18t20.5 9q12 -4 13.5 -17t-3.5 -25l-4 -11q-2 -6 -7 -17t-29.5 -41.5t-59.5 -56.5q-3 -40 -6 -84zM221 -158q2 0 6 -0.5t16.5 1
t24 5.5t27.5 15.5t29 29t25 47.5t20 68q28 136 43 324q-143 -58 -187 -83q-85 -49 -102 -106q-29 -102 2.5 -196t95.5 -105z" />
    <glyph glyph-name="K" unicode="K" horiz-adv-x="696" 
d="M281 600q-49 -671 0 -803q-3 -20 -11 -20q-19 0 -59 -4q-24 0 -55 13t-39 42q-8 28 -15.5 79t-15 173t3.5 274q8 155 25.5 320.5t34.5 268t26 108.5q10 14 34.5 19.5t48 3.5t41.5 -12t17 -24q-11 -80 -28 -329q53 82 136 198.5t120 151.5q5 4 12.5 10.5t23 16t21.5 6.5
q11 -5 18 -16.5t1 -20.5l-19 -28.5t-29 -39.5q-5 -7 -45 -58.5t-98 -127t-100 -131.5q107 -64 176 -183q56 -100 77 -160t38 -169q1 -6 7.5 -53t14 -92t17.5 -96t23 -85t26 -39q1 -3 0.5 -7.5t-13 -10.5t-37.5 -2q-25 3 -40.5 6t-42.5 16.5t-43 35t-28 64.5t-11 101
q3 92 -8 188.5t-21 141t-19 73.5q-7 34 -55 108.5t-102 104.5q-1 -2 -4 -6t-4 -6z" />
    <glyph glyph-name="L" unicode="L" horiz-adv-x="448" 
d="M113 -172q-8 28 -15.5 79t-15 173t3.5 274q8 155 25.5 320.5t34.5 268t26 108.5q10 14 34.5 19.5t48 3.5t41.5 -12t17 -24q-3 -25 -11 -115t-20.5 -250.5t-20.5 -315t-8 -302.5t13 -219q43 -6 115 -6.5t84 2.5q92 8 113 8q8 0 17 -1t20 -3.5t15.5 -9.5t0.5 -16
q-5 -12 -32.5 -20t-52.5 -10l-24 -1q-90 -12 -250 8q0 -10 -6 -10q-19 0 -59 -4q-23 0 -54.5 13t-39.5 42z" />
    <glyph glyph-name="M" unicode="M" horiz-adv-x="1048" 
d="M274 -10q3 -124 25 -195q-2 -20 -10 -20q-3 0 -29 -2t-39 -2q-28 0 -63.5 13.5t-44.5 43.5q-6 20 -11.5 51t-13 103.5t-6.5 159t8 218.5q17 208 65 434t76 283q3 10 17 10q116 0 114 -30q0 -2 -5 -38t-12 -92t-15.5 -126t-17.5 -158t-17 -170q105 465 225 465q5 1 12.5 0
t26.5 -14.5t32.5 -39.5t24 -85t7.5 -142q-4 -102 -12.5 -203t-16.5 -160t-16 -116t-9 -65q6 35 17 94.5t45 213t67.5 274t80 227.5t87.5 125q4 2 10 4.5t23.5 6t33 3t34.5 -10t32 -28.5t21 -56t6 -89l-33 -325q-62 -707 4 -753q8 -2 1 -15q-7 -10 -19 -11q-4 2 -19.5 0
t-39 1.5t-46 9t-42 21t-25.5 39.5q-14 46 -23.5 123.5t-8.5 189.5t20 212q85 439 94 543q6 68 -6 69q-22 3 -53.5 -69t-62.5 -182.5t-63 -241t-56 -242.5t-41 -190.5t-19 -82.5q-8 -10 -25.5 -9t-34.5 7l-18 6q-23 3 -38.5 28.5t-22 68.5t-8.5 95t2.5 114.5t10 119t14.5 117
t15 101t13 77.5q13 71 15 115t-3 53l-4 8q-51 -37 -95.5 -162t-72 -282.5t-42 -263t-20.5 -176.5z" />
    <glyph glyph-name="N" unicode="N" horiz-adv-x="784" 
d="M723 -201q8 -2 1 -15q-7 -10 -17 -11q-5 2 -20.5 0t-39 1.5t-46.5 9t-42.5 21t-26.5 39.5q-13 48 -23 124t-9 189t20 212q48 245 77.5 433t10.5 179q-48 -22 -126.5 -254.5t-137 -503.5t-57.5 -401q3 -15 6 -27q-2 -20 -10 -20q-2 0 -28.5 -2t-39.5 -2q-27 0 -63.5 14
t-45.5 43q-9 30 -16 79.5t-13 174.5t9 278q16 207 63.5 433t75.5 284q7 10 17 10q116 0 114 -30q0 -4 -9 -69t-21 -163.5t-24 -214.5t-22 -248t-12 -239q25 117 53.5 232.5t75 278.5t98 276t97.5 137q4 2 10 4.5t23.5 6t33 3t34.5 -10t32.5 -28.5t22 -56t6.5 -89l-33 -323
q-65 -710 2 -755z" />
    <glyph glyph-name="O" unicode="O" horiz-adv-x="919" 
d="M475 -227q-72 7 -128 37.5t-90.5 77t-59 105t-34 121.5t-14 126t-1 118.5t7 98.5t8.5 69l4 25q15 105 45 191.5t66.5 140.5t77 94.5t78.5 60t68.5 31.5t48.5 14l19 2h14t32 -5.5t42.5 -16t38.5 -35.5t27 -59q4 -51 -12 -84q55 -34 91 -105t48.5 -148t17 -149t1.5 -119
l-3 -47q-9 -95 -27.5 -174.5t-43.5 -133t-54.5 -96t-60 -67t-61 -41.5t-56.5 -23t-46.5 -8.5t-32.5 -1.5zM575 1042q-4 -1 -11 -5t-27 -22t-39 -44t-43 -77t-43 -114.5t-35 -161.5t-23 -215q0 -7 -1 -18.5t-2 -48t-1 -72t2 -84.5t6.5 -91.5t13.5 -87t22 -77.5t33.5 -56.5
t45.5 -29.5q132 -30 228.5 95t111.5 341q10 99 1.5 179t-20.5 138t-36 102t-44 71.5t-44.5 47t-38.5 27.5t-26 13l-3 1.5t-2 0.5q-26 12 -19.5 36.5t33.5 24.5q30 -4 45 -8q1 19 -2.5 40t-12 43t-26.5 36.5t-43 15.5z" />
    <glyph glyph-name="P" unicode="P" horiz-adv-x="583" 
d="M268 330q-4 -406 43 -535q-2 -20 -8 -20q-3 0 -29.5 -2t-40.5 -2q-25 0 -61.5 14t-46.5 43q-10 26 -21.5 78t-22.5 177.5t-7 276.5q5 208 41.5 434.5t62.5 282.5q3 10 15 10q116 0 116 -30q0 -4 -2 -30t-6.5 -78t-7.5 -103q36 46 73 85t83.5 80t95.5 61.5t90 14.5
q83 -14 106.5 -103.5t-10 -204t-104.5 -204.5q-168 -212 -359 -245zM287 762q-13 -238 -17 -371q119 59 222 225q31 52 62.5 138t43 163.5t-24.5 96.5q-59 26 -286 -252z" />
    <glyph glyph-name="Q" unicode="Q" horiz-adv-x="874" 
d="M670 -113q46 -31 68 -49.5t16 -25.5q-3 -2 -7.5 -4t-17 -5t-20.5 4q-28 18 -72 46q-46 -42 -100 -62t-85 -19l-30 1q-79 7 -139.5 43.5t-96.5 95t-56 122.5t-28 140l-55 35q1 1 -1 11t5 17.5t23 0.5q1 0 9 -5.5t15 -9.5q-5 89 -0.5 161.5t12.5 119.5l7 47
q14 105 44 191.5t66.5 140.5t77.5 94.5t78.5 60t68.5 31.5t50 14l18 2h14t32 -5.5t42 -16t38 -35.5t26 -59q6 -51 -10 -84q55 -34 91 -105t48.5 -148t17 -149t1.5 -119l-3 -47q-26 -292 -147 -430zM420 -162q98 -21 176 39q-186 117 -219 131q-35 21 -66 39
q29 -190 109 -209zM631 -88q114 123 129 362q10 99 1.5 179t-20.5 138t-36 102t-44 71.5t-44.5 47t-38.5 27.5t-26 13l-3 1.5t-2 0.5q-25 12 -18.5 36.5t32.5 24.5q30 -4 45 -8q1 19 -2.5 40t-11.5 43t-26.5 36.5t-43.5 15.5q-4 -1 -11 -5t-27 -22t-39 -44t-43 -77
t-43 -114.5t-35 -161.5t-23 -215q-10 -152 4 -297q76 -45 113 -65q13 -8 92.5 -55.5t120.5 -73.5z" />
    <glyph glyph-name="R" unicode="R" horiz-adv-x="690" 
d="M721 -188q4 2 14.5 -6t12.5 -17t-13 -16q-7 -3 -24.5 -2.5t-43.5 5.5t-54.5 16t-58 30t-54 48t-43 69.5t-25 95t1.5 123.5q3 51 -33 100q-36 41 -137 53q-4 -392 43 -516q-2 -20 -10 -20q-2 0 -27.5 -2t-40.5 -2q-25 0 -61.5 14t-46.5 43q-10 26 -21.5 78t-22.5 177.5
t-7 276.5q5 208 41.5 434.5t62.5 282.5q3 10 14 10q117 0 117 -30q0 -4 -2 -30t-6.5 -78t-7.5 -103q36 46 73 85t83.5 80t95.5 61.5t90 14.5q82 -14 105.5 -103.5t-9.5 -204t-104 -204.5q-144 -181 -316 -235q33 -6 64.5 -16.5t65 -27.5t57 -45t30.5 -63q16 -79 48 -164.5
t73.5 -149.5t75.5 -62zM283 762q-16 -292 -17 -371q118 58 221 225q31 52 63 137.5t43.5 163.5t-24.5 97q-59 26 -286 -252z" />
    <glyph glyph-name="S" unicode="S" horiz-adv-x="808" 
d="M731 57q-2 -6 -5.5 -17t-18.5 -42.5t-33 -59.5t-50 -61.5t-69 -56.5t-91 -36.5t-114 -8.5q-13 1 -34.5 4t-74.5 24t-90.5 55t-61 106t-7.5 167q1 7 4 18.5t15 41.5t28.5 54.5t47 47.5t67.5 29q35 3 35 -13q0 -15 -14.5 -22t-34.5 -11t-27 -10q-14 -13 -29 -33t-32 -71
t-17 -111q0 -95 63 -152t185 -46q73 7 118 72t54.5 150.5t-6 176t-54.5 149.5q-19 30 -61 72t-80 80.5t-73.5 84t-51.5 99t-4 107.5q11 55 44.5 100.5t73 70.5t82 42.5t69.5 23.5t38 6q1 -2 12 0t28.5 -4.5t34 -16.5t28 -35.5t10.5 -61.5q-1 -6 -4 -16t-17 -25t-34 -13
q-18 1 -20 21t3.5 41t-0.5 35q-1 4 -4 10t-15 16t-28 9q-34 0 -86.5 -36.5t-71.5 -84.5q-18 -46 19.5 -109.5t101.5 -124.5q27 -26 53.5 -55t58.5 -70t56.5 -83t48.5 -94.5t34 -104t13.5 -111.5t-12.5 -117z" />
    <glyph glyph-name="T" unicode="T" horiz-adv-x="509" 
d="M440 999q-5 -44 -16 -184.5t-25 -358t-13 -408t24 -251.5q-3 -20 -11 -20q-21 0 -57 -4q-24 0 -55.5 13t-40.5 42q-8 28 -15.5 79t-15 173t3.5 274q11 224 39 441.5t43 242.5h-260q-1 1 -2.5 3.5t-4.5 8.5t-4 11t2.5 9t12.5 5q34 4 322 15q11 0 40 0.5t47 1t47.5 1
t49.5 0t45 -1t41 -2t30.5 -4t21.5 -6t7 -8.5q-10 -29 -30 -29q-2 0 -37 0.5t-72.5 0.5h-84.5t-77 -1q45 -17 45 -43z" />
    <glyph glyph-name="U" unicode="U" horiz-adv-x="815" 
d="M758 598q-10 -240 -48.5 -413t-85.5 -249t-92.5 -117.5t-76.5 -43.5l-31 -2q-61 -3 -112.5 15.5t-85.5 51.5t-61 77t-42 93.5t-25.5 99t-13.5 94.5t-4.5 80t-0.5 56l1 20q4 206 40.5 432t61.5 285q3 10 17 10q116 0 116 -30q-35 -345 -41 -705l-2 -127q5 -334 96 -401
q23 -17 52 -14q51 5 91.5 44t67 103.5t45 142t27.5 168.5t12.5 172t2.5 164q-8 465 43 477q18 4 30 -3.5t18 -26t7.5 -25.5t3.5 -22q2 -5 -10 -406z" />
    <glyph glyph-name="V" unicode="V" horiz-adv-x="579" 
d="M399 -158q3 -5 8.5 -15t8.5 -15q2 -23 -6 -23q-29 -7 -68 -14q-24 -5 -62.5 2.5t-54.5 34.5q-16 30 -34 77t-50 172.5t-53 276.5q-19 140 -25 305t-2 276t13 148q3 10 14 14q114 24 121 -10q5 -81 16 -214.5t46.5 -410t76.5 -442.5q66 406 115 623q88 463 141 463
q24 1 35 -19t9.5 -40t-1.5 -30q0 -4 -44 -187t-92.5 -396.5t-59.5 -286.5q-42 -235 -48 -272q-1 -3 -2 -8.5t-2 -8.5z" />
    <glyph glyph-name="W" unicode="W" horiz-adv-x="866" 
d="M780 471q-18 -223 -45.5 -388t-44.5 -219t-26 -67q-9 -16 -37 -22.5t-68 8.5q-14 6 -27 26t-20 37l-6 17q-20 65 -49 356q-5 -69 -13.5 -129t-25 -122.5t-37.5 -105.5t-54 -68.5t-73 -20.5q-60 7 -105.5 113t-68.5 259t-25 326q-1 132 17 279.5t36 229.5l19 81q2 3 5.5 7
t15.5 10t24 5q4 0 19 1t25 0.5t23 -3t23 -10t17 -20.5q-42 -304 -46 -590q-3 -226 24.5 -411t66.5 -179q86 13 106 637l-18 203q-1 45 6 77t17 45.5t21.5 22t21 6.5t14.5 -2q62 -31 88 -145q30 -122 41 -750q2 -48 4.5 -80t4.5 -39l1 -8q43 55 81 460t25 579
q-2 27 -5.5 62.5t-6 56t-2 41t5.5 30.5q19 36 59 16q8 -3 12.5 -47t1 -191.5t-21.5 -373.5z" />
    <glyph glyph-name="X" unicode="X" horiz-adv-x="575" 
d="M389 381q70 -268 277 -569q6 -23 -2 -23q-33 -8 -66 -14q-26 -5 -64.5 2.5t-58.5 34.5q-3 6 -30.5 40.5t-57.5 76t-70.5 117t-70.5 159.5q-107 -302 -121 -363q-3 -6 -7 -15.5t-15.5 -24.5t-20.5 -13q-15 5 -27.5 34t-9.5 58q3 23 54 151.5t114 270.5q-3 12 -10 35
q-52 201 -74 431.5t-14 303.5q3 9 12 12q28 6 66 -0.5t43 -27.5q1 -2 14.5 -70t38.5 -183.5t51 -225.5q26 53 92.5 196t101.5 214t52 95q39 17 39 -6q0 -9 -40 -95t-109.5 -234t-115.5 -252q3 -12 29 -115z" />
    <glyph glyph-name="Y" unicode="Y" horiz-adv-x="708" 
d="M678 868q3 -16 2.5 -68.5t-3.5 -133t-14 -176t-27.5 -195t-45.5 -192t-66.5 -165.5t-93 -118t-121.5 -47q-3 0 -9 -0.5t-24 2t-35.5 9t-41 22.5t-43.5 39.5t-40.5 63t-33.5 89.5q-1 6 -2.5 16t-2.5 36.5t2 48t15 41t33 24.5q3 -1 6.5 -3.5t9 -13t2.5 -24.5
q-3 -15 -4.5 -46.5t3.5 -81.5t19 -92.5t49 -72t87 -27.5q5 0 14.5 1.5t34.5 19t46.5 49t45.5 102t37 166.5q22 147 29 373q-21 -74 -52 -130.5t-59.5 -83t-54.5 -42.5t-42 -19l-15 -3q-47 -1 -85 19t-61.5 52t-41 71t-25.5 78.5t-13 72t-5 53.5l-1 20q-4 144 17.5 280
t40.5 193q7 10 16 10q37 3 77 -2.5t40 -25.5q1 -6 -0.5 -74t-2.5 -164t1 -217v-25.5v-59.5t4 -80.5t10 -75.5t19 -59t30 -17q66 14 124.5 137.5t78.5 368.5q0 155 2 167q0 1 0.5 2.5t1.5 6.5t2.5 9.5t3.5 11t4 12t5 10.5t5.5 9t6 6t6.5 1l9 -2q8 -2 15 -4t19 -7t22 -12
t22 -19.5t20.5 -27.5t16 -37.5t11.5 -48.5z" />
    <glyph glyph-name="Z" unicode="Z" horiz-adv-x="561" 
d="M219 -150q141 2 284 -3t148 -23q5 -21 -15 -34.5t-38 -16.5l-58 3q-57 3 -152.5 7t-180.5 6v-2q-2 -3 -5.5 -6.5t-16.5 -9.5t-29 4q-28 7 -62 26q-25 13 -51.5 39.5t-22.5 57.5q3 27 29.5 114.5t88.5 237.5t136 280q210 369 326 510q-51 0 -61 -2q-18 -2 -96 -2t-147 1
l-69 1q-1 1 -2.5 3.5t-4.5 9t-4 11.5t2.5 9.5t12.5 5.5q132 8 322 8q27 2 90 2q9 6 19 3q36 -15 68.5 -37t23.5 -41q-1 -1 -24 -37.5t-53 -84.5t-73 -122.5t-86 -153.5t-89.5 -176.5t-85.5 -191.5t-72.5 -198.5t-51.5 -197.5z" />
    <glyph glyph-name="bracketleft" unicode="[" horiz-adv-x="296" 
d="M274 -57q8 -2 15 -9q3 -8 -13 -16q-14 -7 -45 -12q-22 -4 -43 -2q-18 0 -28 2q-18 3 -39 12q-7 2 -23 14q-11 11 -20 23q-8 13 -15 31q-6 15 -6 32v9v6q0 2 -1 6t-1 6v31q-1 9 -2 30.5t-2 32.5q0 23 -2 33v37q0 6 -1 18.5t-1 18.5v39v41v39v81v84q0 55 2 82q0 55 2 82v21
v18q2 14 2 39q4 54 4 74v16q0 3 1 9.5t1 9.5q0 22 2 32q3 39 9 64q4 22 8 31q2 5 6 14t6 14q2 0 2 2q0 1 4 9l4 4q1 1 2 3t2 3t3.5 3t3.5 3t4 3t4 3q4 0 8 4q4 0 6 2h6q1 1 5 2t6 2h2h2h2h4h35q29 -3 59 -10q25 -7 25 -18q0 -13 -19 -23q-11 -7 -47 -14q-3 -1 -9 -2t-9 -2
t-8.5 -2t-8.5 -2q-1 0 -4 -1t-4 -1q-3 -3 0 -3v0v-2h-2v-4l-2 -2v-2q-1 -4 -3 -11t-3 -11q-4 -32 -6 -60q0 -25 -2 -41v-14v-14v-31q-5 -107 -5 -150q0 -14 -1 -43t-1 -45v-92q-2 -61 -2 -190q0 -8 -1 -23.5t-1 -23.5v-45v-45v-46v-43q0 -6 -1 -19t-1 -19v-5v-4v-6
q0 -1 1 -2t1 -2v-2v-4l2 -2q0 -7 9 -16q6 -6 8 -7q2 -2 10 -6q4 -1 12.5 -4t12.5 -4q12 -3 47 -8q28 -8 32 -10z" />
    <glyph glyph-name="backslash" unicode="\" horiz-adv-x="368" 
d="M31 1065q10 3 23 -13.5t24 -43.5l24 -64q3 -7 9 -22t8 -19q5 -19 16 -49q2 -6 6 -17.5t7 -21t6 -18.5q1 -4 4 -14t4 -17l5.5 -16.5t4.5 -14.5q34 -116 76 -272q30 -112 65 -258q4 -21 12 -55.5t11 -47.5q4 -13 8 -39q6 -15 6 -28q15 -86 6 -117q-3 -6 -6.5 -9t-5.5 -3h-2
q-21 -3 -66 121q-25 68 -88 280q-1 4 -18.5 67t-24.5 95q-31 114 -41 152q-7 27 -19.5 71t-14.5 53t-15 48q-9 33 -10 36q-14 46 -16 56l-6 24l-7 21q-10 48 -10 71q-3 58 25 64z" />
    <glyph glyph-name="bracketright" unicode="]" horiz-adv-x="296" 
d="M250 696q0 -27 2 -39v-41v-81q-2 -27 -2 -82v-84q-2 -27 -2 -82q0 -3 -1 -9.5t-1 -9.5v-20q0 -6 -1 -19.5t-1 -19.5q-1 -13 -2 -37t-2 -37v-16q0 -3 -1 -8.5t-1 -8.5q0 -22 -2 -34q-3 -34 -9 -64q-4 -22 -8 -31q-4 -15 -12 -26q0 -2 -2 -4q0 -2 -4 -6q-1 -1 -2 -3.5
t-2 -3.5t-2 -3t-2 -3t-3.5 -3t-3.5 -3l-8 -4q-4 -4 -8 -4q-2 -2 -6 -2q-1 0 -2 -1t-2 -1q-2 0 -6.5 -1t-6.5 -1h-2h-2h-2q0 -2 -4 -2h-33q-39 3 -59 12q-27 7 -27 16q3 15 19 23q18 11 49 16q2 0 7.5 1t8.5 1q12 4 17 4q4 2 8 2l2 3v2v0v0v2q0 2 2 4v2v2q2 6 6 22q3 21 6 60
q0 4 1 18t1 23v12v16q0 19 2 31q0 18 1.5 68.5t1.5 81.5q0 13 1 41.5t1 44.5v92q2 63 2 192q0 7 1 22.5t1 22.5v47v45v43v44q0 7 1 20t1 20v3v4v6l-2 4v4v2v2h-2q0 7 -9 16q-6 6 -8 7q-2 2 -10 6q-7 4 -25 8q-31 8 -47 10l-32 8q-13 6 -13 11q-6 6 10 14q20 10 46 12
q20 4 43 4q18 0 30 -2q17 -3 37 -12q18 -9 23 -16q11 -8 20 -23q11 -15 14 -29q7 -21 7 -32v-9q0 -1 1 -3.5t1 -4.5v-12q0 -19 2 -29q0 -10 1 -30.5t1 -32.5q0 -6 1 -17.5t1 -17.5v-37q2 -12 2 -37v-39z" />
    <glyph glyph-name="grave" unicode="`" horiz-adv-x="184" 
d="M156 1126q2 -2 6 -10v-10l-4 -10q-2 -5 -11 -9q-1 0 -3.5 -1t-4.5 -1h-8q-13 2 -43 17q-27 18 -37 28q-5 5 -10 12.5t-7 11.5l-3 5q-5 15 -4.5 24.5t3.5 12.5l3 4q8 6 18 6l10 -4q13 -9 52 -39q5 -4 13.5 -11.5t12.5 -10.5q13 -6 17 -15z" />
    <glyph glyph-name="a" unicode="a" horiz-adv-x="614" 
d="M233 55q-41 -22 -76 -14t-58 29l-23 22q-43 50 -51 139.5t36 198.5q18 39 44 68t52 42t53.5 21.5t47 7t33.5 -1.5q18 -2 37.5 -38t29.5 -71l11 -36q37 151 63 194q24 36 53 53t74 9q18 -3 23.5 -35.5t-0.5 -76t-14.5 -86.5t-16.5 -73l-8 -30q-18 -88 -22 -168t0.5 -124
t11 -82.5t6.5 -45.5q0 -16 -4.5 -19.5t-13 -1.5t-11.5 1q-7 -2 -15 -1t-15 3l-7 2q-22 8 -47.5 80t-26.5 153q-2 52 9 128t22 126l12 51q-13 -17 -54 -117.5t-85 -195.5t-70 -111zM281 532q-23 2 -58 -59t-59 -151q-16 -64 -13.5 -108t16.5 -66t32 -19t33 17.5t30.5 44
t26 54.5t29.5 72t30 74q-2 6 -4.5 15t-10.5 33t-16 42.5t-18 34t-18 16.5z" />
    <glyph glyph-name="b" unicode="b" horiz-adv-x="540" 
d="M168 84q-4 6 -18.5 10.5t-30.5 14t-25 28.5q-24 51 -41 169t2 272q13 106 54 222t68.5 168.5t51.5 92.5q12 18 28.5 29.5t41 22.5t27.5 13q8 2 21 0.5t27.5 -15t26 -30.5t17 -46.5t0.5 -63.5q-14 -93 -66 -193.5t-119 -124.5q-34 -210 -34 -319q12 43 28 82t39.5 79.5
t54.5 66t66 28.5q5 0 13.5 -1.5t30.5 -9.5t39.5 -20t33.5 -35.5t20 -54.5q4 -27 -5.5 -74.5t-30 -103t-53.5 -111.5t-72.5 -99.5t-91 -66.5t-105.5 -14q-9 2 -22.5 6t-36.5 20t-25 35l6 10q4 4 10 3q3 0 29.5 -9t42.5 -8q13 2 35 15t52 39.5t60.5 77t51.5 114.5
q74 233 34 250q-8 3 -27 -9.5t-45.5 -45t-51 -78t-44.5 -119.5t-26 -160v-30q0 -21 -6 -29q-25 -14 -35 2zM301 967q-28 -97 -59 -267q74 49 112 168q2 6 4.5 15t9.5 36.5t10 46.5t5.5 45.5t-4.5 32.5q-14 31 -41 4q-23 -25 -37 -81z" />
    <glyph glyph-name="c" unicode="c" horiz-adv-x="434" 
d="M213 29q-31 2 -62 12.5t-61.5 32.5t-51.5 53t-30.5 78t-1.5 104q6 74 39 137q99 183 225 154q3 -1 8.5 -2.5t18.5 -8t23 -14.5t16.5 -22t3.5 -31q-2 -5 -4.5 -12t-12.5 -17.5t-20 -7.5q-28 8 -16 68q3 12 -6 11q-20 -3 -49 -50q-45 -75 -70 -209q-1 -9 -3 -24.5t-3 -54.5
t3 -69t18.5 -55.5t39.5 -27.5q58 -4 111.5 35t70.5 73q2 2 6 4.5t14 5.5t15 -8q5 -15 -0.5 -25.5t-5.5 -11.5q0 -4 -11.5 -17.5t-33 -31t-47.5 -34t-59 -27t-64 -8.5z" />
    <glyph glyph-name="d" unicode="d" horiz-adv-x="540" 
d="M483 338q-14 -161 -5.5 -224.5t26.5 -102t18 -44.5q0 -16 -4.5 -19.5t-12.5 -1.5t-11 1q-8 -2 -21 -0.5t-26 3.5l-13 3q-26 11 -49.5 41.5t-32.5 81.5q-8 51 -5.5 102t9.5 89l6 38q-9 -19 -25 -63.5t-28 -75t-36 -63.5t-54 -48q-45 -18 -80.5 -9.5t-57.5 27.5l-22 19
q-27 33 -41 74.5t-10 102t33 126.5q22 49 55.5 80.5t68.5 42.5t59.5 13.5t45.5 0.5q19 -3 40 -26t32 -44l12 -22q100 660 176 662q28 1 52 -11t38 -29.5t21 -29.5t10 -20q0 -2 -32 -96.5t-74.5 -259.5t-61.5 -318zM186 111q41 6 77 66t81 210q-53 105 -82 109q-23 3 -58 -58
t-59 -153q-17 -63 -12 -102.5t19.5 -56.5t33.5 -15z" />
    <glyph glyph-name="e" unicode="e" horiz-adv-x="432" 
d="M45 422q16 28 36 54.5t50.5 56.5t70.5 44t81 5q2 -1 6 -2.5t15.5 -7t20 -13t20.5 -20t17 -27t9 -35t-4 -43.5q-16 -64 -83 -98t-118 -25q-4 -16 -6 -26q-1 -9 -2.5 -23.5t-2.5 -52.5t3.5 -67.5t19 -54t39.5 -26.5q58 -4 111.5 34.5t68.5 70.5q19 20 29 0q6 -14 -2 -37
q-1 -4 -12 -16.5t-32 -29.5t-46.5 -32.5t-58.5 -25t-64 -7.5q-39 2 -77 19t-72 47.5t-51 84t-7 120.5q6 72 41 133zM299 537q-9 2 -20 2.5t-24.5 -12t-26.5 -32t-27.5 -57t-26.5 -86.5q94 5 123 51q28 43 27 82t-25 52z" />
    <glyph glyph-name="f" unicode="f" horiz-adv-x="368" 
d="M59 782q24 -14 47 -24q29 85 62 147q48 88 111 127.5t100 18.5q21 -11 37.5 -27.5t30.5 -43t13.5 -67.5t-18.5 -90q-12 -35 -37 -60t-55.5 -38t-55.5 -19t-50 -8q-26 -124 -33 -211q-2 -16 -2 -47q45 -23 67 -49q15 3 21 6q11 3 22 11t18.5 13t12.5 3t6 -9t0 -13l-2 -7
q-10 -23 -53 -41q16 -34 28 -86.5t15 -88.5l4 -36q-4 -81 -14.5 -144t-24.5 -101.5t-31.5 -64.5t-34 -37t-34.5 -13t-31.5 2t-25.5 12q-22 16 -42.5 61t-29.5 82l-10 37q-27 194 -23 377q-33 14 -49 36.5t-14.5 43t8.5 37.5q9 20 63 16q11 111 41 234l-15 7.5t-15 8.5
q-3 2 -7 6t-10.5 13.5t-5.5 15.5q1 7 5 9.5t8 1.5zM51 434q2 4 2 17q-32 4 -35 -15q-5 -25 31 -47zM301 209q-18 94 -41 133q-32 -8 -57 -8q-15 -438 33 -459q2 3 7.5 -0.5t19 17.5t24.5 65q38 147 14 252zM231 381q-8 8 -24 20q-2 -8 -2 -26q10 2 26 6zM354 1014
q-14 -3 -43.5 -82.5t-56.5 -190.5q63 5 104 31t60 92q8 29 -2.5 67t-29 62t-32.5 21z" />
    <glyph glyph-name="g" unicode="g" horiz-adv-x="520" 
d="M461 -41q-11 -51 -25 -97.5t-33.5 -92.5t-41.5 -79t-49 -57.5t-57.5 -27.5t-66.5 10q-4 2 -10 6.5t-20.5 21t-25 36t-16.5 52.5t-1 70q11 81 84.5 140t150.5 73q10 74 13 150t1 116l-2 39q-7 -16 -30 -85.5t-48.5 -113.5t-64.5 -65q-24 -13 -49.5 -13t-44.5 8t-34.5 18.5
t-23.5 19.5l-8 8q-27 34 -41 78t-9.5 107.5t34.5 132.5q17 42 43 72.5t51.5 44t52.5 22.5t46.5 7.5t33.5 -1.5q19 -3 40 -27.5t32 -47.5l12 -23q4 37 27 41q15 4 31.5 -3.5t21.5 -19.5q5 -10 10.5 -23.5t17 -48.5t17 -72t10.5 -93t-2 -111q-9 -86 -18 -127q45 -19 45 -47
q8 -33 -6 -33q-8 0 -47 35zM186 106q41 5 81 72.5t83 224.5q-59 113 -88 117q-23 3 -58 -61.5t-59 -161.5q-16 -66 -11.5 -109t19 -64t33.5 -18zM211 -291q41 -36 75 41t58 223q-64 -15 -90 -39q-51 -42 -71 -85t-11.5 -77.5t39.5 -62.5z" />
    <glyph glyph-name="h" unicode="h" horiz-adv-x="462" 
d="M442 35q3 -2 7.5 -5.5t10 -12.5t1.5 -17q-3 -6 -17.5 -7.5t-33.5 5.5t-37 22.5t-29 48.5t-8 78q2 38 8 99.5t9.5 104t4.5 85.5t-7 65t-25 21q-30 0 -75.5 -141.5t-62.5 -257.5q0 -21 -6 -27q-2 -2 -6 -4t-13.5 -5.5t-12.5 1.5q-5 2 -15.5 2.5t-20.5 0t-21 12t-17 38.5
q-1 2 -7.5 25t-10.5 40.5t-11 49t-10.5 64t-6.5 72.5t-1 86t8 93q13 103 51.5 210t66.5 158t50 83q19 30 50.5 54t59.5 28q32 4 64 -34.5t20 -115.5q-14 -91 -65.5 -188t-118.5 -121q-37 -216 -35 -330q55 258 137 265q2 0 5 0.5t12.5 1.5t18 -1t21 -5.5t21 -11.5t19 -20.5
t14.5 -31.5t7 -44.5t-3 -59.5q-43 -356 10 -373zM360 1038q-16 30 -44 -8q-20 -29 -35 -78q-50 -217 -58 -262q75 50 113 166q2 6 4.5 15.5t9.5 38t9.5 48.5t5 47t-4.5 33z" />
    <glyph glyph-name="i" unicode="i" horiz-adv-x="186" 
d="M143 457q-1 -14 -2.5 -95.5t-3.5 -130.5q-2 -35 -2 -81.5t-1 -70.5t-5 -26q-47 -9 -53 -4q-49 0 -53 29q-4 31 -6.5 129.5t3.5 161.5q8 57 23 110t25 53q5 0 17 1.5t20 1.5t12 -3q8 -8 17 -30.5t9 -44.5zM33 631q12 38 73 20q21 -6 41.5 -23t8.5 -30q-12 -14 -34.5 -20.5
t-31.5 -2.5q-8 3 -18.5 8t-26.5 19.5t-12 28.5z" />
    <glyph glyph-name="j" unicode="j" horiz-adv-x="219" 
d="M145 4q45 -19 45 -47q8 -33 -6 -33q-5 0 -49 35q-12 -49 -26.5 -93t-34 -87.5t-42.5 -74.5t-50.5 -53.5t-58 -25.5t-66.5 10q-4 2 -10 7t-21 22t-25.5 37t-16.5 53t-1 70q11 79 86.5 129t157.5 63q10 73 13 148.5t1 115.5l-2 39q4 193 29 195q2 0 13 2.5t18.5 3.5t20.5 2
t22 -1.5t18 -7t14 -15t6 -25.5q6 -115 -14 -342q-6 -58 -21 -127zM-121 -268q49 -42 93 60q30 69 48 183q-78 -12 -108 -36q-45 -35 -66.5 -65.5t-19 -55.5t15 -44t37.5 -42zM113 557q-7 2 -17 6.5t-24.5 18t-10.5 26.5q9 32 66 19q19 -6 36.5 -21.5t6.5 -27.5t-30.5 -18.5
t-26.5 -2.5z" />
    <glyph glyph-name="k" unicode="k" horiz-adv-x="423" 
d="M154 88q-5 2 -15.5 2.5t-20.5 0t-21 12t-17 38.5q-1 5 -8 31t-13 49.5t-12.5 64.5t-10 81t-2.5 94.5t7 109.5q30 235 168 451q19 30 51 54t62 28q32 4 63 -34.5t18 -115.5q-12 -89 -64.5 -187t-119.5 -122q-22 -125 -31 -231q20 48 43 88.5t61 76t75 33.5
q40 -3 58.5 -26.5t16 -53.5t-9 -53.5t-12.5 -32.5q-13 -22 -48.5 -56t-80.5 -54q23 -13 31 -41q6 -19 17.5 -80t24 -106.5t27.5 -57.5q4 -1 9.5 -4t13.5 -11.5t4 -17.5q-6 -18 -35 -19t-41 17q-11 16 -29.5 82t-21.5 95q-13 116 -107 122q3 -43 9 -73q2 -103 2 -119
q0 -18 -7 -27q-2 -2 -6 -4t-14 -5.5t-14 1.5zM379 567l-10 2.5t-17 -4t-23 -13t-27.5 -23t-30.5 -34.5t-32.5 -48t-33.5 -64q135 14 176 117q14 53 -2 67zM365 1038q-15 28 -41 -4q-23 -28 -37 -82q-32 -112 -60 -262q74 46 113 166q2 6 4.5 15.5l10 38t10.5 48.5t5 47
t-5 33z" />
    <glyph glyph-name="l" unicode="l" horiz-adv-x="215" 
d="M106 -37q-7 1 -16 16t-14 29l-6 15q-16 57 -31.5 231.5t-7.5 329.5q8 164 38 316.5t50 203.5q17 36 58.5 62t68.5 30q33 2 72 -41.5t30 -126.5q-15 -134 -66 -298.5t-116 -219.5q-18 -310 6 -483q2 -14 2 -24.5t-2 -18t-4 -12.5t-6.5 -8t-6.5 -4.5t-7 -3.5l-5 -1
q-5 -1 -17.5 3t-19.5 5zM229 1020q-33 -153 -55 -410q62 108 115 308q1 6 3.5 16.5t7.5 38t8 51t3 47.5t-6 35q-16 32 -42 0q-22 -27 -34 -86z" />
    <glyph glyph-name="m" unicode="m" horiz-adv-x="776" 
d="M176 53q-68 -3 -121 68q-23 33 -23 197.5t15 254.5q10 48 33 54q31 9 69.5 -12t49.5 -42q25 -55 32 -139q23 53 53.5 91.5t65.5 37.5q66 -2 101 -39t34 -139q48 187 64 201q2 3 9.5 13t12 14.5t17 9.5t28.5 6q43 2 84.5 -33t38.5 -100q0 -1 -10 -131.5t-7.5 -200.5
t21.5 -74q3 -2 7 -6t10 -16t4 -23q-3 -18 -39.5 -18t-60.5 22q-23 25 -35 68.5t-6 79.5q6 30 16 112t14.5 164.5t-8.5 101.5q-44 49 -89 -95q-9 -29 -36 -138q-7 -28 -13.5 -82.5t-13.5 -88.5t-18 -38q-17 -7 -36.5 -12t-42.5 -3.5t-29 15.5q-8 29 -5 114t-1 178t-19 95
q-16 2 -36.5 -28t-42.5 -103t-38 -174q-15 -162 -49 -162z" />
    <glyph glyph-name="n" unicode="n" horiz-adv-x="473" 
d="M145 25q-65 -4 -102 57q-19 31 -24 123.5t0 183t14 168.5q2 9 5 21.5t14.5 33.5t25.5 21q17 0 45.5 -17t34.5 -36q1 -2 7 -20.5t10 -33.5t9 -38.5t8 -52t3 -58.5q0 -13 -2 -19q19 51 37 92.5t43.5 88t53.5 71t54 19.5q5 0 13.5 -1t28 -13.5t30 -35.5t10 -73t-20.5 -119
q-28 -98 -37 -181.5t-2.5 -127t21.5 -53.5q2 -2 4.5 -5.5t6 -12.5t-2.5 -13q-8 -4 -26.5 -6t-41.5 12.5t-28 42.5q-17 105 4 256q3 24 7.5 57t8 56t7 49t4 43.5t-1.5 32.5t-7.5 22.5t-15.5 7.5q-13 0 -46 -65.5t-69.5 -178.5t-48.5 -217v7q-14 -88 -33 -88z" />
    <glyph glyph-name="o" unicode="o" horiz-adv-x="442" 
d="M199 6q-38 2 -75 15t-70 38t-50 69.5t-10 102.5q4 62 33 113q23 37 41 57q8 71 54.5 122t108.5 52q56 1 98.5 -87t45.5 -197q38 17 47 26q10 3 16 -14q2 -7 0.5 -14t-4.5 -13l-2 -6q-28 -28 -59 -39q-5 -38 -8 -51q-10 -45 -31 -79.5t-43.5 -51.5t-43.5 -27.5t-35 -13.5z
M225 532q-34 -6 -69 -63q40 16 82 8q4 -1 8.5 -3.5t12 -12.5t-4.5 -23q-3 -4 -15.5 -11.5t-24 -16.5t-27.5 -37.5t-29 -71.5q38 -33 102 -43q29 -5 80 16q-4 90 -42.5 175.5t-72.5 82.5zM338 223q-46 -9 -98.5 0t-94.5 31q0 -7 -4 -23q-1 -7 -2 -19.5t-0.5 -44.5t5.5 -56.5
t19.5 -45.5t37.5 -22q30 -2 78 52t59 128z" />
    <glyph glyph-name="p" unicode="p" horiz-adv-x="473" 
d="M35 -152q0 2 -5 41.5t-8.5 76t-7.5 96.5t-3.5 121.5t4.5 132t16.5 147t31.5 147.5q4 7 10.5 17.5t25.5 27.5t36 15q16 -1 30 -32.5t19 -64.5q3 -7 0 -26q60 76 125 74q5 0 13.5 -1.5t30.5 -10.5t40 -23t34 -42t19 -65q5 -51 -10.5 -130.5t-44.5 -154t-76 -118.5t-98 -23
q-37 14 -63 72q-3 -141 12 -334q14 -57 0 -65q-9 -9 -43.5 -1.5t-46.5 29.5q-5 11 -16 24.5t-17 28.5t-8 41zM176 471q-17 -129 -22 -254q22 -88 59 -88q31 3 63 76.5t48 165.5q5 42 4.5 89t-13.5 83t-36 32q-44 -5 -103 -104z" />
    <glyph glyph-name="q" unicode="q" horiz-adv-x="499" 
d="M440 -20q-1 -74 14 -179.5t15 -113.5q-1 -15 -22 -16t-41 5l-21 7q-7 2 -16.5 10.5t-14.5 16.5l-6 7q-18 48 -26.5 114t-7.5 107l1 42q2 70 11 155t18 135l8 49q-8 -19 -23.5 -66t-27.5 -79t-36.5 -67.5t-55.5 -51.5q-24 -13 -49 -13t-44 8t-34 18.5t-23 19.5l-8 8
q-28 34 -42.5 78t-10 107.5t34.5 132.5q18 42 44 72.5t52 44t53 22.5t46.5 7.5t33.5 -1.5q18 -3 39 -27.5t33 -47.5l12 -23q13 37 29 51q32 24 56 19.5t30 -21.5q5 -54 1 -133t-12.5 -214.5t-9.5 -182.5zM178 106q40 5 77 74.5t81 231.5q-53 104 -82 108q-23 3 -59 -61.5
t-60 -161.5q-15 -66 -10.5 -109t19.5 -64t34 -18z" />
    <glyph glyph-name="r" unicode="r" horiz-adv-x="458" 
d="M25 573l1 5q1 6 2 10t3.5 10.5t5.5 11t7.5 9.5t10.5 7.5t13 2.5q56 0 79.5 -45t32.5 -154q72 168 133 168q41 0 72 -26t31 -78q0 -47 -25 -101q-8 -14 -8 -24q0 -7 4 -7q5 0 25 18.5t28 18.5q9 0 9 -8q0 -14 -29 -48t-58 -34q-55 0 -55 84q0 18 3 50t3 40q0 17 -5.5 29.5
t-11.5 15.5l-5 4q-14 0 -34 -29t-44 -100t-37 -167q-12 -183 -43 -183q-30 0 -48.5 7.5t-37 34t-27 85t-8.5 152.5q0 145 13 241z" />
    <glyph glyph-name="s" unicode="s" horiz-adv-x="323" 
d="M285 63q-15 -43 -54 -71.5t-77.5 -37t-65.5 -1.5q-2 1 -6.5 2t-16 6.5t-21.5 13t-20.5 21.5t-16 31t-5.5 42.5t8 55.5q15 52 60 100q-55 85 -50 162q3 87 36.5 145.5t82.5 88.5q33 18 64 6q78 -28 71 -74l-2.5 -15t-9.5 -23.5t-20 -14.5q-16 1 -19 29t4 34l-20 -25
q-33 -51 -35 -94q-2 -18 37 -112q45 23 72 30q1 0 3 -0.5t7 -2t8.5 -3t5.5 -5t0 -7.5q-4 -11 -82 -45q80 -176 62 -236zM39 86q0 -7 0.5 -18t8.5 -33t24 -29q15 -7 48.5 19.5t33.5 60.5q-1 9 -7.5 21.5t-13 22.5t-22 31t-23.5 32q-37 -47 -49 -107z" />
    <glyph glyph-name="t" unicode="t" horiz-adv-x="245" 
d="M195 340q-8 -162 -3.5 -224.5t14 -99.5t9.5 -43q1 -17 -3 -21t-12.5 -2t-11.5 1q-5 -2 -10.5 -1.5t-9.5 2.5l-4 1q-28 10 -54.5 39t-35.5 80q-10 55 -15 143t-5 149l1 60q1 165 11 321h-107q-16 0 -27 4t-8 11q-1 20 13 22h131q19 217 57 224q52 8 86.5 -18t40.5 -46
q3 -8 -16 -162q96 0 110 -2q20 -1 29 -9t8 -15t-4 -9q-2 -2 -148 -2q-31 -321 -36 -403z" />
    <glyph glyph-name="u" unicode="u" horiz-adv-x="573" 
d="M514 8q0 -17 -4.5 -21t-13 -2t-11.5 1l-36 4q-22 8 -42 60.5t-20 123.5q1 61 13 138t24 124l12 47q-11 -14 -54.5 -113.5t-94.5 -192t-90 -111.5q-43 -18 -72 -12.5t-44 22.5l-15 16q-4 4 -10 12.5t-19 41t-19 73t-1.5 110.5t24.5 150q22 76 47 94q14 10 46 10t46 -16
q17 -19 28.5 -62t4.5 -75l-11 -46q-12 -46 -18.5 -79t-13 -77.5t-2 -70.5t19.5 -28q25 -3 59 56t83 175l90 205q21 39 46.5 57.5t70.5 10.5q18 -3 24.5 -31t2.5 -65t-11 -73.5t-14 -61.5l-7 -25q-18 -88 -25 -160.5t-4.5 -107t7 -65t4.5 -36.5z" />
    <glyph glyph-name="v" unicode="v" horiz-adv-x="415" 
d="M27 508q1 12 3 29.5t15 50.5t33 39q21 6 48.5 -20.5t31.5 -63.5q0 -6 3 -86t7 -151t16.5 -142.5t30.5 -87.5q18 -5 38 23t39.5 93t31.5 154q5 41 6 81.5t-0.5 78t-1.5 39.5q2 23 8 46t12 23q4 0 9 -5t9 -10l3 -5q16 1 25 -40.5t2 -126t-34 -181.5q-31 -109 -63.5 -162.5
t-58.5 -67.5q-6 -6 -23 -6q-79 14 -132 105.5t-60 175.5q-4 54 -3.5 102.5t2.5 81.5z" />
    <glyph glyph-name="w" unicode="w" horiz-adv-x="604" 
d="M475 4q-21 -6 -41.5 0t-35.5 16l-15 11q-22 10 -38 49.5t-23 88t-10.5 95.5t-3.5 79l-1 32q-1 -63 -11 -119.5t-23.5 -92t-26.5 -61.5t-22 -38l-9 -11q-46 -19 -82.5 -11t-58.5 27l-23 19q-4 4 -10.5 12.5t-20.5 40.5t-21 72t-4 110t23 150q21 78 48 96q14 12 46 11
t48 -17q17 -17 29.5 -60t5.5 -75q-1 -3 -5 -21.5t-7.5 -34t-9 -40.5t-9 -46t-6.5 -45.5t-3.5 -43t0.5 -35t6.5 -25.5t14.5 -10q18 -2 37.5 24.5t37.5 86t28 139.5q2 88 14 90q31 66 47 70q6 2 16.5 0t24.5 -13t26 -29.5t20 -55t7 -83.5l-2 -272q12 20 21 57t13 82t6.5 91.5
t3 94.5t0 83t-1.5 63.5t-1 30.5q-1 19 20.5 31.5t36.5 7.5q7 -4 16.5 -23.5t15.5 -37.5l5 -17q14 -105 -2 -234.5t-43 -214.5t-47 -94z" />
    <glyph glyph-name="x" unicode="x" horiz-adv-x="380" 
d="M367 27q-1 -9 -13.5 -16t-24.5 -10l-12 -3q-68 10 -161 164q-17 -22 -66 -78q-66 -74 -90 -73q-5 1 -6 5l-5 6q-7 20 40 72q45 50 94 127q-75 143 -88 207q-5 35 -3.5 66t5.5 53l4 22q3 13 15 28.5t23 24.5l11 9q18 7 37 -12.5t38 -62.5t31.5 -78.5t28.5 -86.5
q13 19 48 97.5t40 86.5q4 6 11.5 14.5t24 18.5t26.5 2q34 -27 -33 -184q-15 -38 -84 -133q16 -40 45.5 -107t47 -109t16.5 -50z" />
    <glyph glyph-name="y" unicode="y" horiz-adv-x="536" 
d="M455 4q43 -18 43 -47q10 -33 -4 -33q-6 0 -50 35q-20 -86 -47 -161t-64 -140t-84.5 -92.5t-98.5 -5.5q-4 2 -10 7t-21 21.5t-25.5 36.5t-16.5 53t-1 70q11 77 87.5 153t153.5 105q10 75 13.5 152t1.5 117l-2 40v33q-25 -60 -43 -98.5t-44.5 -79.5t-49.5 -53
q-40 -16 -71.5 -7t-51.5 28l-19 20q-4 3 -9.5 9.5t-17.5 32.5t-17.5 60t-1 95t23.5 134q18 68 43 84q13 10 42 9t42 -15q14 -16 24 -55t4 -68q0 -2 -4.5 -19.5t-8 -31t-8.5 -36.5t-8.5 -41.5t-7 -41t-4.5 -39t0 -31.5t5 -23t12 -9q26 -5 57.5 35t71.5 133q16 41 45 147
q15 124 65 131q27 5 57 -43.5t33 -101.5q6 -101 -16 -342q-7 -65 -18 -127zM172 -344q39 -35 76.5 59.5t62.5 245.5q-42 -12 -71 -35q-57 -41 -83.5 -95.5t-20.5 -101t36 -73.5z" />
    <glyph glyph-name="z" unicode="z" horiz-adv-x="374" 
d="M227 575q-1 0 -14 -3t-29 -6t-36.5 -7t-39.5 -5.5t-35.5 -1t-26.5 5t-11 13.5q-23 37 4 45q19 6 104 7t119 -5q37 -7 73.5 -46.5t33.5 -92.5q-2 -13 -65.5 -111.5t-120 -192t-44.5 -101.5q18 -13 101.5 6.5t99.5 30.5q31 6 33 -19q5 -33 -17 -51q-11 -11 -116 -29
t-140 -2q-5 1 -12 4t-25.5 15.5t-32 29.5t-22 48t-4.5 69q4 32 93.5 168.5t140.5 206.5v3q0 2 -0.5 6t-1.5 7.5t-3.5 6t-5.5 1.5z" />
    <glyph glyph-name="exclamdown" unicode="&#xa1;" horiz-adv-x="227" 
d="M113 504q-17 0 -29 14.5t-12 34.5q0 22 12 36.5t29 14.5q19 0 31 -14.5t12 -36.5q0 -21 -12 -35t-31 -14zM68 154q0 118 10 213q10 93 31 96q6 2 14 -6q15 -26 20 -84q2 -6 2 -21q0 -5 1 -14.5t1 -15.5q3 -30 3 -74q4 -114 4 -195q0 -79 -4 -205v-22q-3 -12 -3 -25
q0 -7 -1 -21t-1 -20q-1 -7 -2 -20t-2 -19q0 -12 -4 -32q-2 -24 -6 -47q-12 -50 -27 -50q-27 0 -36 41q-7 25 -7 52v18v16v41q0 4 1 14t1 15v35q0 40 3 96v113q0 80 2 121z" />
    <glyph glyph-name="cent" unicode="&#xa2;" horiz-adv-x="434" 
d="M332 604q22 0 45.5 -27t15.5 -38q-7 -8 -25.5 -11.5t-25.5 0.5q-4 2 -5 5.5t0 8.5l1 5q0 9 -3 15t-6 8l-3 1q-15 -3 -41 -43v-481q17 0 51 21q1 1 2 1.5l5 2.5t8 3t8.5 2t8.5 0t7 -4.5t4 -9.5q2 -15 -17 -34q-22 -19 -77 -19v-20q0 -15 -21 -15q-8 0 -14 4.5t-6 10.5v22
q-2 0 -6.5 1t-6.5 1q-61 6 -104.5 41.5t-63.5 85.5t-27 99t-3 94q5 49 47.5 109t84 97.5t58.5 43.5q12 4 21 4v16q0 4 6 8t14 4q21 0 21 -12v-6zM244 88l2 381q-17 -15 -41 -69.5t-29 -86.5q-7 -50 12 -123.5t56 -101.5z" />
    <glyph glyph-name="sterling" unicode="&#xa3;" horiz-adv-x="538" 
d="M387 725l7 10q8 10 13 17t13.5 21.5t14 27.5t10.5 30.5t6 34.5q5 57 -17 113t-51 49q-28 -7 -80.5 -158t-62.5 -288h49q9 0 14.5 -7.5t5.5 -17.5q0 -9 -5.5 -15.5t-14.5 -6.5h-53v-33h53q20 0 20 -23q0 -9 -5.5 -15.5t-14.5 -6.5h-56q-3 -112 8.5 -201.5t25.5 -139
t14 -55.5q12 1 60.5 -1t55.5 -1q22 6 36.5 5t21 -5t6.5 -10t-0.5 -10t-8 -12.5t-21 -13.5t-42.5 -9.5t-70 -5.5q-36 0 -103.5 -3.5t-84.5 -6.5q-19 -2 -38 4t-11 18q18 35 55 45q10 4 45 8q-7 20 -13.5 46.5t-9.5 43.5l-3 17q-35 105 -47 287h-72q-8 0 -14.5 6.5t-6.5 15.5
q0 10 6.5 16.5t14.5 6.5h69q-2 12 -2 33h-67q-8 0 -14.5 6.5t-6.5 15.5t6.5 17t14.5 8h67v28q1 82 40.5 187t80.5 173t58 77q21 14 48 23.5t43 11.5l17 3q5 0 13.5 -1.5t29.5 -11.5t37 -28t29.5 -56.5t13.5 -90.5q0 -130 -59 -214q-40 -57 -76 -48q-11 3 -19 12
q-2 4 -5.5 9.5t-8.5 17.5t-4 16q2 7 21.5 19t23.5 16z" />
    <glyph glyph-name="dieresis" unicode="&#xa8;" horiz-adv-x="280" 
d="M76 1159q15 1 27.5 -8.5t15.5 -24.5q2 -15 -7 -27.5t-24 -13.5q-15 -2 -28.5 8t-14.5 25q-3 15 6.5 27t24.5 14zM190 1159q15 1 27.5 -9t15.5 -24q3 -15 -6 -27.5t-24 -15.5q-15 0 -27.5 10t-15.5 25q-3 13 6 25.5t24 15.5z" />
    <glyph glyph-name="acute" unicode="&#xb4;" horiz-adv-x="178" 
d="M141 1200q2 -1 3.5 -3.5t4.5 -13t-2 -24.5q-6 -17 -16 -29q-14 -14 -35 -28q-25 -14 -41 -17h-10q-1 0 -3 1t-3 1q-9 3 -12 9q-2 4 -4 10v10q0 8 4 10q4 8 14 15q12 9 25 22q37 32 47 39l8 4q12 0 20 -6z" />
    <glyph glyph-name="questiondown" unicode="&#xbf;" horiz-adv-x="473" 
d="M51 -168q-1 55 23.5 132t46.5 124.5t65.5 130t44.5 84.5q45 88 39 143q-2 9 6.5 13.5t14.5 -2.5q23 -29 24.5 -83t-22.5 -126q-22 -62 -67.5 -160.5t-63.5 -165.5t-12 -149q0 -3 1 -9t4 -23t8 -32t15 -33.5t22.5 -31t32.5 -20t43 -5.5q4 0 11 1t24 9.5t30 23t22 46.5
t6 76t-22.5 70.5t-45.5 33.5q-30 10 -59 -4q-4 -1 -7.5 2.5t-3.5 9.5q3 55 41 93q13 13 33 10q21 -7 35.5 -14.5t38.5 -25.5t38 -50t15 -76q2 -61 -13 -108t-38.5 -70.5t-47 -39t-40.5 -18.5l-17 -4q-90 -6 -157 64t-68 184zM270 504q-17 0 -29 14.5t-12 34.5q0 22 12 36.5
t29 14.5q19 0 31 -14.5t12 -36.5q0 -21 -12 -35t-31 -14z" />
    <glyph glyph-name="Agrave" unicode="&#xc0;" 
d="M649 -4q68 -7 68 -21q-13 -26 -31 -26h-35q3 -89 23 -154q-2 -20 -10 -20q-4 0 -30.5 -2t-37.5 -2q-28 0 -64 14t-45 43q-13 46 -20 123q-16 -1 -38.5 -1.5t-36 -1t-19.5 -1.5q-46 -4 -183 -4q-1 -12 -1.5 -28t-1 -26t-1.5 -14q-2 -31 -7 -44t-19 -13q-5 0 -18 -2.5
t-22 -3.5t-16.5 5.5t-7.5 22.5q0 22 6 105h-43q-1 1 -2.5 3.5t-4 8.5t-2.5 11t3.5 9t12.5 5q1 0 14.5 1t25.5 1q33 402 101 630q56 186 168 305t235 158l2 2h61q65 -5 62 -30q0 -3 -10.5 -82.5t-23.5 -195t-26.5 -249.5t-21 -277.5t-4.5 -248.5zM387 -6q20 2 76 2
q-14 154 2 364q16 184 56.5 386t72.5 296q-204 -141 -254 -241q-44 -84 -84.5 -288.5t-54.5 -362.5q-4 -86 -8 -162q189 6 194 6zM729 1157q2 -2 6 -10v-10l-4 -11q-2 -4 -10 -8q-1 0 -3.5 -1t-4.5 -1h-8q-14 2 -43 17q-27 18 -37 28l-21 29q-5 15 -4.5 24.5t3.5 13.5l3 3
q8 6 19 6l10 -4q6 -4 51 -39q5 -4 14 -12t13 -11q12 -6 16 -14z" />
    <glyph glyph-name="Aacute" unicode="&#xc1;" 
d="M649 -4q68 -7 68 -21q-13 -26 -31 -26h-35q3 -89 23 -154q-2 -20 -10 -20q-4 0 -30.5 -2t-37.5 -2q-28 0 -64 14t-45 43q-13 46 -20 123q-16 -1 -38.5 -1.5t-36 -1t-19.5 -1.5q-46 -4 -183 -4q-1 -12 -1.5 -28t-1 -26t-1.5 -14q-2 -31 -7 -44t-19 -13q-5 0 -18 -2.5
t-22 -3.5t-16.5 5.5t-7.5 22.5q0 22 6 105h-43q-1 1 -2.5 3.5t-4 8.5t-2.5 11t3.5 9t12.5 5q1 0 14.5 1t25.5 1q33 402 101 630q56 186 168 305t235 158l2 2h61q65 -5 62 -30q0 -3 -10.5 -82.5t-23.5 -195t-26.5 -249.5t-21 -277.5t-4.5 -248.5zM387 -6q20 2 76 2
q-14 154 2 364q16 184 56.5 386t72.5 296q-204 -141 -254 -241q-44 -84 -84.5 -288.5t-54.5 -362.5q-4 -86 -8 -162q189 6 194 6zM729 1229q2 -1 3.5 -3.5t4.5 -13t-2 -24.5q-6 -17 -16 -29q-17 -17 -35 -29q-23 -13 -41 -16h-10q-1 0 -3 1t-3 1q-11 4 -13 8q-2 5 -4 11v10
q0 8 4 10q3 6 15 14q4 3 24 23q37 32 47 39q5 2 9 4q12 0 20 -6z" />
    <glyph glyph-name="Acircumflex" unicode="&#xc2;" 
d="M649 -4q68 -7 68 -21q-13 -26 -31 -26h-35q3 -89 23 -154q-2 -20 -10 -20q-4 0 -30.5 -2t-37.5 -2q-28 0 -64 14t-45 43q-13 46 -20 123q-16 -1 -38.5 -1.5t-36 -1t-19.5 -1.5q-46 -4 -183 -4q-1 -12 -1.5 -28t-1 -26t-1.5 -14q-2 -31 -7 -44t-19 -13q-5 0 -18 -2.5
t-22 -3.5t-16.5 5.5t-7.5 22.5q0 22 6 105h-43q-1 1 -2.5 3.5t-4 8.5t-2.5 11t3.5 9t12.5 5q1 0 14.5 1t25.5 1q33 402 101 630q56 186 168 305t235 158l2 2h61q65 -5 62 -30q0 -3 -10.5 -82.5t-23.5 -195t-26.5 -249.5t-21 -277.5t-4.5 -248.5zM387 -6q20 2 76 2
q-14 154 2 364q16 184 56.5 386t72.5 296q-204 -141 -254 -241q-44 -84 -84.5 -288.5t-54.5 -362.5q-4 -86 -8 -162q189 6 194 6zM741 1147l4 -8v-6l-4 -7q-1 -3 -8 -6h-8h-8q-15 3 -35 13q-7 4 -19.5 12t-13.5 8v0q-10 -7 -31 -18q-13 -6 -36 -11q-5 0 -9 2h-6q-7 4 -10 9
q-2 2 -2 6q-3 3 0 6q0 4 4 8q6 6 12 10q4 2 11.5 6.5t11.5 6.5q39 24 43 26h2q4 2 10 2t10 -2l3 -2q4 -2 11 -6.5t16.5 -11t15.5 -10.5q4 -3 22 -15q3 -3 7.5 -6.5t6.5 -5.5z" />
    <glyph glyph-name="Atilde" unicode="&#xc3;" 
d="M649 -4q68 -7 68 -21q-13 -26 -31 -26h-35q3 -89 23 -154q-2 -20 -10 -20q-4 0 -30.5 -2t-37.5 -2q-28 0 -64 14t-45 43q-13 46 -20 123q-16 -1 -38.5 -1.5t-36 -1t-19.5 -1.5q-46 -4 -183 -4q-1 -12 -1.5 -28t-1 -26t-1.5 -14q-2 -31 -7 -44t-19 -13q-5 0 -18 -2.5
t-22 -3.5t-16.5 5.5t-7.5 22.5q0 22 6 105h-43q-1 1 -2.5 3.5t-4 8.5t-2.5 11t3.5 9t12.5 5q1 0 14.5 1t25.5 1q33 402 101 630q56 186 168 305t235 158l2 2h61q65 -5 62 -30q0 -3 -10.5 -82.5t-23.5 -195t-26.5 -249.5t-21 -277.5t-4.5 -248.5zM387 -6q20 2 76 2
q-14 154 2 364q16 184 56.5 386t72.5 296q-204 -141 -254 -241q-44 -84 -84.5 -288.5t-54.5 -362.5q-4 -86 -8 -162q189 6 194 6zM649 1182q13 5 27 7t30.5 1t29.5 -11.5t18 -29.5q5 -25 -9 -27q-6 -1 -15.5 9.5t-20.5 9.5q-3 0 -22 -5.5t-36.5 -9t-40 5.5t-35.5 33
q-22 35 3 41q11 3 33.5 -13.5t37.5 -10.5z" />
    <glyph glyph-name="Adieresis" unicode="&#xc4;" 
d="M649 -4q68 -7 68 -21q-13 -26 -31 -26h-35q3 -89 23 -154q-2 -20 -10 -20q-4 0 -30.5 -2t-37.5 -2q-28 0 -64 14t-45 43q-13 46 -20 123q-16 -1 -38.5 -1.5t-36 -1t-19.5 -1.5q-46 -4 -183 -4q-1 -12 -1.5 -28t-1 -26t-1.5 -14q-2 -31 -7 -44t-19 -13q-5 0 -18 -2.5
t-22 -3.5t-16.5 5.5t-7.5 22.5q0 22 6 105h-43q-1 1 -2.5 3.5t-4 8.5t-2.5 11t3.5 9t12.5 5q1 0 14.5 1t25.5 1q33 402 101 630q56 186 168 305t235 158l2 2h61q65 -5 62 -30q0 -3 -10.5 -82.5t-23.5 -195t-26.5 -249.5t-21 -277.5t-4.5 -248.5zM387 -6q20 2 76 2
q-14 154 2 364q16 184 56.5 386t72.5 296q-204 -141 -254 -241q-44 -84 -84.5 -288.5t-54.5 -362.5q-4 -86 -8 -162q189 6 194 6zM621 1196q15 1 27.5 -8.5t15.5 -24.5q2 -15 -7 -27.5t-24 -13.5q-15 -2 -28.5 8t-14.5 25q-3 15 6.5 27t24.5 14zM735 1196q15 1 27.5 -9
t15.5 -24q3 -15 -6 -27.5t-24 -15.5q-15 0 -27.5 10t-15.5 25q-3 13 6 25.5t24 15.5z" />
    <glyph glyph-name="Aring" unicode="&#xc5;" 
d="M649 -4q68 -7 68 -21q-13 -26 -31 -26h-35q3 -89 23 -154q-2 -20 -10 -20q-4 0 -30.5 -2t-37.5 -2q-28 0 -64 14t-45 43q-13 46 -20 123q-16 -1 -38.5 -1.5t-36 -1t-19.5 -1.5q-46 -4 -183 -4q-1 -12 -1.5 -28t-1 -26t-1.5 -14q-2 -31 -7 -44t-19 -13q-5 0 -18 -2.5
t-22 -3.5t-16.5 5.5t-7.5 22.5q0 22 6 105h-43q-1 1 -2.5 3.5t-4 8.5t-2.5 11t3.5 9t12.5 5q1 0 14.5 1t25.5 1q33 402 101 630q56 186 168 305t235 158l2 2h61q65 -5 62 -30q0 -3 -10.5 -82.5t-23.5 -195t-26.5 -249.5t-21 -277.5t-4.5 -248.5zM387 -6q20 2 76 2
q-14 154 2 364q16 184 56.5 386t72.5 296q-204 -141 -254 -241q-44 -84 -84.5 -288.5t-54.5 -362.5q-4 -86 -8 -162q189 6 194 6zM682 1208q20 0 33.5 -13t13.5 -32q2 -19 -10 -32t-31 -13t-33 13t-14 32q-1 18 11 31.5t30 13.5zM686 1145q8 0 13.5 5.5t5.5 12.5
q-4 19 -21 19q-16 0 -16 -19q0 -7 5 -12.5t13 -5.5z" />
    <glyph glyph-name="AE" unicode="&#xc6;" horiz-adv-x="1083" 
d="M1010 1087q55 -4 55 -22q0 -34 -51 -39q-221 -14 -293 -27q0 -5 -10 -84q-12 -116 -13 -129q153 14 187 5q33 -11 35 -27q2 -11 -1.5 -24t-9.5 -13q-3 0 -19 -2t-26 -2q-120 0 -170 -6q-57 -678 -20 -881q43 -6 115.5 -6.5t82.5 2.5q100 8 113 8q9 0 18 -1t20.5 -4
t14.5 -9t0 -16q-5 -12 -31.5 -20t-50.5 -10l-24 -1q-94 -13 -250 8q0 -10 -6 -10h-19q0 -2 -4 -2q-2 0 -28 -2t-39 -2q-27 0 -62.5 14t-44.5 43q-13 45 -22 123q-16 -1 -38 -1.5t-35 -1t-19 -1.5q-46 -4 -183 -4q-4 -62 -4 -68q-3 -57 -28 -57q-4 0 -17 -2.5t-21.5 -3.5
t-16 5.5t-7.5 22.5q0 22 6 105h-43q-1 1 -2.5 3.5t-4 8.5t-3 11t3 9t12.5 5q1 0 15 1t26 1q11 149 37 326t64 304q55 186 167 305t236 158q0 2 2 2h61q65 -5 62 -30q190 38 283 38zM457 360q23 279 94 555q14 96 20 117q-189 -134 -241 -231q-42 -84 -82.5 -289t-54.5 -362
q-5 -86 -9 -162q189 6 195 6q20 2 74 2q-11 164 4 364z" />
    <glyph glyph-name="Ccedilla" unicode="&#xc7;" horiz-adv-x="899" 
d="M879 317q-11 -114 -39 -205.5t-61.5 -147t-77 -95.5t-78 -58t-70.5 -28l-21 -25q0 -2 -4 -6l13 -6q7 -7 16 -25q0 -2 1 -7t1 -7v-18q0 -1 -1 -3t-1 -3q0 -2 -2 -2q0 -10 -6 -13q-5 -10 -21 -18q-1 0 -2 -1t-2 -1q-2 -2 -6 -2l-2 -2h-4q-4 0 -6 -2h-21q-2 2 -6 2h-4
q-2 1 -5.5 2t-4.5 2l-10 6l-9 6q-4 4 -10 16q-4 12 -4 29q3 23 12 23h2q1 0 5 -4q3 -4 6 -11q0 -4 2 -8l4 -10l4 -8l6 -4q1 0 2 -1t2 -1h25l12 6q0 2 2 4q0 2 2 2v12q0 1 -1 3t-1 3q-2 2 -4 2q0 2 -2 2h-2v2h-4q-33 0 -35 13q-4 14 6 24l14 15q0 4 3 4h-9q-72 7 -128 37.5
t-90.5 77t-59 105t-34 121.5t-14 126t-1 118.5t7 98.5t8.5 69l4 25q15 105 45 191.5t66.5 140.5t77.5 94.5t79 60t68.5 31.5t49.5 14l18 2h13.5t32 -5.5t42.5 -16t38 -35.5t27 -59q9 -70 -22 -99h-31q-18 2 -17 13q0 2 1 4q6 10 3.5 35t-8.5 51t-26 47t-49 22q-4 -1 -11 -5
t-27 -22t-39 -44t-43.5 -77t-43.5 -114.5t-35 -161.5t-23 -215q0 -7 -1 -18.5t-2 -48t-1 -72t2 -84.5t6.5 -91.5t13.5 -87t22 -77.5t33.5 -56.5t45.5 -29.5h4q1 0 3.5 -1t3.5 -1q124 -22 209.5 99.5t119.5 338.5q3 78 17 88q10 8 25.5 -12t15.5 -33z" />
    <glyph glyph-name="Egrave" unicode="&#xc8;" horiz-adv-x="540" 
d="M645 -190q-5 -12 -32 -20t-51 -10l-25 -1q-91 -12 -250 8q0 -10 -6 -10q-24 0 -60 -4q-25 0 -55.5 13t-38.5 42q-8 25 -16 79t-15 172.5t2 274.5q8 154 26 320t35 268.5t25 108.5q20 26 75.5 23.5t64.5 -27.5q204 40 290 40q58 -4 58 -22q0 -33 -54 -39q-3 0 -30.5 -1.5
t-55.5 -3t-65 -4.5t-75 -8.5t-70 -11.5q-11 -116 -17 -211q149 14 187 5q30 -11 32 -27q2 -11 -1 -24t-9 -13q-3 0 -19 -2t-26 -2q-119 0 -170 -6q-53 -688 -18 -881q43 -6 114.5 -6.5t83.5 2.5q92 8 113 8q8 0 17 -1t20 -3.5t15.5 -9.5t0.5 -16zM473 1159q2 -2 6 -10v-10
l-4 -11q-2 -4 -10 -8q-1 0 -3.5 -1t-4.5 -1h-8q-13 2 -43 17q-27 18 -37 28l-21 29q-5 15 -4.5 24.5t3.5 13.5l3 3q8 6 19 6l10 -4q6 -4 51 -39q4 -3 13.5 -11t13.5 -11q11 -6 16 -15z" />
    <glyph glyph-name="Eacute" unicode="&#xc9;" horiz-adv-x="540" 
d="M645 -190q-5 -12 -32 -20t-51 -10l-25 -1q-91 -12 -250 8q0 -10 -6 -10q-24 0 -60 -4q-25 0 -55.5 13t-38.5 42q-8 25 -16 79t-15 172.5t2 274.5q8 154 26 320t35 268.5t25 108.5q20 26 75.5 23.5t64.5 -27.5q204 40 290 40q58 -4 58 -22q0 -33 -54 -39q-3 0 -30.5 -1.5
t-55.5 -3t-65 -4.5t-75 -8.5t-70 -11.5q-11 -116 -17 -211q149 14 187 5q30 -11 32 -27q2 -11 -1 -24t-9 -13q-3 0 -19 -2t-26 -2q-119 0 -170 -6q-53 -688 -18 -881q43 -6 114.5 -6.5t83.5 2.5q92 8 113 8q8 0 17 -1t20 -3.5t15.5 -9.5t0.5 -16zM477 1237q2 -1 3.5 -3.5
t4.5 -13t-2 -24.5q-6 -17 -16 -29q-14 -14 -35 -28q-25 -14 -41 -17h-10q-1 0 -3 1t-3 1q-10 3 -13 9q-2 4 -4 10v10q0 8 4 10q4 7 15 15q8 6 24 22q34 29 48 39l8 4q12 0 20 -6z" />
    <glyph glyph-name="Ecircumflex" unicode="&#xca;" horiz-adv-x="540" 
d="M645 -190q-5 -12 -32 -20t-51 -10l-25 -1q-91 -12 -250 8q0 -10 -6 -10q-24 0 -60 -4q-25 0 -55.5 13t-38.5 42q-8 25 -16 79t-15 172.5t2 274.5q8 154 26 320t35 268.5t25 108.5q20 26 75.5 23.5t64.5 -27.5q204 40 290 40q58 -4 58 -22q0 -33 -54 -39q-3 0 -30.5 -1.5
t-55.5 -3t-65 -4.5t-75 -8.5t-70 -11.5q-11 -116 -17 -211q149 14 187 5q30 -11 32 -27q2 -11 -1 -24t-9 -13q-3 0 -19 -2t-26 -2q-119 0 -170 -6q-53 -688 -18 -881q43 -6 114.5 -6.5t83.5 2.5q92 8 113 8q8 0 17 -1t20 -3.5t15.5 -9.5t0.5 -16zM545 1149l4 -8v-6l-4 -7
q-1 -3 -8 -6h-9h-8q-15 3 -35 13q-7 3 -18 10.5t-14 9.5v0q-10 -8 -31 -18q-12 -6 -37 -11q-4 0 -8 2h-6q-9 4 -11 9q-2 2 -2 6q-3 3 0 6q0 4 4 8t13 10q4 2 11 6.5t11 6.5q39 24 43 26h2q4 2 11 2q6 0 10 -2l2 -2q4 -2 11 -6.5t16.5 -11t15.5 -10.5q4 -3 22 -15
q3 -3 8 -6.5t7 -5.5z" />
    <glyph glyph-name="Edieresis" unicode="&#xcb;" horiz-adv-x="540" 
d="M645 -190q-5 -12 -32 -20t-51 -10l-25 -1q-91 -12 -250 8q0 -10 -6 -10q-24 0 -60 -4q-25 0 -55.5 13t-38.5 42q-8 25 -16 79t-15 172.5t2 274.5q8 154 26 320t35 268.5t25 108.5q20 26 75.5 23.5t64.5 -27.5q204 40 290 40q58 -4 58 -22q0 -33 -54 -39q-3 0 -30.5 -1.5
t-55.5 -3t-65 -4.5t-75 -8.5t-70 -11.5q-11 -116 -17 -211q149 14 187 5q30 -11 32 -27q2 -11 -1 -24t-9 -13q-3 0 -19 -2t-26 -2q-119 0 -170 -6q-53 -688 -18 -881q43 -6 114.5 -6.5t83.5 2.5q92 8 113 8q8 0 17 -1t20 -3.5t15.5 -9.5t0.5 -16zM397 1196q15 1 27.5 -8.5
t15.5 -24.5q2 -15 -6.5 -27.5t-23.5 -13.5q-15 -2 -28.5 8t-14.5 25q-3 15 6 27t24 14zM512 1196q15 1 27.5 -9t15.5 -24q3 -15 -6.5 -27.5t-24.5 -15.5q-15 0 -27.5 10t-15.5 25q-3 13 6.5 25.5t24.5 15.5z" />
    <glyph glyph-name="Igrave" unicode="&#xcc;" horiz-adv-x="423" 
d="M389 -170q35 -8 37 -20q2 -10 -1.5 -18.5t-10.5 -8.5q-2 0 -20 -2t-29 -2q-6 2 -56 2l-4 -4q-21 0 -61 -4q-20 0 -41 8q-14 0 -39.5 -1t-36.5 -1q-68 -7 -72 16q1 3 3.5 8.5t16 14.5t34.5 10q16 0 41 2q-44 173 -27 524q10 198 34.5 399.5t43.5 274.5q-10 -1 -29 -1.5
t-35 -1.5t-31 -3q-51 -2 -55 14q-1 3 -0.5 8.5t10.5 15.5t31 13q11 1 30 2.5t71 5.5t97.5 5.5t96.5 1t80 -4.5q2 0 5.5 -1t12.5 -4.5t15.5 -7t11.5 -8.5t4 -11q-4 -36 -53 -33q-3 0 -113 8q-6 -54 -14 -147t-19.5 -253.5t-18.5 -304.5t-6.5 -282.5t13.5 -204.5q68 0 84 -4z
M358 1161q4 -4 7 -10v-10l-5 -11q-2 -4 -10 -8q-1 0 -3.5 -1t-4.5 -1h-8q-14 2 -43 17q-27 18 -37 28l-21 29q-5 15 -4.5 24.5t3.5 13.5l4 3q8 6 18 6l10 -4q6 -4 51 -39q4 -3 13 -11t14 -11q11 -6 16 -15z" />
    <glyph glyph-name="Iacute" unicode="&#xcd;" horiz-adv-x="423" 
d="M389 -170q35 -8 37 -20q2 -10 -1.5 -18.5t-10.5 -8.5q-2 0 -20 -2t-29 -2q-6 2 -56 2l-4 -4q-21 0 -61 -4q-20 0 -41 8q-14 0 -39.5 -1t-36.5 -1q-68 -7 -72 16q1 3 3.5 8.5t16 14.5t34.5 10q16 0 41 2q-44 173 -27 524q10 198 34.5 399.5t43.5 274.5q-10 -1 -29 -1.5
t-35 -1.5t-31 -3q-51 -2 -55 14q-1 3 -0.5 8.5t10.5 15.5t31 13q11 1 30 2.5t71 5.5t97.5 5.5t96.5 1t80 -4.5q2 0 5.5 -1t12.5 -4.5t15.5 -7t11.5 -8.5t4 -11q-4 -36 -53 -33q-3 0 -113 8q-6 -54 -14 -147t-19.5 -253.5t-18.5 -304.5t-6.5 -282.5t13.5 -204.5q68 0 84 -4z
M358 1241q2 -1 4 -3.5t5 -13t-2 -24.5q-7 -17 -17 -29q-14 -14 -35 -28q-25 -14 -41 -17h-10q-1 0 -3 1t-3 1q-9 3 -12 9q-2 4 -4 10v10q0 8 4 10q4 9 14 15q12 9 25 22q37 32 47 39l8 4q12 0 20 -6z" />
    <glyph glyph-name="Icircumflex" unicode="&#xce;" horiz-adv-x="423" 
d="M389 -170q35 -8 37 -20q2 -10 -1.5 -18.5t-10.5 -8.5q-2 0 -20 -2t-29 -2q-6 2 -56 2l-4 -4q-21 0 -61 -4q-20 0 -41 8q-14 0 -39.5 -1t-36.5 -1q-68 -7 -72 16q1 3 3.5 8.5t16 14.5t34.5 10q16 0 41 2q-44 173 -27 524q10 198 34.5 399.5t43.5 274.5q-10 -1 -29 -1.5
t-35 -1.5t-31 -3q-51 -2 -55 14q-1 3 -0.5 8.5t10.5 15.5t31 13q11 1 30 2.5t71 5.5t97.5 5.5t96.5 1t80 -4.5q2 0 5.5 -1t12.5 -4.5t15.5 -7t11.5 -8.5t4 -11q-4 -36 -53 -33q-3 0 -113 8q-6 -54 -14 -147t-19.5 -253.5t-18.5 -304.5t-6.5 -282.5t13.5 -204.5q68 0 84 -4z
M395 1155l4 -8v-6l-4 -6q-2 -4 -8 -7h-8h-8q-15 3 -35 13q-7 4 -19.5 12t-13.5 8v0q-10 -8 -31 -18q-9 -5 -36 -10q-5 0 -9 2h-6q-8 4 -10 8q-2 2 -2 6q-3 3 0 6q0 4 4 8q9 9 12 11q4 2 11.5 6t11.5 6q39 24 43 26h2q4 2 10 2t10 -2l2 -2q4 -2 11 -6.5t16.5 -11t15.5 -10.5
q5 -4 13.5 -9.5t9.5 -5.5q3 -3 7.5 -6.5t6.5 -5.5z" />
    <glyph glyph-name="Idieresis" unicode="&#xcf;" horiz-adv-x="423" 
d="M389 -170q35 -8 37 -20q2 -10 -1.5 -18.5t-10.5 -8.5q-2 0 -20 -2t-29 -2q-6 2 -56 2l-4 -4q-21 0 -61 -4q-20 0 -41 8q-14 0 -39.5 -1t-36.5 -1q-68 -7 -72 16q1 3 3.5 8.5t16 14.5t34.5 10q16 0 41 2q-44 173 -27 524q10 198 34.5 399.5t43.5 274.5q-10 -1 -29 -1.5
t-35 -1.5t-31 -3q-51 -2 -55 14q-1 3 -0.5 8.5t10.5 15.5t31 13q11 1 30 2.5t71 5.5t97.5 5.5t96.5 1t80 -4.5q2 0 5.5 -1t12.5 -4.5t15.5 -7t11.5 -8.5t4 -11q-4 -36 -53 -33q-3 0 -113 8q-6 -54 -14 -147t-19.5 -253.5t-18.5 -304.5t-6.5 -282.5t13.5 -204.5q68 0 84 -4z
M254 1200q15 1 27.5 -8.5t15.5 -24.5q2 -15 -7 -27.5t-24 -13.5q-15 -2 -28.5 8t-14.5 25q-3 15 6.5 27t24.5 14zM369 1200q15 1 27.5 -9t15.5 -24q3 -15 -6.5 -27.5t-24.5 -15.5q-15 0 -27.5 10t-15.5 25q-3 13 6.5 25.5t24.5 15.5z" />
    <glyph glyph-name="Ntilde" unicode="&#xd1;" horiz-adv-x="784" 
d="M723 -201q8 -2 1 -15q-7 -10 -17 -11q-5 2 -20.5 0t-39 1.5t-46.5 9t-42.5 21t-26.5 39.5q-13 48 -23 124t-9 189t20 212q48 245 77.5 433t10.5 179q-48 -22 -126.5 -254.5t-137 -503.5t-57.5 -401q3 -15 6 -27q-2 -20 -10 -20q-2 0 -28.5 -2t-39.5 -2q-27 0 -63.5 14
t-45.5 43q-9 30 -16 79.5t-13 174.5t9 278q16 207 63.5 433t75.5 284q7 10 17 10q116 0 114 -30q0 -4 -9 -69t-21 -163.5t-24 -214.5t-22 -248t-12 -239q25 117 53.5 232.5t75 278.5t98 276t97.5 137q4 2 10 4.5t23.5 6t33 3t34.5 -10t32.5 -28.5t22 -56t6.5 -89l-33 -323
q-65 -710 2 -755zM553 1202q13 5 27 7t30.5 1t29 -11.5t17.5 -29.5q6 -24 -8 -26q-6 -1 -16 9t-21 9q-3 0 -22 -5.5t-36.5 -8.5t-39.5 6t-35 33q-23 35 2 41q11 3 34 -14t38 -11z" />
    <glyph glyph-name="Ograve" unicode="&#xd2;" horiz-adv-x="919" 
d="M475 -227q-72 7 -128 37.5t-90.5 77t-59 105t-34 121.5t-14 126t-1 118.5t7 98.5t8.5 69l4 25q15 105 45 191.5t66.5 140.5t77 94.5t78.5 60t68.5 31.5t48.5 14l19 2h14t32 -5.5t42.5 -16t38.5 -35.5t27 -59q4 -51 -12 -84q55 -34 91 -105t48.5 -148t17 -149t1.5 -119
l-3 -47q-9 -95 -27.5 -174.5t-43.5 -133t-54.5 -96t-60 -67t-61 -41.5t-56.5 -23t-46.5 -8.5t-32.5 -1.5zM575 1042q-4 -1 -11 -5t-27 -22t-39 -44t-43 -77t-43 -114.5t-35 -161.5t-23 -215q0 -7 -1 -18.5t-2 -48t-1 -72t2 -84.5t6.5 -91.5t13.5 -87t22 -77.5t33.5 -56.5
t45.5 -29.5q132 -30 228.5 95t111.5 341q10 99 1.5 179t-20.5 138t-36 102t-44 71.5t-44.5 47t-38.5 27.5t-26 13l-3 1.5t-2 0.5q-26 12 -19.5 36.5t33.5 24.5q30 -4 45 -8q1 19 -2.5 40t-12 43t-26.5 36.5t-43 15.5zM659 1174q3 -3 7 -11v-10l-4 -10q-2 -3 -11 -8
q-1 0 -3.5 -1t-4.5 -1h-8q-16 3 -43 16q-24 16 -37 29q-5 5 -10 12t-7 12l-3 4q-5 15 -4.5 24.5t3.5 13.5l3 3q8 6 18 6l10 -4q6 -4 51 -39q4 -3 13.5 -11t13.5 -11q12 -6 16 -14z" />
    <glyph glyph-name="Oacute" unicode="&#xd3;" horiz-adv-x="919" 
d="M475 -227q-72 7 -128 37.5t-90.5 77t-59 105t-34 121.5t-14 126t-1 118.5t7 98.5t8.5 69l4 25q15 105 45 191.5t66.5 140.5t77 94.5t78.5 60t68.5 31.5t48.5 14l19 2h14t32 -5.5t42.5 -16t38.5 -35.5t27 -59q4 -51 -12 -84q55 -34 91 -105t48.5 -148t17 -149t1.5 -119
l-3 -47q-9 -95 -27.5 -174.5t-43.5 -133t-54.5 -96t-60 -67t-61 -41.5t-56.5 -23t-46.5 -8.5t-32.5 -1.5zM575 1042q-4 -1 -11 -5t-27 -22t-39 -44t-43 -77t-43 -114.5t-35 -161.5t-23 -215q0 -7 -1 -18.5t-2 -48t-1 -72t2 -84.5t6.5 -91.5t13.5 -87t22 -77.5t33.5 -56.5
t45.5 -29.5q132 -30 228.5 95t111.5 341q10 99 1.5 179t-20.5 138t-36 102t-44 71.5t-44.5 47t-38.5 27.5t-26 13l-3 1.5t-2 0.5q-26 12 -19.5 36.5t33.5 24.5q30 -4 45 -8q1 19 -2.5 40t-12 43t-26.5 36.5t-43 15.5zM653 1239q2 -1 3.5 -3.5t4.5 -13t-2 -24.5
q-6 -17 -16 -29q-14 -14 -35 -28q-25 -14 -41 -17h-10q-1 0 -3 1t-3 1q-9 3 -12 9q-2 4 -4 10v10q0 8 4 10q4 9 14 15q12 9 25 22q37 32 47 39l8 4q12 0 20 -6z" />
    <glyph glyph-name="Ocircumflex" unicode="&#xd4;" horiz-adv-x="919" 
d="M475 -227q-72 7 -128 37.5t-90.5 77t-59 105t-34 121.5t-14 126t-1 118.5t7 98.5t8.5 69l4 25q15 105 45 191.5t66.5 140.5t77 94.5t78.5 60t68.5 31.5t48.5 14l19 2h14t32 -5.5t42.5 -16t38.5 -35.5t27 -59q4 -51 -12 -84q55 -34 91 -105t48.5 -148t17 -149t1.5 -119
l-3 -47q-9 -95 -27.5 -174.5t-43.5 -133t-54.5 -96t-60 -67t-61 -41.5t-56.5 -23t-46.5 -8.5t-32.5 -1.5zM575 1042q-4 -1 -11 -5t-27 -22t-39 -44t-43 -77t-43 -114.5t-35 -161.5t-23 -215q0 -7 -1 -18.5t-2 -48t-1 -72t2 -84.5t6.5 -91.5t13.5 -87t22 -77.5t33.5 -56.5
t45.5 -29.5q132 -30 228.5 95t111.5 341q10 99 1.5 179t-20.5 138t-36 102t-44 71.5t-44.5 47t-38.5 27.5t-26 13l-3 1.5t-2 0.5q-26 12 -19.5 36.5t33.5 24.5q30 -4 45 -8q1 19 -2.5 40t-12 43t-26.5 36.5t-43 15.5zM692 1155l4 -8v-6l-4 -6q-2 -4 -8 -7h-8h-8
q-15 3 -35 13q-7 4 -19.5 12t-13.5 8v0q-10 -8 -31 -18q-9 -4 -37 -10q-4 0 -8 2h-6q-8 4 -10 8q-2 2 -2 6q-3 3 0 6q0 4 4 8q9 9 12 11q4 2 11.5 6t11.5 6q39 24 43 26h2q4 2 10 2t10 -2l2 -2q4 -2 11 -6.5t16.5 -11t15.5 -10.5q5 -4 13.5 -9.5t9.5 -5.5q3 -3 7.5 -6.5
t6.5 -5.5z" />
    <glyph glyph-name="Otilde" unicode="&#xd5;" horiz-adv-x="919" 
d="M475 -227q-72 7 -128 37.5t-90.5 77t-59 105t-34 121.5t-14 126t-1 118.5t7 98.5t8.5 69l4 25q15 105 45 191.5t66.5 140.5t77 94.5t78.5 60t68.5 31.5t48.5 14l19 2h14t32 -5.5t42.5 -16t38.5 -35.5t27 -59q4 -51 -12 -84q55 -34 91 -105t48.5 -148t17 -149t1.5 -119
l-3 -47q-9 -95 -27.5 -174.5t-43.5 -133t-54.5 -96t-60 -67t-61 -41.5t-56.5 -23t-46.5 -8.5t-32.5 -1.5zM575 1042q-4 -1 -11 -5t-27 -22t-39 -44t-43 -77t-43 -114.5t-35 -161.5t-23 -215q0 -7 -1 -18.5t-2 -48t-1 -72t2 -84.5t6.5 -91.5t13.5 -87t22 -77.5t33.5 -56.5
t45.5 -29.5q132 -30 228.5 95t111.5 341q10 99 1.5 179t-20.5 138t-36 102t-44 71.5t-44.5 47t-38.5 27.5t-26 13l-3 1.5t-2 0.5q-26 12 -19.5 36.5t33.5 24.5q30 -4 45 -8q1 19 -2.5 40t-12 43t-26.5 36.5t-43 15.5zM575 1194q13 5 27 7t30.5 1t29.5 -11.5t18 -29.5
q6 -24 -8 -26q-6 -1 -16 9t-21 9q-3 0 -22 -5.5t-36.5 -8.5t-39.5 6t-35 33q-23 35 2 41q11 3 33.5 -14t37.5 -11z" />
    <glyph glyph-name="Odieresis" unicode="&#xd6;" horiz-adv-x="919" 
d="M475 -227q-72 7 -128 37.5t-90.5 77t-59 105t-34 121.5t-14 126t-1 118.5t7 98.5t8.5 69l4 25q15 105 45 191.5t66.5 140.5t77 94.5t78.5 60t68.5 31.5t48.5 14l19 2h14t32 -5.5t42.5 -16t38.5 -35.5t27 -59q4 -51 -12 -84q55 -34 91 -105t48.5 -148t17 -149t1.5 -119
l-3 -47q-9 -95 -27.5 -174.5t-43.5 -133t-54.5 -96t-60 -67t-61 -41.5t-56.5 -23t-46.5 -8.5t-32.5 -1.5zM575 1042q-4 -1 -11 -5t-27 -22t-39 -44t-43 -77t-43 -114.5t-35 -161.5t-23 -215q0 -7 -1 -18.5t-2 -48t-1 -72t2 -84.5t6.5 -91.5t13.5 -87t22 -77.5t33.5 -56.5
t45.5 -29.5q132 -30 228.5 95t111.5 341q10 99 1.5 179t-20.5 138t-36 102t-44 71.5t-44.5 47t-38.5 27.5t-26 13l-3 1.5t-2 0.5q-26 12 -19.5 36.5t33.5 24.5q30 -4 45 -8q1 19 -2.5 40t-12 43t-26.5 36.5t-43 15.5zM528 1206q15 2 27.5 -7.5t15.5 -24.5q2 -15 -6.5 -27.5
t-23.5 -13.5q-15 -2 -28.5 7.5t-14.5 24.5q-3 15 6 27t24 14zM643 1206q15 1 27.5 -8.5t15.5 -23.5q3 -15 -6.5 -28t-24.5 -16q-15 0 -27.5 10t-15.5 25q-3 13 6.5 25.5t24.5 15.5z" />
    <glyph glyph-name="multiply" unicode="&#xd7;" horiz-adv-x="231" 
d="M174 328q2 -3 6 -9.5t6 -9.5q9 -19 0 -28q-2 -5 -6 -9q-13 -4 -24 2q-2 1 -5.5 3.5t-5.5 3.5q-8 4 -14 10q-8 8 -14 12q-1 -1 -2 -3t-2 -3l-15 -10q-4 -4 -6 -4q-4 -4 -6 -4q-4 -5 -8 -7q-12 -4 -23 4q-12 10 -16 25q0 15 12 27l10 10q1 1 5 4.5t6 5.5l-4 4q-4 6 -13 15
q-2 4 -6 8l-4 4q-2 4 -4 10q-5 14 2 21q13 16 25 16t26 -14q1 -1 4.5 -5t5.5 -6q6 -3 13 -10q2 2 7 6t7 6q14 9 19 11q17 8 28 0q4 -2 8 -8q6 -11 0 -25q-2 -2 -6 -10q-3 -6 -10 -13q-2 -4 -10 -12q6 -6 14 -18z" />
    <glyph glyph-name="Oslash" unicode="&#xd8;" horiz-adv-x="919" 
d="M475 -227q-117 11 -192 86q-41 -61 -52 -58l-5 4q-10 19 21 91l1 2q-45 62 -70 152t-28.5 174t0 159.5t10.5 121.5l8 46q15 105 45 191.5t66.5 140.5t77 94.5t78.5 60t68.5 31.5t48.5 14l19 2h14t32 -5.5t42.5 -16t38.5 -35.5t27 -59q4 -51 -12 -84q27 -18 49 -43
q45 72 63 61q20 -6 17 -33.5t-37 -93.5q25 -49 40.5 -114.5t20 -123.5t5.5 -109.5t-1 -81.5l-2 -30q-9 -95 -27.5 -174.5t-43.5 -133t-54.5 -96t-60 -67t-61 -41.5t-56.5 -23t-46.5 -8.5t-32.5 -1.5zM758 692q-2 -4 -66.5 -123.5t-104.5 -192.5t-104 -186t-110 -190
q28 -146 100 -162q132 -30 228.5 95t111.5 341q18 264 -55 418zM575 1042q-4 -1 -11 -5t-27 -22t-39 -44t-43 -77t-43 -114.5t-35 -161.5t-23 -215q-10 -147 2 -290q181 353 359 651q-18 23 -39 41.5t-35 27t-27 14.5t-14 7q-26 12 -19.5 36.5t33.5 24.5q30 -4 45 -8
q1 19 -2.5 40t-12 43t-26.5 36.5t-43 15.5z" />
    <glyph glyph-name="Ugrave" unicode="&#xd9;" horiz-adv-x="815" 
d="M758 598q-10 -240 -48.5 -413t-85.5 -249t-92.5 -117.5t-76.5 -43.5l-31 -2q-61 -3 -112.5 15.5t-85.5 51.5t-61 77t-42 93.5t-25.5 99t-13.5 94.5t-4.5 80t-0.5 56l1 20q4 206 40.5 432t61.5 285q3 10 17 10q116 0 116 -30q-35 -345 -41 -705l-2 -127q5 -334 96 -401
q23 -17 52 -14q51 5 91.5 44t67 103.5t45 142t27.5 168.5t12.5 172t2.5 164q-8 465 43 477q18 4 30 -3.5t18 -26t7.5 -25.5t3.5 -22q2 -5 -10 -406zM592 1176q1 -1 6 -11v-10l-4 -10q-2 -4 -10 -8q-1 0 -4 -1t-5 -1h-8q-17 3 -43 16q-24 16 -37 29q-5 5 -10 12t-7 12l-3 4
q-5 15 -4.5 24.5t3.5 13.5l3 3q8 6 18 6l11 -4q6 -4 51 -39q5 -4 13.5 -11.5t12.5 -10.5q13 -7 17 -14z" />
    <glyph glyph-name="Uacute" unicode="&#xda;" horiz-adv-x="815" 
d="M758 598q-10 -240 -48.5 -413t-85.5 -249t-92.5 -117.5t-76.5 -43.5l-31 -2q-61 -3 -112.5 15.5t-85.5 51.5t-61 77t-42 93.5t-25.5 99t-13.5 94.5t-4.5 80t-0.5 56l1 20q4 206 40.5 432t61.5 285q3 10 17 10q116 0 116 -30q-35 -345 -41 -705l-2 -127q5 -334 96 -401
q23 -17 52 -14q51 5 91.5 44t67 103.5t45 142t27.5 168.5t12.5 172t2.5 164q-8 465 43 477q18 4 30 -3.5t18 -26t7.5 -25.5t3.5 -22q2 -5 -10 -406zM563 1247q2 -1 3.5 -3.5t4.5 -13t-2 -24.5q-6 -16 -16 -28q-17 -17 -35 -29q-23 -13 -41 -16h-10q-1 0 -3 1t-3 1
q-10 3 -12 8q-3 4 -5 10v10q0 9 5 11q3 7 14 14q8 6 24 22q34 29 48 39l8 4q12 0 20 -6z" />
    <glyph glyph-name="Ucircumflex" unicode="&#xdb;" horiz-adv-x="815" 
d="M758 598q-10 -240 -48.5 -413t-85.5 -249t-92.5 -117.5t-76.5 -43.5l-31 -2q-61 -3 -112.5 15.5t-85.5 51.5t-61 77t-42 93.5t-25.5 99t-13.5 94.5t-4.5 80t-0.5 56l1 20q4 206 40.5 432t61.5 285q3 10 17 10q116 0 116 -30q-35 -345 -41 -705l-2 -127q5 -334 96 -401
q23 -17 52 -14q51 5 91.5 44t67 103.5t45 142t27.5 168.5t12.5 172t2.5 164q-8 465 43 477q18 4 30 -3.5t18 -26t7.5 -25.5t3.5 -22q2 -5 -10 -406zM606 1165l4 -8v-6l-4 -6q-1 -3 -8 -6h-8h-8q-18 4 -35 12q-7 4 -19.5 12t-13.5 8v0q-10 -7 -31 -18q-9 -4 -37 -10
q-4 0 -8 2h-6q-8 4 -10 8q-2 2 -2 6q-3 3 0 6q0 5 4 9q6 6 12 10q4 2 11.5 6t11.5 6q6 4 15.5 10.5t16.5 10.5t11 6h2q4 2 10 2t10 -2l2 -2q6 -2 21.5 -13.5t21.5 -15.5q5 -3 13 -8t10 -6q3 -3 7.5 -7t6.5 -6z" />
    <glyph glyph-name="Udieresis" unicode="&#xdc;" horiz-adv-x="815" 
d="M758 598q-10 -240 -48.5 -413t-85.5 -249t-92.5 -117.5t-76.5 -43.5l-31 -2q-61 -3 -112.5 15.5t-85.5 51.5t-61 77t-42 93.5t-25.5 99t-13.5 94.5t-4.5 80t-0.5 56l1 20q4 206 40.5 432t61.5 285q3 10 17 10q116 0 116 -30q-35 -345 -41 -705l-2 -127q5 -334 96 -401
q23 -17 52 -14q51 5 91.5 44t67 103.5t45 142t27.5 168.5t12.5 172t2.5 164q-8 465 43 477q18 4 30 -3.5t18 -26t7.5 -25.5t3.5 -22q2 -5 -10 -406zM442 1206q15 2 27.5 -7.5t15.5 -24.5q2 -15 -6.5 -27.5t-23.5 -13.5q-15 -2 -28.5 7.5t-14.5 24.5q-3 15 6 27t24 14z
M557 1206q15 1 27.5 -8.5t15.5 -23.5q3 -15 -6.5 -28t-24.5 -16q-15 0 -27.5 10t-15.5 25q-3 13 6.5 25.5t24.5 15.5z" />
    <glyph glyph-name="Yacute" unicode="&#xdd;" horiz-adv-x="708" 
d="M678 868q3 -16 2.5 -68.5t-3.5 -133t-14 -176t-27.5 -195t-45.5 -192t-66.5 -165.5t-93 -118t-121.5 -47q-3 0 -9 -0.5t-24 2t-35.5 9t-41 22.5t-43.5 39.5t-40.5 63t-33.5 89.5q-1 6 -2.5 16t-2.5 36.5t2 48t15 41t33 24.5q3 -1 6.5 -3.5t9 -13t2.5 -24.5
q-3 -15 -4.5 -46.5t3.5 -81.5t19 -92.5t49 -72t87 -27.5q5 0 14.5 1.5t34.5 19t46.5 49t45.5 102t37 166.5q22 147 29 373q-21 -74 -52 -130.5t-59.5 -83t-54.5 -42.5t-42 -19l-15 -3q-47 -1 -85 19t-61.5 52t-41 71t-25.5 78.5t-13 72t-5 53.5l-1 20q-4 144 17.5 280
t40.5 193q7 10 16 10q37 3 77 -2.5t40 -25.5q1 -6 -0.5 -74t-2.5 -164t1 -217v-25.5v-59.5t4 -80.5t10 -75.5t19 -59t30 -17q66 14 124.5 137.5t78.5 368.5q0 155 2 167q0 1 0.5 2.5t1.5 6.5t2.5 9.5t3.5 11t4 12t5 10.5t5.5 9t6 6t6.5 1l9 -2q8 -2 15 -4t19 -7t22 -12
t22 -19.5t20.5 -27.5t16 -37.5t11.5 -48.5zM494 1247q2 -1 3.5 -3.5t4.5 -13t-2 -24.5q-7 -16 -17 -28q-19 -19 -34 -29q-23 -13 -41 -16h-11q-1 0 -3 1t-3 1q-10 3 -12 8q-2 4 -4 10v10q0 9 4 11q3 7 14 14q12 9 25 22q37 32 47 39l8 4q13 0 21 -6z" />
    <glyph glyph-name="germandbls" unicode="&#xdf;" horiz-adv-x="565" 
d="M342 578q33 -11 66 -27t71.5 -50.5t46.5 -72.5q26 -150 -10 -235q-3 -12 -8.5 -31.5t-24.5 -69.5t-39 -88.5t-50.5 -70t-61.5 -31.5q-3 0 -8.5 0.5t-20 6t-26 15t-21.5 29t-12 45.5q-2 43 5 83t15 60t12 19q21 2 25 -8q1 -3 2.5 -6.5t1.5 -8.5q0 -1 -3 -15.5t-5 -29
t0 -29t10 -20.5q6 -5 21.5 5.5t33.5 38.5t33.5 68t22.5 102.5t0 133.5q-4 33 -32 61t-57.5 46.5t-31.5 23.5q-5 8 -5.5 17.5t0.5 24t1 20.5q0 10 6.5 22t12.5 18l7 7q12 26 22.5 66t15.5 67l5 27q0 42 -10 75.5t-22 52.5t-35.5 36t-37.5 23.5t-40 16.5q-5 0 -8 -6
q-4 -5 -4.5 -50t1 -116.5t1.5 -87.5q-1 -11 -1 -26.5t0.5 -38.5t0.5 -37v-94q0 -51 -4 -101q-20 -347 -27 -383q-5 -32 -9 -54q-1 -7 -1 -9q-1 -4 -12 -29t-15 -37q-3 -8 -7 -13t-6 -6t-8.5 -2.5t-8.5 -2.5q-6 -2 -12.5 3.5t-9.5 12.5l-3 6q-11 13 -20.5 136.5t-6.5 189.5
q1 45 -2.5 302.5t-3.5 293.5q-1 35 4.5 68t10 48t14.5 38t10 24q8 27 47 51q15 8 64 -2q10 -3 26 -16q134 -34 179 -99q56 -81 49 -190q-2 -42 -29 -98.5t-84 -91.5z" />
    <glyph glyph-name="agrave" unicode="&#xe0;" horiz-adv-x="614" 
d="M233 55q-41 -22 -76 -14t-58 29l-23 22q-43 50 -51 139.5t36 198.5q18 39 44 68t52 42t53.5 21.5t47 7t33.5 -1.5q18 -2 37.5 -38t29.5 -71l11 -36q37 151 63 194q24 36 53 53t74 9q18 -3 23.5 -35.5t-0.5 -76t-14.5 -86.5t-16.5 -73l-8 -30q-18 -88 -22 -168t0.5 -124
t11 -82.5t6.5 -45.5q0 -16 -4.5 -19.5t-13 -1.5t-11.5 1q-7 -2 -15 -1t-15 3l-7 2q-22 8 -47.5 80t-26.5 153q-2 52 9 128t22 126l12 51q-13 -17 -54 -117.5t-85 -195.5t-70 -111zM281 532q-23 2 -58 -59t-59 -151q-16 -64 -13.5 -108t16.5 -66t32 -19t33 17.5t30.5 44
t26 54.5t29.5 72t30 74q-2 6 -4.5 15t-10.5 33t-16 42.5t-18 34t-18 16.5zM369 657q2 -2 6 -10v-10l-4 -10q-2 -5 -11 -9q-1 0 -3.5 -1t-4.5 -1h-8q-14 2 -43 17q-24 16 -37 29q-5 5 -10 12t-8 12l-2 4q-5 15 -4.5 24.5t3.5 13.5l3 3q8 6 18 6l10 -4q13 -9 52 -39
q5 -4 13.5 -11.5t12.5 -10.5q13 -6 17 -15z" />
    <glyph glyph-name="aacute" unicode="&#xe1;" horiz-adv-x="614" 
d="M233 55q-41 -22 -76 -14t-58 29l-23 22q-43 50 -51 139.5t36 198.5q18 39 44 68t52 42t53.5 21.5t47 7t33.5 -1.5q18 -2 37.5 -38t29.5 -71l11 -36q37 151 63 194q24 36 53 53t74 9q18 -3 23.5 -35.5t-0.5 -76t-14.5 -86.5t-16.5 -73l-8 -30q-18 -88 -22 -168t0.5 -124
t11 -82.5t6.5 -45.5q0 -16 -4.5 -19.5t-13 -1.5t-11.5 1q-7 -2 -15 -1t-15 3l-7 2q-22 8 -47.5 80t-26.5 153q-2 52 9 128t22 126l12 51q-13 -17 -54 -117.5t-85 -195.5t-70 -111zM281 532q-23 2 -58 -59t-59 -151q-16 -64 -13.5 -108t16.5 -66t32 -19t33 17.5t30.5 44
t26 54.5t29.5 72t30 74q-2 6 -4.5 15t-10.5 33t-16 42.5t-18 34t-18 16.5zM373 727q2 -1 3.5 -3.5t4.5 -13t-2 -24.5q-7 -17 -17 -29q-16 -16 -34 -28q-25 -14 -41 -17h-11q-1 0 -3 1t-3 1q-9 3 -12 9q-2 4 -4 10v10q0 8 4 10q4 9 14 15q12 9 25 22q37 32 47 39l8 4
q13 0 21 -6z" />
    <glyph glyph-name="acircumflex" unicode="&#xe2;" horiz-adv-x="614" 
d="M233 55q-41 -22 -76 -14t-58 29l-23 22q-43 50 -51 139.5t36 198.5q18 39 44 68t52 42t53.5 21.5t47 7t33.5 -1.5q18 -2 37.5 -38t29.5 -71l11 -36q37 151 63 194q24 36 53 53t74 9q18 -3 23.5 -35.5t-0.5 -76t-14.5 -86.5t-16.5 -73l-8 -30q-18 -88 -22 -168t0.5 -124
t11 -82.5t6.5 -45.5q0 -16 -4.5 -19.5t-13 -1.5t-11.5 1q-7 -2 -15 -1t-15 3l-7 2q-22 8 -47.5 80t-26.5 153q-2 52 9 128t22 126l12 51q-13 -17 -54 -117.5t-85 -195.5t-70 -111zM281 532q-23 2 -58 -59t-59 -151q-16 -64 -13.5 -108t16.5 -66t32 -19t33 17.5t30.5 44
t26 54.5t29.5 72t30 74q-2 6 -4.5 15t-10.5 33t-16 42.5t-18 34t-18 16.5zM383 637l4 -8v-6l-4 -7q-1 -3 -8 -6h-8h-9q-13 3 -34 13q-7 4 -19.5 12t-13.5 8v0q-10 -7 -31 -18q-12 -6 -37 -11q-4 0 -8 2h-6q-7 4 -10 9q-2 2 -2 6q-3 3 0 6q0 4 4 8q6 6 12 10q4 2 11.5 6.5
t11.5 6.5q39 24 43 26h2q4 2 10 2t10 -2l2 -2q4 -2 11 -6.5t16.5 -11t15.5 -10.5q5 -4 13.5 -9.5t9.5 -5.5q3 -3 7.5 -6.5t6.5 -5.5z" />
    <glyph glyph-name="atilde" unicode="&#xe3;" horiz-adv-x="614" 
d="M233 55q-41 -22 -76 -14t-58 29l-23 22q-43 50 -51 139.5t36 198.5q18 39 44 68t52 42t53.5 21.5t47 7t33.5 -1.5q18 -2 37.5 -38t29.5 -71l11 -36q37 151 63 194q24 36 53 53t74 9q18 -3 23.5 -35.5t-0.5 -76t-14.5 -86.5t-16.5 -73l-8 -30q-18 -88 -22 -168t0.5 -124
t11 -82.5t6.5 -45.5q0 -16 -4.5 -19.5t-13 -1.5t-11.5 1q-7 -2 -15 -1t-15 3l-7 2q-22 8 -47.5 80t-26.5 153q-2 52 9 128t22 126l12 51q-13 -17 -54 -117.5t-85 -195.5t-70 -111zM281 532q-23 2 -58 -59t-59 -151q-16 -64 -13.5 -108t16.5 -66t32 -19t33 17.5t30.5 44
t26 54.5t29.5 72t30 74q-2 6 -4.5 15t-10.5 33t-16 42.5t-18 34t-18 16.5zM287 698q88 30 104 -32q6 -25 -8 -27q-6 -1 -16 9t-21 9q-3 0 -22 -5.5t-36.5 -8.5t-39.5 6t-35 33q-23 35 2 41q11 3 34 -14t38 -11z" />
    <glyph glyph-name="adieresis" unicode="&#xe4;" horiz-adv-x="614" 
d="M233 55q-41 -22 -76 -14t-58 29l-23 22q-43 50 -51 139.5t36 198.5q18 39 44 68t52 42t53.5 21.5t47 7t33.5 -1.5q18 -2 37.5 -38t29.5 -71l11 -36q37 151 63 194q24 36 53 53t74 9q18 -3 23.5 -35.5t-0.5 -76t-14.5 -86.5t-16.5 -73l-8 -30q-18 -88 -22 -168t0.5 -124
t11 -82.5t6.5 -45.5q0 -16 -4.5 -19.5t-13 -1.5t-11.5 1q-7 -2 -15 -1t-15 3l-7 2q-22 8 -47.5 80t-26.5 153q-2 52 9 128t22 126l12 51q-13 -17 -54 -117.5t-85 -195.5t-70 -111zM281 532q-23 2 -58 -59t-59 -151q-16 -64 -13.5 -108t16.5 -66t32 -19t33 17.5t30.5 44
t26 54.5t29.5 72t30 74q-2 6 -4.5 15t-10.5 33t-16 42.5t-18 34t-18 16.5zM246 688q15 1 27.5 -8.5t15.5 -24.5q2 -15 -7 -27.5t-24 -13.5q-15 -2 -28.5 8t-14.5 25q-3 15 6.5 27t24.5 14zM360 688q15 1 27.5 -9t15.5 -24q3 -15 -6 -27.5t-24 -15.5q-15 0 -27.5 10t-15.5 25
q-3 13 6 25.5t24 15.5z" />
    <glyph glyph-name="aring" unicode="&#xe5;" horiz-adv-x="614" 
d="M233 55q-41 -22 -76 -14t-58 29l-23 22q-43 50 -51 139.5t36 198.5q18 39 44 68t52 42t53.5 21.5t47 7t33.5 -1.5q18 -2 37.5 -38t29.5 -71l11 -36q37 151 63 194q24 36 53 53t74 9q18 -3 23.5 -35.5t-0.5 -76t-14.5 -86.5t-16.5 -73l-8 -30q-18 -88 -22 -168t0.5 -124
t11 -82.5t6.5 -45.5q0 -16 -4.5 -19.5t-13 -1.5t-11.5 1q-7 -2 -15 -1t-15 3l-7 2q-22 8 -47.5 80t-26.5 153q-2 52 9 128t22 126l12 51q-13 -17 -54 -117.5t-85 -195.5t-70 -111zM281 532q-23 2 -58 -59t-59 -151q-16 -64 -13.5 -108t16.5 -66t32 -19t33 17.5t30.5 44
t26 54.5t29.5 72t30 74q-2 6 -4.5 15t-10.5 33t-16 42.5t-18 34t-18 16.5zM315 698q20 0 33.5 -13t13.5 -32q2 -19 -9.5 -32t-30.5 -13t-33.5 13.5t-14.5 31.5q-1 18 11 31.5t30 13.5zM319 635q8 0 13.5 5.5t5.5 12.5q-4 19 -21 19q-16 0 -16 -19q0 -7 5.5 -12.5t12.5 -5.5z
" />
    <glyph glyph-name="ae" unicode="&#xe6;" horiz-adv-x="878" 
d="M821 166q19 20 27 0q8 -14 0 -37q-2 -8 -30.5 -35t-81 -53.5t-101.5 -22.5q-47 3 -88 23q2 -16 5.5 -36t5 -31t1.5 -17q0 -16 -4.5 -19.5t-13 -1.5t-11.5 1q-6 -2 -14 -1t-15 3l-7 2q-22 8 -46.5 80t-27.5 153q0 28 4 90q1 4 2 12.5t2 12.5q0 10 4 28q5 38 13 78.5
t13 62.5l5 21q-12 -17 -52.5 -117.5t-84.5 -195.5t-70 -111q-42 -22 -77.5 -14t-58.5 29l-24 22q-42 50 -49 139.5t37 198.5q17 39 43 68t51.5 42t52.5 21.5t46.5 7t33.5 -1.5q19 -2 39 -38t30 -71l11 -36q36 148 64 194q47 77 127 62q33 -8 22 -111q51 26 103 15
q2 -1 6 -2.5t15.5 -7t20 -13t20.5 -20t17 -27t9 -35t-4 -43.5q-16 -64 -84 -98t-117 -25q-4 -16 -6 -26q-1 -9 -2.5 -23.5t-2.5 -52.5t3 -67.5t18.5 -54t38.5 -26.5q58 -4 111 34.5t71 70.5zM721 537q-9 2 -19 2.5t-23.5 -12t-26.5 -32t-27.5 -57t-26.5 -86.5q94 5 123 51
q28 43 27 82t-27 52zM219 129q13 3 24.5 11t23 24t20.5 32t20 42t19.5 46t21 53t21.5 54q-2 6 -4.5 15t-10.5 33t-15.5 42.5t-17.5 34t-18 16.5q-23 2 -59 -59.5t-58 -150.5q-16 -64 -14 -108t15.5 -66t31.5 -19z" />
    <glyph glyph-name="ccedilla" unicode="&#xe7;" horiz-adv-x="434" 
d="M258 -47v-14q0 -5 -2 -5v-6l-2 -2l-6 -12q-5 -10 -21 -18q-1 0 -3 -1t-3 -1q-3 -3 -6 -3v-2h-10q-8 -2 -23 -2q0 2 -4 2h-4l-12 5l-8 6l-11 6l-8 16q-4 12 -4 29q1 7 3 12.5t4.5 8t4.5 1.5h2l5 -4q1 -1 4 -10l4 -8q0 -2 4 -10l4 -9l6 -4q2 -2 4 -2h25l10 6l4 5v2l2 2v10
q-2 2 -2 6q-2 2 -4 2l-2 2h-2v2h-6q-31 0 -33 12q-6 19 6 25l12 14l9 9q0 1 1 2t1 2h2q0 2 2 2h-2q-30 4 -59.5 15.5t-57.5 34.5t-47.5 53.5t-28 76.5t-0.5 100q6 74 39 137q99 183 225 154q3 -1 8.5 -2.5t18.5 -8t23 -14.5t16.5 -22t3.5 -31q-2 -5 -4.5 -12t-12.5 -17.5
t-20 -7.5q-28 8 -16 68q3 12 -6 11q-20 -3 -49 -50q-45 -75 -70 -209q-1 -9 -3 -24.5t-3 -54.5t3 -69t18.5 -55.5t39.5 -27.5q58 -4 111.5 35t70.5 73l2 2t4.5 2.5t5.5 1.5t4 -3t1 -9q0 -13 6 -19.5t6 -9.5q0 -6 -23 -30t-66 -51t-85 -35q-4 -4 -11 -13t-12 -14l-4 -4v-2
l13 -6q10 -10 14 -25z" />
    <glyph glyph-name="egrave" unicode="&#xe8;" horiz-adv-x="432" 
d="M45 422q16 28 36 54.5t50.5 56.5t70.5 44t81 5q2 -1 6 -2.5t15.5 -7t20 -13t20.5 -20t17 -27t9 -35t-4 -43.5q-16 -64 -83 -98t-118 -25q-4 -16 -6 -26q-1 -9 -2.5 -23.5t-2.5 -52.5t3.5 -67.5t19 -54t39.5 -26.5q58 -4 111.5 34.5t68.5 70.5q19 20 29 0q6 -14 -2 -37
q-1 -4 -12 -16.5t-32 -29.5t-46.5 -32.5t-58.5 -25t-64 -7.5q-39 2 -77 19t-72 47.5t-51 84t-7 120.5q6 72 41 133zM299 537q-9 2 -20 2.5t-24.5 -12t-26.5 -32t-27.5 -57t-26.5 -86.5q94 5 123 51q28 43 27 82t-25 52zM317 653q4 -4 7 -10v-10l-5 -10q-3 -5 -10 -9
q-1 0 -3.5 -1t-4.5 -1h-8q-14 2 -43 17q-27 18 -37 28q-5 5 -10 12.5t-7 12.5l-3 4q-5 15 -4.5 24.5t3.5 13.5l3 3q8 6 18 6l10 -4q6 -4 51 -39q4 -3 13 -11t14 -11q11 -6 16 -15z" />
    <glyph glyph-name="eacute" unicode="&#xe9;" horiz-adv-x="432" 
d="M45 422q16 28 36 54.5t50.5 56.5t70.5 44t81 5q2 -1 6 -2.5t15.5 -7t20 -13t20.5 -20t17 -27t9 -35t-4 -43.5q-16 -64 -83 -98t-118 -25q-4 -16 -6 -26q-1 -9 -2.5 -23.5t-2.5 -52.5t3.5 -67.5t19 -54t39.5 -26.5q58 -4 111.5 34.5t68.5 70.5q19 20 29 0q6 -14 -2 -37
q-1 -4 -12 -16.5t-32 -29.5t-46.5 -32.5t-58.5 -25t-64 -7.5q-39 2 -77 19t-72 47.5t-51 84t-7 120.5q6 72 41 133zM299 537q-9 2 -20 2.5t-24.5 -12t-26.5 -32t-27.5 -57t-26.5 -86.5q94 5 123 51q28 43 27 82t-25 52zM319 733q2 -1 4 -3.5t5 -13t-2 -24.5q-7 -16 -17 -28
q-17 -17 -35 -29q-25 -14 -41 -17h-10q-1 0 -3 1.5t-3 1.5q-10 3 -12 8q-2 4 -4 10v10q0 8 4 10q4 9 14 15q12 9 25 22q37 32 47 39l8 4q12 0 20 -6z" />
    <glyph glyph-name="ecircumflex" unicode="&#xea;" horiz-adv-x="432" 
d="M45 422q16 28 36 54.5t50.5 56.5t70.5 44t81 5q2 -1 6 -2.5t15.5 -7t20 -13t20.5 -20t17 -27t9 -35t-4 -43.5q-16 -64 -83 -98t-118 -25q-4 -16 -6 -26q-1 -9 -2.5 -23.5t-2.5 -52.5t3.5 -67.5t19 -54t39.5 -26.5q58 -4 111.5 34.5t68.5 70.5q19 20 29 0q6 -14 -2 -37
q-1 -4 -12 -16.5t-32 -29.5t-46.5 -32.5t-58.5 -25t-64 -7.5q-39 2 -77 19t-72 47.5t-51 84t-7 120.5q6 72 41 133zM299 537q-9 2 -20 2.5t-24.5 -12t-26.5 -32t-27.5 -57t-26.5 -86.5q94 5 123 51q28 43 27 82t-25 52zM344 647l4 -8v-6l-4 -6q-1 -3 -8 -6h-8h-9
q-17 3 -34 12q-7 4 -19.5 12t-13.5 8v0q-10 -7 -31 -18q-9 -4 -37 -10q-4 0 -8 2h-6q-8 4 -10 8q-2 2 -2 6q-3 3 0 6q0 4 4 8q9 9 12 11q4 2 11.5 6t11.5 6q6 4 15.5 10.5t16.5 10.5t11 6h2q4 2 10 2t10 -2l2 -3q4 -2 11 -6.5t16.5 -11t15.5 -10.5q5 -4 13.5 -9.5t9.5 -5.5
q3 -3 7.5 -6.5t6.5 -5.5z" />
    <glyph glyph-name="edieresis" unicode="&#xeb;" horiz-adv-x="432" 
d="M45 422q16 28 36 54.5t50.5 56.5t70.5 44t81 5q2 -1 6 -2.5t15.5 -7t20 -13t20.5 -20t17 -27t9 -35t-4 -43.5q-16 -64 -83 -98t-118 -25q-4 -16 -6 -26q-1 -9 -2.5 -23.5t-2.5 -52.5t3.5 -67.5t19 -54t39.5 -26.5q58 -4 111.5 34.5t68.5 70.5q19 20 29 0q6 -14 -2 -37
q-1 -4 -12 -16.5t-32 -29.5t-46.5 -32.5t-58.5 -25t-64 -7.5q-39 2 -77 19t-72 47.5t-51 84t-7 120.5q6 72 41 133zM299 537q-9 2 -20 2.5t-24.5 -12t-26.5 -32t-27.5 -57t-26.5 -86.5q94 5 123 51q28 43 27 82t-25 52zM190 698q15 2 27.5 -7.5t15.5 -24.5q2 -15 -6.5 -27.5
t-23.5 -13.5q-15 -2 -28.5 7.5t-14.5 24.5q-3 15 6 27t24 14zM305 698q15 1 27.5 -8.5t15.5 -23.5q3 -15 -6.5 -27.5t-24.5 -15.5q-15 0 -27.5 9.5t-15.5 24.5q-3 13 6.5 25.5t24.5 15.5z" />
    <glyph glyph-name="igrave" unicode="&#xec;" horiz-adv-x="186" 
d="M143 457q-1 -14 -2.5 -95.5t-3.5 -130.5q-2 -35 -2 -81.5t-1 -70.5t-5 -26q-47 -9 -53 -4q-49 0 -53 29q-4 31 -6.5 129.5t3.5 161.5q8 57 23 110t25 53q5 0 17 1.5t20 1.5t12 -3q8 -8 17 -30.5t9 -44.5zM152 621q1 -1 6 -11v-10l-4 -10q-2 -3 -11 -8q-1 0 -3.5 -1
t-4.5 -1h-8q-16 3 -43 16q-24 16 -37 29q-5 5 -10 12t-7 11l-3 5q-5 15 -4.5 24.5t3.5 12.5l3 4q8 6 18 6l10 -4q13 -9 52 -39q5 -4 13.5 -11.5t12.5 -10.5q13 -7 17 -14z" />
    <glyph glyph-name="iacute" unicode="&#xed;" horiz-adv-x="186" 
d="M143 457q-1 -14 -2.5 -95.5t-3.5 -130.5q-2 -35 -2 -81.5t-1 -70.5t-5 -26q-47 -9 -53 -4q-49 0 -53 29q-4 31 -6.5 129.5t3.5 161.5q8 57 23 110t25 53q5 0 17 1.5t20 1.5t12 -3q8 -8 17 -30.5t9 -44.5zM154 690q2 -1 3.5 -3.5t4.5 -13t-2 -24.5q-7 -16 -17 -28
q-19 -19 -34 -29q-25 -14 -41 -17h-11q-1 0 -3 1.5t-3 1.5q-10 3 -12 8q-2 4 -4 10v10q0 8 4 10q4 8 14 15q12 9 25 22q37 32 47 39l8 4q13 0 21 -6z" />
    <glyph glyph-name="icircumflex" unicode="&#xee;" horiz-adv-x="186" 
d="M143 457q-1 -14 -2.5 -95.5t-3.5 -130.5q-2 -35 -2 -81.5t-1 -70.5t-5 -26q-47 -9 -53 -4q-49 0 -53 29q-4 31 -6.5 129.5t3.5 161.5q8 57 23 110t25 53q5 0 17 1.5t20 1.5t12 -3q8 -8 17 -30.5t9 -44.5zM190 606q2 -2 5 -8v-6l-5 -6q-1 -3 -8 -6h-8h-8q-18 4 -35 12
q-7 4 -19.5 12t-13.5 8v0q-12 -9 -30 -18q-9 -4 -37 -10q-4 0 -8 2h-7q-8 4 -10 8q-2 2 -2 6q-3 3 0 6q0 4 4 8q9 9 12 11q4 2 11.5 6t11.5 6q6 4 15.5 10.5t16.5 10.5t11 6h2q4 2 10 2q7 0 11 -2l2 -2q6 -2 21.5 -13.5t21.5 -15.5q4 -3 22 -15q3 -3 7.5 -6.5t6.5 -5.5z" />
    <glyph glyph-name="idieresis" unicode="&#xef;" horiz-adv-x="186" 
d="M143 457q-1 -14 -2.5 -95.5t-3.5 -130.5q-2 -35 -2 -81.5t-1 -70.5t-5 -26q-47 -9 -53 -4q-49 0 -53 29q-4 31 -6.5 129.5t3.5 161.5q8 57 23 110t25 53q5 0 17 1.5t20 1.5t12 -3q8 -8 17 -30.5t9 -44.5zM31 651q15 1 27.5 -8.5t15.5 -24.5q2 -15 -7 -27t-24 -13
q-15 -2 -28.5 7.5t-14.5 24.5q-3 15 6.5 27t24.5 14zM145 651q15 1 27.5 -9t15.5 -24q3 -15 -6 -27.5t-24 -15.5q-15 0 -27.5 10t-15.5 25q-3 13 6 25.5t24 15.5z" />
    <glyph glyph-name="ntilde" unicode="&#xf1;" horiz-adv-x="473" 
d="M145 25q-65 -4 -102 57q-19 31 -24 123.5t0 183t14 168.5q2 9 5 21.5t14.5 33.5t25.5 21q17 0 45.5 -17t34.5 -36q1 -2 7 -20.5t10 -33.5t9 -38.5t8 -52t3 -58.5q0 -13 -2 -19q19 51 37 92.5t43.5 88t53.5 71t54 19.5q5 0 13.5 -1t28 -13.5t30 -35.5t10 -73t-20.5 -119
q-28 -98 -37 -181.5t-2.5 -127t21.5 -53.5q2 -2 4.5 -5.5t6 -12.5t-2.5 -13q-8 -4 -26.5 -6t-41.5 12.5t-28 42.5q-17 105 4 256q3 24 7.5 57t8 56t7 49t4 43.5t-1.5 32.5t-7.5 22.5t-15.5 7.5q-13 0 -46 -65.5t-69.5 -178.5t-48.5 -217v7q-14 -88 -33 -88zM252 729
q13 5 27 7t30.5 1t29 -11.5t17.5 -29.5q6 -24 -8 -26q-6 -1 -16 9t-21 9q-3 0 -22 -5.5t-36.5 -8.5t-39.5 6t-35 33q-23 35 2 41q11 3 34 -14t38 -11z" />
    <glyph glyph-name="ograve" unicode="&#xf2;" horiz-adv-x="442" 
d="M199 6q-38 2 -75 15t-70 38t-50 69.5t-10 102.5q4 62 33 113q23 37 41 57q8 71 54.5 122t108.5 52q56 1 98.5 -87t45.5 -197q38 17 47 26q10 3 16 -14q2 -7 0.5 -14t-4.5 -13l-2 -6q-28 -28 -59 -39q-5 -38 -8 -51q-10 -45 -31 -79.5t-43.5 -51.5t-43.5 -27.5t-35 -13.5z
M225 532q-34 -6 -69 -63q40 16 82 8q4 -1 8.5 -3.5t12 -12.5t-4.5 -23q-3 -4 -15.5 -11.5t-24 -16.5t-27.5 -37.5t-29 -71.5q38 -33 102 -43q29 -5 80 16q-4 90 -42.5 175.5t-72.5 82.5zM338 223q-46 -9 -98.5 0t-94.5 31q0 -7 -4 -23q-1 -7 -2 -19.5t-0.5 -44.5t5.5 -56.5
t19.5 -45.5t37.5 -22q30 -2 78 52t59 128zM274 655q4 -4 7 -10v-10l-5 -10q-3 -5 -10 -9q-1 0 -3.5 -1t-4.5 -1h-8q-13 2 -43 17q-27 18 -37 28q-5 5 -10 12.5t-8 12.5l-2 4q-5 15 -4.5 24.5t3.5 13.5l3 3q8 6 18 6l10 -4q6 -4 51 -39q4 -3 13 -11t14 -11q11 -6 16 -15z" />
    <glyph glyph-name="oacute" unicode="&#xf3;" horiz-adv-x="442" 
d="M199 6q-38 2 -75 15t-70 38t-50 69.5t-10 102.5q4 62 33 113q23 37 41 57q8 71 54.5 122t108.5 52q56 1 98.5 -87t45.5 -197q38 17 47 26q10 3 16 -14q2 -7 0.5 -14t-4.5 -13l-2 -6q-28 -28 -59 -39q-5 -38 -8 -51q-10 -45 -31 -79.5t-43.5 -51.5t-43.5 -27.5t-35 -13.5z
M225 532q-34 -6 -69 -63q40 16 82 8q4 -1 8.5 -3.5t12 -12.5t-4.5 -23q-3 -4 -15.5 -11.5t-24 -16.5t-27.5 -37.5t-29 -71.5q38 -33 102 -43q29 -5 80 16q-4 90 -42.5 175.5t-72.5 82.5zM338 223q-46 -9 -98.5 0t-94.5 31q0 -7 -4 -23q-1 -7 -2 -19.5t-0.5 -44.5t5.5 -56.5
t19.5 -45.5t37.5 -22q30 -2 78 52t59 128zM293 731q2 -1 3.5 -3.5t4.5 -13t-2 -24.5q-6 -16 -16 -28q-17 -17 -35 -29q-25 -14 -41 -17h-10q-1 0 -3.5 1t-3.5 1q-9 3 -12 9q-2 4 -4 10v10q0 8 4 10q4 7 15 15q8 6 24 22q37 32 47 39l8 4q13 0 21 -6z" />
    <glyph glyph-name="ocircumflex" unicode="&#xf4;" horiz-adv-x="442" 
d="M199 6q-38 2 -75 15t-70 38t-50 69.5t-10 102.5q4 62 33 113q23 37 41 57q8 71 54.5 122t108.5 52q56 1 98.5 -87t45.5 -197q38 17 47 26q10 3 16 -14q2 -7 0.5 -14t-4.5 -13l-2 -6q-28 -28 -59 -39q-5 -38 -8 -51q-10 -45 -31 -79.5t-43.5 -51.5t-43.5 -27.5t-35 -13.5z
M225 532q-34 -6 -69 -63q40 16 82 8q4 -1 8.5 -3.5t12 -12.5t-4.5 -23q-3 -4 -15.5 -11.5t-24 -16.5t-27.5 -37.5t-29 -71.5q38 -33 102 -43q29 -5 80 16q-4 90 -42.5 175.5t-72.5 82.5zM338 223q-46 -9 -98.5 0t-94.5 31q0 -7 -4 -23q-1 -7 -2 -19.5t-0.5 -44.5t5.5 -56.5
t19.5 -45.5t37.5 -22q30 -2 78 52t59 128zM311 641l4 -8v-6l-4 -6q-2 -4 -8 -7h-8h-8q-15 3 -35 13q-7 4 -19.5 12t-13.5 8v0q-10 -7 -31 -18q-13 -6 -36 -11q-3 0 -9 3h-6q-8 4 -10 8q-2 2 -2 6q-3 3 0 6q0 4 4 8q6 6 12 10q4 2 11.5 6.5t11.5 6.5q39 24 43 26h2q4 2 10 2
t10 -2l2 -2q4 -2 11 -6.5t16.5 -11t15.5 -10.5q5 -4 13.5 -9t9.5 -6q3 -3 7.5 -6.5t6.5 -5.5z" />
    <glyph glyph-name="otilde" unicode="&#xf5;" horiz-adv-x="442" 
d="M199 6q-38 2 -75 15t-70 38t-50 69.5t-10 102.5q4 62 33 113q23 37 41 57q8 71 54.5 122t108.5 52q56 1 98.5 -87t45.5 -197q38 17 47 26q10 3 16 -14q2 -7 0.5 -14t-4.5 -13l-2 -6q-28 -28 -59 -39q-5 -38 -8 -51q-10 -45 -31 -79.5t-43.5 -51.5t-43.5 -27.5t-35 -13.5z
M225 532q-34 -6 -69 -63q40 16 82 8q4 -1 8.5 -3.5t12 -12.5t-4.5 -23q-3 -4 -15.5 -11.5t-24 -16.5t-27.5 -37.5t-29 -71.5q38 -33 102 -43q29 -5 80 16q-4 90 -42.5 175.5t-72.5 82.5zM338 223q-46 -9 -98.5 0t-94.5 31q0 -7 -4 -23q-1 -7 -2 -19.5t-0.5 -44.5t5.5 -56.5
t19.5 -45.5t37.5 -22q30 -2 78 52t59 128zM205 692q13 5 27 7t30.5 1t29 -11.5t17.5 -29.5q6 -24 -8 -26q-6 -1 -16 9t-21 9q-3 0 -22 -5.5t-36.5 -8.5t-39.5 6t-35 33q-23 35 2 41q11 3 34 -14t38 -11z" />
    <glyph glyph-name="odieresis" unicode="&#xf6;" horiz-adv-x="442" 
d="M199 6q-38 2 -75 15t-70 38t-50 69.5t-10 102.5q4 62 33 113q23 37 41 57q8 71 54.5 122t108.5 52q56 1 98.5 -87t45.5 -197q38 17 47 26q10 3 16 -14q2 -7 0.5 -14t-4.5 -13l-2 -6q-28 -28 -59 -39q-5 -38 -8 -51q-10 -45 -31 -79.5t-43.5 -51.5t-43.5 -27.5t-35 -13.5z
M225 532q-34 -6 -69 -63q40 16 82 8q4 -1 8.5 -3.5t12 -12.5t-4.5 -23q-3 -4 -15.5 -11.5t-24 -16.5t-27.5 -37.5t-29 -71.5q38 -33 102 -43q29 -5 80 16q-4 90 -42.5 175.5t-72.5 82.5zM338 223q-46 -9 -98.5 0t-94.5 31q0 -7 -4 -23q-1 -7 -2 -19.5t-0.5 -44.5t5.5 -56.5
t19.5 -45.5t37.5 -22q30 -2 78 52t59 128zM143 692q15 1 27.5 -8.5t15.5 -24.5q2 -15 -6.5 -27.5t-23.5 -13.5q-15 -2 -28.5 8t-14.5 25q-3 15 6 27t24 14zM258 692q15 1 27.5 -9t15.5 -24q3 -15 -6.5 -27.5t-24.5 -15.5q-15 0 -27.5 10t-15.5 25q-3 13 6.5 25.5t24.5 15.5z
" />
    <glyph glyph-name="divide" unicode="&#xf7;" horiz-adv-x="221" 
d="M184 369q19 -6 23 -21q0 -6 -2 -12q0 -10 -17 -17l-4 -1q-4 -1 -8 -1q-2 0 -7.5 -1t-8.5 -1h-21h-20q-31 0 -45 2q-13 0 -19 2h-8q-3 3 -6 3q-6 0 -10 4q-12 4 -15 16q-3 19 7 29q5 8 26 8h17h20h25q5 0 13.5 -1t12.5 -1t13 -1t12 -1q16 -4 22 -6zM111 297q12 0 21 -9
t9 -22q1 -12 -6.5 -20t-19.5 -8q-29 0 -33 28q0 13 8.5 22t20.5 9zM111 397q-12 0 -21.5 9.5t-11.5 21.5q0 12 8 21.5t20 9.5t21.5 -9.5t11.5 -21.5q0 -12 -8 -21.5t-20 -9.5z" />
    <glyph glyph-name="oslash" unicode="&#xf8;" horiz-adv-x="442" 
d="M352 465l26 26q15 12 21 9q6 -6 6.5 -15t-10.5 -29.5t-37 -54.5q14 -63 17 -110q38 17 47 26q10 3 16 -14q2 -7 0.5 -14t-4.5 -13l-2 -6q-28 -28 -59 -39q-5 -38 -8 -51q-10 -45 -31 -79.5t-43.5 -51.5t-43.5 -27.5t-35 -13.5l-13 -2q-71 4 -123 37q-46 -55 -58 -51l-3 3
q-4 13 32 68q-66 63 -53 168q4 62 33 113q23 37 41 57q8 71 54.5 122t108.5 52q33 0 62.5 -32.5t50.5 -87.5zM338 223q-52 -11 -113 2q-55 -66 -84 -104q11 -75 60 -78q30 -2 78 52t59 128zM225 532q-34 -6 -69 -63q40 16 82 8q4 -1 8.5 -3.5t12 -12.5t-4.5 -23
q-3 -4 -15.5 -11.5t-24 -16.5t-27.5 -37.5t-29 -71.5q17 -14 43 -27q64 88 110 142q-19 53 -42.5 85t-43.5 31zM340 274q-3 47 -14 86l-76 -102h10q29 -5 80 16zM141 231q-2 -18 -4 -41l37 50q-22 9 -29 14q0 -7 -4 -23z" />
    <glyph glyph-name="ugrave" unicode="&#xf9;" horiz-adv-x="573" 
d="M514 8q0 -17 -4.5 -21t-13 -2t-11.5 1l-36 4q-22 8 -42 60.5t-20 123.5q1 61 13 138t24 124l12 47q-11 -14 -54.5 -113.5t-94.5 -192t-90 -111.5q-43 -18 -72 -12.5t-44 22.5l-15 16q-4 4 -10 12.5t-19 41t-19 73t-1.5 110.5t24.5 150q22 76 47 94q14 10 46 10t46 -16
q17 -19 28.5 -62t4.5 -75l-11 -46q-12 -46 -18.5 -79t-13 -77.5t-2 -70.5t19.5 -28q25 -3 59 56t83 175l90 205q21 39 46.5 57.5t70.5 10.5q18 -3 24.5 -31t2.5 -65t-11 -73.5t-14 -61.5l-7 -25q-18 -88 -25 -160.5t-4.5 -107t7 -65t4.5 -36.5zM385 684q2 -2 6 -10v-10
l-4 -11q-2 -4 -10 -8q-1 0 -3.5 -1t-4.5 -1h-9q-17 3 -43 16q-21 14 -36 29l-21 29q-5 15 -4.5 24.5t3.5 12.5l3 4q8 6 19 6l10 -4q6 -4 51 -39q5 -4 14 -12t13 -11q12 -6 16 -14z" />
    <glyph glyph-name="uacute" unicode="&#xfa;" horiz-adv-x="573" 
d="M514 8q0 -17 -4.5 -21t-13 -2t-11.5 1l-36 4q-22 8 -42 60.5t-20 123.5q1 61 13 138t24 124l12 47q-11 -14 -54.5 -113.5t-94.5 -192t-90 -111.5q-43 -18 -72 -12.5t-44 22.5l-15 16q-4 4 -10 12.5t-19 41t-19 73t-1.5 110.5t24.5 150q22 76 47 94q14 10 46 10t46 -16
q17 -19 28.5 -62t4.5 -75l-11 -46q-12 -46 -18.5 -79t-13 -77.5t-2 -70.5t19.5 -28q25 -3 59 56t83 175l90 205q21 39 46.5 57.5t70.5 10.5q18 -3 24.5 -31t2.5 -65t-11 -73.5t-14 -61.5l-7 -25q-18 -88 -25 -160.5t-4.5 -107t7 -65t4.5 -36.5zM379 743q2 -1 3.5 -3.5
t4.5 -13t-2 -24.5q-6 -16 -16 -28q-17 -17 -35 -29q-23 -13 -41 -16h-10q-1 0 -3.5 1t-3.5 1q-10 3 -12 8q-2 4 -4 10v10q0 9 4 11q3 6 15 14q4 3 24 23q32 28 47 38q4 3 8 5q12 0 21 -7z" />
    <glyph glyph-name="ucircumflex" unicode="&#xfb;" horiz-adv-x="573" 
d="M514 8q0 -17 -4.5 -21t-13 -2t-11.5 1l-36 4q-22 8 -42 60.5t-20 123.5q1 61 13 138t24 124l12 47q-11 -14 -54.5 -113.5t-94.5 -192t-90 -111.5q-43 -18 -72 -12.5t-44 22.5l-15 16q-4 4 -10 12.5t-19 41t-19 73t-1.5 110.5t24.5 150q22 76 47 94q14 10 46 10t46 -16
q17 -19 28.5 -62t4.5 -75l-11 -46q-12 -46 -18.5 -79t-13 -77.5t-2 -70.5t19.5 -28q25 -3 59 56t83 175l90 205q21 39 46.5 57.5t70.5 10.5q18 -3 24.5 -31t2.5 -65t-11 -73.5t-14 -61.5l-7 -25q-18 -88 -25 -160.5t-4.5 -107t7 -65t4.5 -36.5zM403 649q2 -2 5 -8v-6l-5 -6
q-1 -3 -8 -6h-8h-8q-18 4 -35 12q-7 4 -19.5 12t-13.5 8v0q-12 -9 -30 -18q-9 -4 -37 -10q-4 0 -8 2h-7q-8 4 -10 8q-2 2 -2 6q-3 3 0 6q0 4 4 8q9 9 12 11q4 2 11.5 6t11.5 6q6 4 15.5 10.5t16.5 10.5t11 6h2q4 2 10 2q7 0 11 -2l2 -2q6 -2 21.5 -13.5t21.5 -15.5
q5 -4 12.5 -8.5t9.5 -5.5q3 -3 7.5 -7t6.5 -6z" />
    <glyph glyph-name="udieresis" unicode="&#xfc;" horiz-adv-x="573" 
d="M514 8q0 -17 -4.5 -21t-13 -2t-11.5 1l-36 4q-22 8 -42 60.5t-20 123.5q1 61 13 138t24 124l12 47q-11 -14 -54.5 -113.5t-94.5 -192t-90 -111.5q-43 -18 -72 -12.5t-44 22.5l-15 16q-4 4 -10 12.5t-19 41t-19 73t-1.5 110.5t24.5 150q22 76 47 94q14 10 46 10t46 -16
q17 -19 28.5 -62t4.5 -75l-11 -46q-12 -46 -18.5 -79t-13 -77.5t-2 -70.5t19.5 -28q25 -3 59 56t83 175l90 205q21 39 46.5 57.5t70.5 10.5q18 -3 24.5 -31t2.5 -65t-11 -73.5t-14 -61.5l-7 -25q-18 -88 -25 -160.5t-4.5 -107t7 -65t4.5 -36.5zM248 702q15 2 27.5 -7.5
t15.5 -24.5q2 -15 -7 -27.5t-24 -13.5q-15 -2 -28.5 8t-14.5 25q-3 15 6.5 26.5t24.5 13.5zM362 702q15 1 28 -8.5t16 -23.5q3 -15 -6.5 -27.5t-24.5 -15.5q-15 0 -27.5 10t-15.5 25q-3 13 6 25t24 15z" />
    <glyph glyph-name="yacute" unicode="&#xfd;" horiz-adv-x="536" 
d="M455 4q43 -18 43 -47q10 -33 -4 -33q-6 0 -50 35q-20 -86 -47 -161t-64 -140t-84.5 -92.5t-98.5 -5.5q-4 2 -10 7t-21 21.5t-25.5 36.5t-16.5 53t-1 70q11 77 87.5 153t153.5 105q10 75 13.5 152t1.5 117l-2 40v33q-25 -60 -43 -98.5t-44.5 -79.5t-49.5 -53
q-40 -16 -71.5 -7t-51.5 28l-19 20q-4 3 -9.5 9.5t-17.5 32.5t-17.5 60t-1 95t23.5 134q18 68 43 84q13 10 42 9t42 -15q14 -16 24 -55t4 -68q0 -2 -4.5 -19.5t-8 -31t-8.5 -36.5t-8.5 -41.5t-7 -41t-4.5 -39t0 -31.5t5 -23t12 -9q26 -5 57.5 35t71.5 133q16 41 45 147
q15 124 65 131q27 5 57 -43.5t33 -101.5q6 -101 -16 -342q-7 -65 -18 -127zM172 -344q39 -35 76.5 59.5t62.5 245.5q-42 -12 -71 -35q-57 -41 -83.5 -95.5t-20.5 -101t36 -73.5zM322 733q2 -1 3.5 -3.5t4.5 -13t-2 -24.5q-7 -16 -17 -28q-17 -17 -35 -29q-26 -15 -40 -17
h-11q-1 0 -3 1.5t-3 1.5q-10 3 -12 8q-2 4 -4 10v10q0 8 4 10q4 9 14 15q12 9 25 22q37 32 47 39l8 4q13 0 21 -6z" />
    <glyph glyph-name="ydieresis" unicode="&#xff;" horiz-adv-x="536" 
d="M455 4q43 -18 43 -47q10 -33 -4 -33q-6 0 -50 35q-20 -86 -47 -161t-64 -140t-84.5 -92.5t-98.5 -5.5q-4 2 -10 7t-21 21.5t-25.5 36.5t-16.5 53t-1 70q11 77 87.5 153t153.5 105q10 75 13.5 152t1.5 117l-2 40v33q-25 -60 -43 -98.5t-44.5 -79.5t-49.5 -53
q-40 -16 -71.5 -7t-51.5 28l-19 20q-4 3 -9.5 9.5t-17.5 32.5t-17.5 60t-1 95t23.5 134q18 68 43 84q13 10 42 9t42 -15q14 -16 24 -55t4 -68q0 -2 -4.5 -19.5t-8 -31t-8.5 -36.5t-8.5 -41.5t-7 -41t-4.5 -39t0 -31.5t5 -23t12 -9q26 -5 57.5 35t71.5 133q16 41 45 147
q15 124 65 131q27 5 57 -43.5t33 -101.5q6 -101 -16 -342q-7 -65 -18 -127zM172 -344q39 -35 76.5 59.5t62.5 245.5q-42 -12 -71 -35q-57 -41 -83.5 -95.5t-20.5 -101t36 -73.5zM186 698q15 2 27.5 -7.5t15.5 -24.5q2 -15 -6.5 -27.5t-23.5 -13.5q-15 -2 -28.5 7.5
t-14.5 24.5q-3 15 6 27t24 14zM301 698q15 1 27.5 -8.5t15.5 -23.5q3 -15 -6.5 -27.5t-24.5 -15.5q-15 0 -27.5 9.5t-15.5 24.5q-3 13 6.5 25.5t24.5 15.5z" />
    <glyph glyph-name="OE" unicode="&#x152;" horiz-adv-x="1409" 
d="M1333 1087q56 -4 56 -22q0 -33 -52 -39q-4 0 -31 -1.5t-55.5 -3t-65 -4.5t-75 -8.5t-70.5 -11.5q-2 -23 -8 -96t-10 -115q152 14 186 5q33 -11 35 -27q2 -11 -1 -24t-9 -13q-3 0 -20 -2t-27 -2q-119 0 -170 -6q-53 -692 -19 -881q43 -6 115 -6.5t84 2.5q100 8 113 8
q9 0 18 -1t20.5 -4t14.5 -9t0 -16q-5 -12 -32.5 -20t-51.5 -10l-25 -1q-91 -13 -247 8q-5 -10 -9 -10q-19 0 -59 -4q-23 0 -54.5 13t-39.5 42q-23 87 -29 225q-23 -63 -54.5 -113t-63 -79t-64.5 -49t-61 -27t-50.5 -10.5t-35.5 -2.5l-13 1q-91 8 -156.5 55.5t-98.5 117
t-51.5 151t-18.5 161.5t3.5 146t10.5 106l6 41q15 105 45 191.5t66.5 140.5t77 94.5t78.5 60t68.5 31.5t48.5 14l19 2h14t32 -5.5t42 -16t38 -35.5t26 -59q6 -51 -10 -84q86 -52 131 -211q15 151 32.5 261t26.5 116q20 26 74 23.5t65 -27.5q200 40 291 40zM817 350
q1 62 -4 118t-14 98.5t-22.5 80t-27.5 64t-31.5 49t-32 36.5t-31 26t-26 17t-20.5 10l-10 5q-24 12 -17.5 36.5t33.5 24.5q30 -4 45 -8q1 19 -2.5 40t-12 43t-26.5 36.5t-43 15.5q-4 -1 -11 -5t-27 -22t-39 -44t-43.5 -77t-43.5 -114.5t-35.5 -161.5t-23.5 -215
q0 -7 -1 -18.5t-2 -48t-1 -72t2.5 -84.5t7 -91.5t14 -87t22.5 -77.5t33.5 -56.5t45.5 -29.5q132 -30 228.5 95t111.5 341v13q1 10 2 31t2 32z" />
    <glyph glyph-name="oe" unicode="&#x153;" horiz-adv-x="868" 
d="M801 166q18 20 28 0q3 -5 3.5 -10.5t0 -8.5t-2 -9t-1.5 -9q-4 -9 -31.5 -35t-80 -53t-101.5 -23q-60 3 -116 38.5t-80 99.5q-12 -38 -33 -67.5t-42 -44t-40.5 -24t-32.5 -12.5l-12 -2q-38 2 -75 15t-70 38t-50 69.5t-10 102.5q4 62 35 113q15 31 39 57q8 71 55 122
t109 52q44 1 81.5 -57.5t53.5 -144.5q6 26 21 49q16 28 35.5 54.5t50.5 56.5t70.5 44t80.5 5q2 -1 6 -2.5t15.5 -7t20.5 -13t21 -20t17 -27t8.5 -35t-4.5 -43.5q-16 -64 -83 -98t-118 -25q-4 -16 -6 -26q-1 -9 -2.5 -23.5t-2 -52.5t4 -67.5t19 -54t39.5 -26.5
q58 -4 111.5 34.5t68.5 70.5zM702 537q-9 3 -19.5 3t-23.5 -12.5t-26 -32t-27 -57t-26 -86.5q91 5 120 51q28 43 27 82t-25 52zM264 43q29 -2 76.5 52t58.5 128q-46 -9 -98 0t-94 31q0 -7 -4 -23q-1 -7 -2 -19.5t-0.5 -44.5t5.5 -56.5t19.5 -45.5t38.5 -22zM322 258
q28 -5 79 16q-4 90 -42 175.5t-72 82.5q-36 -6 -70 -63q40 16 82 8q4 -1 8.5 -3.5t12 -12.5t-4.5 -23q-3 -4 -15.5 -11.5t-24 -16.5t-27.5 -37.5t-29 -71.5q38 -32 103 -43z" />
    <glyph glyph-name="Ydieresis" unicode="&#x178;" horiz-adv-x="708" 
d="M678 868q3 -16 2.5 -68.5t-3.5 -133t-14 -176t-27.5 -195t-45.5 -192t-66.5 -165.5t-93 -118t-121.5 -47q-3 0 -9 -0.5t-24 2t-35.5 9t-41 22.5t-43.5 39.5t-40.5 63t-33.5 89.5q-1 6 -2.5 16t-2.5 36.5t2 48t15 41t33 24.5q3 -1 6.5 -3.5t9 -13t2.5 -24.5
q-3 -15 -4.5 -46.5t3.5 -81.5t19 -92.5t49 -72t87 -27.5q5 0 14.5 1.5t34.5 19t46.5 49t45.5 102t37 166.5q22 147 29 373q-21 -74 -52 -130.5t-59.5 -83t-54.5 -42.5t-42 -19l-15 -3q-47 -1 -85 19t-61.5 52t-41 71t-25.5 78.5t-13 72t-5 53.5l-1 20q-4 144 17.5 280
t40.5 193q7 10 16 10q37 3 77 -2.5t40 -25.5q1 -6 -0.5 -74t-2.5 -164t1 -217v-25.5v-59.5t4 -80.5t10 -75.5t19 -59t30 -17q66 14 124.5 137.5t78.5 368.5q0 155 2 167q0 1 0.5 2.5t1.5 6.5t2.5 9.5t3.5 11t4 12t5 10.5t5.5 9t6 6t6.5 1l9 -2q8 -2 15 -4t19 -7t22 -12
t22 -19.5t20.5 -27.5t16 -37.5t11.5 -48.5zM369 1186q15 1 27.5 -8.5t15.5 -24.5q2 -15 -7 -27.5t-24 -13.5q-15 -2 -28.5 8t-14.5 25q-3 15 6.5 27t24.5 14zM483 1186q15 1 27.5 -9t15.5 -24q3 -15 -6 -27.5t-24 -15.5q-15 0 -27.5 10t-15.5 25q-3 13 6 25.5t24 15.5z" />
    <glyph glyph-name="circumflex" unicode="&#x2c6;" horiz-adv-x="256" 
d="M219 1108l4 -8v-6l-4 -7q-1 -3 -8 -6h-8h-8q-15 3 -35 13q-7 4 -19.5 12t-13.5 8v0q-10 -8 -31 -18q-12 -6 -37 -11q-4 0 -8 2h-6q-7 4 -10 9q-2 2 -2 6q-3 3 0 6q0 4 4 8q6 6 12 10q4 2 11.5 6.5t11.5 6.5q39 24 43 26h2q4 2 10 2t10 -2l2 -2q4 -2 11 -6.5t16.5 -11
t15.5 -10.5q5 -4 13.5 -9t9.5 -6q3 -3 7.5 -6.5t6.5 -5.5z" />
    <glyph glyph-name="ring" unicode="&#x2da;" horiz-adv-x="231" 
d="M113 1178q20 0 33.5 -13t13.5 -32q2 -19 -10 -32.5t-31 -13.5t-33 13.5t-14 32.5q-1 18 11 31.5t30 13.5zM117 1114q7 0 12.5 5.5t5.5 13.5q-4 18 -20 18q-17 0 -17 -18q0 -7 6 -13t13 -6z" />
    <glyph glyph-name="tilde" unicode="&#x2dc;" horiz-adv-x="219" 
d="M102 1153q13 5 27 7t30.5 1t29.5 -11.5t18 -29.5q6 -24 -8 -26q-6 -1 -16 9t-21 9q-3 0 -22 -5.5t-36.5 -8.5t-39.5 6t-35 33q-23 35 2 41q11 3 33.5 -14t37.5 -11z" />
    <glyph glyph-name="Euro" unicode="&#x20ac;" horiz-adv-x="555" 
d="M387 725l7 10q8 10 13 17t13.5 21.5t14 27.5t10.5 30.5t6 34.5q4 54 -30.5 112t-66.5 50q-26 -6 -65 -154.5t-49 -291.5h49q9 0 14.5 -7.5t5.5 -17.5q0 -9 -5.5 -15.5t-14.5 -6.5h-53q0 -21 2 -33h51q20 0 20 -23q0 -9 -5.5 -15.5t-14.5 -6.5h-49q-8 -82 -0.5 -152
t24 -111.5t33.5 -71t30 -40.5l13 -12q46 -4 78.5 66.5t30.5 113.5q-1 17 -16.5 43t-27.5 46t-6 28q6 7 17.5 14t19.5 11l8 3q29 0 48.5 -50.5t17.5 -100.5q-2 -47 -34.5 -123t-65.5 -101q-19 -16 -49.5 -18.5t-50.5 2.5l-21 6q-49 10 -86.5 54t-60 110t-34.5 136t-16 147
h-53q-9 0 -16 6.5t-7 15.5q0 10 7 16.5t16 6.5h51v33h-51q-9 0 -16 6.5t-7 15.5t7 17t16 8h51q0 8 2 12q3 69 29 151.5t59 145t62 106t41 50.5q21 14 47.5 23.5t42.5 11.5l16 3q5 0 13.5 -1.5t30 -11.5t38 -28t30 -56.5t13.5 -90.5q0 -130 -59 -214q-40 -57 -76 -48
q-11 3 -19 12q-2 4 -5.5 9.5t-8.5 17.5t-4 16q2 7 21.5 18.5t23.5 16.5z" />
    <glyph glyph-name="minus" unicode="&#x2212;" horiz-adv-x="282" 
d="M217 369q21 -7 21 -21q2 -6 0 -12q-6 -13 -17 -17q-1 0 -5 -1t-7 -1q-2 0 -7.5 -1t-8.5 -1h-21h-20q-32 0 -46 2q-12 0 -18 2h-8q-3 3 -6 3q-7 0 -11 4q-11 4 -14 16q-3 20 6 29q5 8 27 8h16h21h24q5 0 14 -1t13 -1t13 -1t12 -1q16 -4 22 -6z" />
    <glyph glyph-name="g.alt" unicode="&#xe002;" horiz-adv-x="520" 
d="M1026 -184q22 -47 10.5 -97t-49.5 -86q-24 -22 -76 -41q-10 -3 -17.5 5.5t-2.5 17.5q6 14 10.5 28t6.5 21l1 8q1 95 -52.5 162t-133.5 96q-53 20 -116.5 31.5t-100.5 12.5l-37 1q-16 -82 -43.5 -164t-65 -151.5t-85.5 -99t-95 -0.5q-3 2 -9 7t-20 21.5t-23.5 36.5t-16 53
t-2.5 70q17 209 241 260q9 74 12 151.5t2 118.5l-2 41q-8 -19 -23.5 -67t-27.5 -79.5t-36.5 -66.5t-55.5 -51q-24 -13 -49 -13t-44 8t-34 18.5t-23 19.5l-8 8q-28 34 -42.5 77.5t-10 107t34.5 133.5q22 51 55.5 84.5t68.5 45t59.5 14.5t45.5 1q18 -3 38.5 -27.5t31.5 -47.5
l12 -23q7 37 27 41q15 4 32.5 -3.5t22.5 -19.5q0 -1 4 -9.5t7.5 -18t9 -25.5t10 -34t9.5 -40t8.5 -47t5.5 -52t2 -58.5t-3 -63.5q-11 -89 -14 -111q131 9 262 -18q94 -19 171.5 -65.5t117.5 -120.5zM188 106q41 6 80 73t84 224q-59 115 -88 119q-24 2 -59.5 -62.5
t-59.5 -160.5q-16 -67 -11 -110.5t20 -64.5t34 -18zM205 -344q23 -15 44 4.5t38.5 67.5t31 105t25.5 128q-54 -3 -98 -41q-55 -44 -75 -100t-8.5 -99.5t42.5 -64.5z" />
    <glyph glyph-name="i.alt" unicode="&#xe003;" horiz-adv-x="186" 
d="M76 49h-5.5t-12 1.5t-15.5 4t-13 8.5t-7 15q-4 31 -6.5 129.5t3.5 161.5q8 60 22.5 111.5t25.5 51.5q5 0 17 1.5t20 1t12 -4.5q7 -6 16 -29t8 -44q0 -138 -4 -228q-2 -35 -2 -81t-1 -69.5t-5 -25.5q-47 -9 -53 -4zM102 578q-4 -6 -11.5 -4.5t-10.5 8.5q-13 50 -14 73
q-7 58 4.5 105.5t42.5 50.5q24 -12 28 -61q3 -26 2.5 -42t-2.5 -23l-2 -7q1 3 4 9t11 20t16 24t20 17t23 4q15 -4 18.5 -20.5t-13 -44t-54.5 -54.5q-35 -21 -62 -55z" />
    <glyph glyph-name="j.alt" unicode="&#xe004;" horiz-adv-x="219" 
d="M113 557q-7 2 -17 6.5t-24.5 18t-10.5 26.5q9 32 66 19q19 -6 36.5 -21.5t6.5 -27.5t-30.5 -18.5t-26.5 -2.5zM150 18q131 11 262 -18q209 -42 290 -184q22 -47 10.5 -97t-50.5 -86q-23 -23 -76 -41q-9 -3 -17 5.5t-4 17.5q7 13 12.5 26.5t6.5 20.5l2 8q0 95 -53.5 162.5
t-133.5 97.5q-53 19 -117 30t-102 12l-37 1q-12 -64 -31.5 -129.5t-47 -128.5t-60 -105t-70 -59t-77.5 9q-3 2 -9 7t-20 21.5t-24.5 36.5t-17 53t-3.5 70q21 209 242 258q10 74 13.5 152t1.5 120l-1 41q4 193 29 195q3 0 20 3.5t29.5 4t28 -2t24.5 -14.5t10 -32
q7 -122 -16 -342q-3 -56 -14 -113zM-121 -344q23 -15 44.5 4.5t39 67.5t31.5 105.5t26 127.5q-53 -6 -98 -41q-55 -44 -75 -100.5t-9 -100t41 -63.5z" />
    <glyph glyph-name="y.alt" unicode="&#xe006;" horiz-adv-x="536" 
d="M995 -184q22 -45 10.5 -96t-49.5 -87q-28 -25 -75 -39q-11 -4 -19 4t-2 17q6 14 11 28t7 21l1 8q0 95 -53.5 162t-133.5 96q-53 20 -113.5 31.5t-94.5 12.5l-35 1q-16 -81 -46 -162.5t-68.5 -151t-88 -100t-96.5 -1.5q-3 2 -9 7t-20 21.5t-24.5 36.5t-17 53t-3.5 70
q20 209 243 260q10 75 13.5 152t1.5 117l-2 40q-2 13 -2 33q-25 -61 -42.5 -99.5t-44 -79.5t-48.5 -52q-41 -16 -73 -7.5t-52 27.5l-19 19q-4 3 -9.5 9.5t-17.5 32.5t-17.5 60t-1 95t23.5 134q20 70 43 86q13 10 42 9t42 -15q15 -16 25 -56t3 -69q-1 -2 -5 -19.5t-7.5 -31
t-8.5 -36.5t-8.5 -41t-7 -40.5t-4 -39t0.5 -31.5t5.5 -23.5t12.5 -9.5q24 -3 55.5 37t71.5 131q25 65 45 149q15 122 65 132q27 3 57 -45t33 -101q7 -122 -16 -344q-1 -20 -16 -111q119 9 248 -18q213 -43 290 -186zM174 -342q23 -16 44 3.5t38.5 67.5t31 105t25.5 127
q-52 -3 -98 -39q-55 -45 -75 -101.5t-8.5 -99.5t42.5 -63z" />
    </font>
</defs>
</svg>
